<svg width="24" height="24" viewBox="0 0 24 24" fill="none" xmlns="http://www.w3.org/2000/svg">
<path fill-rule="evenodd" clip-rule="evenodd" d="M9.28731 15.7265C9.37019 15.7046 9.45732 15.7043 9.54033 15.7258C9.62334 15.7472 9.69943 15.7897 9.76131 15.849L11.3858 17.407C11.4519 17.4705 11.4993 17.551 11.5227 17.6396C11.5462 17.7282 11.5448 17.8216 11.5188 17.9095L11.1643 19.1065C11.0759 19.4053 10.8966 19.6692 10.6513 19.8615L8.32981 21.6795C8.17497 21.8032 7.99715 21.895 7.80663 21.9496C7.6161 22.0041 7.41666 22.0204 7.2198 21.9975C7.02295 21.9745 6.8326 21.9128 6.65975 21.8158C6.4869 21.7189 6.33497 21.5886 6.21275 21.4326C6.09053 21.2766 6.00044 21.0979 5.94768 20.9069C5.89492 20.7158 5.88054 20.5162 5.90538 20.3196C5.93021 20.123 5.99376 19.9332 6.09236 19.7613C6.19095 19.5894 6.32264 19.4387 6.47981 19.318L8.42431 17.795L8.93581 16.0675C8.96024 15.9853 9.0054 15.9107 9.06695 15.851C9.12851 15.7913 9.20439 15.7484 9.28731 15.7265ZM9.66181 17.1385L9.33731 18.232C9.30781 18.3316 9.24804 18.4195 9.16631 18.4835L7.09631 20.1055C6.99546 20.1884 6.93105 20.3075 6.91684 20.4373C6.90262 20.5671 6.93974 20.6973 7.02025 20.8C7.10077 20.9028 7.21829 20.97 7.3477 20.9873C7.47712 21.0046 7.60816 20.9706 7.71281 20.8925L10.0343 19.074C10.1162 19.01 10.1762 18.9221 10.2058 18.8225L10.4738 17.9175L9.66181 17.1385ZM14.0003 6C14.3981 6 14.7797 5.84196 15.061 5.56066C15.3423 5.27936 15.5003 4.89782 15.5003 4.5C15.5003 4.10218 15.3423 3.72064 15.061 3.43934C14.7797 3.15804 14.3981 3 14.0003 3C13.6025 3 13.221 3.15804 12.9397 3.43934C12.6583 3.72064 12.5003 4.10218 12.5003 4.5C12.5003 4.89782 12.6583 5.27936 12.9397 5.56066C13.221 5.84196 13.6025 6 14.0003 6ZM14.0003 7C14.6634 7 15.2992 6.73661 15.7681 6.26777C16.2369 5.79893 16.5003 5.16304 16.5003 4.5C16.5003 3.83696 16.2369 3.20107 15.7681 2.73223C15.2992 2.26339 14.6634 2 14.0003 2C13.3373 2 12.7014 2.26339 12.2325 2.73223C11.7637 3.20107 11.5003 3.83696 11.5003 4.5C11.5003 5.16304 11.7637 5.79893 12.2325 6.26777C12.7014 6.73661 13.3373 7 14.0003 7Z" fill="#FCFCFC"/>
<path fill-rule="evenodd" clip-rule="evenodd" d="M10.8685 7.18205C11.5825 6.91705 12.3495 6.93205 13.038 7.28855C13.693 7.62705 14.1365 8.20005 14.4155 8.79905C14.5205 9.02355 14.6165 9.23255 14.707 9.42855C14.927 9.90555 15.107 10.297 15.2795 10.6385C15.5225 11.122 15.7005 11.4055 15.8575 11.5885C15.9925 11.745 16.108 11.8245 16.257 11.8825C16.432 11.9515 16.7185 12.014 17.228 12.0295C17.5984 12.0406 17.9492 12.1984 18.2033 12.4681C18.4573 12.7378 18.5939 13.0974 18.5828 13.4678C18.5717 13.8382 18.414 14.189 18.1442 14.443C17.8745 14.6971 17.5149 14.8336 17.1445 14.8225C16.466 14.802 15.8275 14.715 15.24 14.4855C14.626 14.2455 14.1415 13.879 13.7375 13.408C13.6895 13.3522 13.6429 13.2951 13.5975 13.237L13.396 14.289L15.5795 16.4435C15.719 16.5805 15.8275 16.7455 15.899 16.9275L17.141 20.0925C17.208 20.2633 17.2408 20.4456 17.2373 20.6291C17.2339 20.8125 17.1943 20.9934 17.1209 21.1616C17.0475 21.3297 16.9418 21.4818 16.8096 21.609C16.6775 21.7363 16.5216 21.8363 16.3508 21.9033C16.18 21.9703 15.9977 22.003 15.8143 21.9996C15.6308 21.9961 15.4499 21.9566 15.2817 21.8832C15.1136 21.8098 14.9616 21.704 14.8343 21.5719C14.707 21.4397 14.607 21.2838 14.54 21.113L13.406 18.2245L9.47653 14.347C9.32592 14.1985 9.21104 14.0176 9.14053 13.8181C9.07003 13.6187 9.04575 13.4058 9.06953 13.1955L9.23203 11.7605C8.78603 12.337 8.41103 13.0305 8.14903 13.8505C8.03638 14.2036 7.78811 14.4973 7.45885 14.6673C7.12958 14.8373 6.74628 14.8694 6.39328 14.7568C6.04028 14.6441 5.74648 14.3959 5.57653 14.0666C5.40657 13.7373 5.37438 13.3541 5.48703 13.001C6.37103 10.232 8.37053 8.14655 10.852 7.18855L10.855 7.18705L10.8685 7.18205ZM11.2185 8.11905L11.2105 8.12205C9.01953 8.96855 7.23353 10.8175 6.44003 13.305C6.42417 13.3547 6.41826 13.407 6.42261 13.459C6.42697 13.5109 6.44152 13.5615 6.46543 13.6079C6.48935 13.6542 6.52215 13.6954 6.56197 13.729C6.6018 13.7627 6.64786 13.7882 6.69753 13.804C6.7472 13.8199 6.79951 13.8258 6.85147 13.8215C6.90343 13.8171 6.95402 13.8026 7.00036 13.7786C7.0467 13.7547 7.08787 13.7219 7.12153 13.6821C7.15519 13.6423 7.18067 13.5962 7.19653 13.5465C7.69353 11.99 8.55903 10.8125 9.57653 9.98155C9.6535 9.91875 9.74742 9.8803 9.84633 9.8711C9.94524 9.8619 10.0446 9.88237 10.1319 9.9299C10.2191 9.97743 10.2902 10.0499 10.3361 10.138C10.382 10.2261 10.4006 10.3258 10.3895 10.4245L10.0635 13.308C10.0568 13.3677 10.0637 13.4282 10.0837 13.4848C10.1037 13.5415 10.1363 13.5928 10.179 13.635L14.184 17.587C14.234 17.636 14.273 17.695 14.2985 17.76L15.471 20.748C15.4894 20.7975 15.5174 20.8428 15.5535 20.8813C15.5896 20.9198 15.6329 20.9507 15.6811 20.9723C15.7292 20.9938 15.7812 21.0055 15.8339 21.0068C15.8867 21.008 15.9391 20.9987 15.9882 20.9794C16.0373 20.9602 16.0821 20.9313 16.1199 20.8945C16.1578 20.8578 16.1879 20.8138 16.2085 20.7653C16.2292 20.7167 16.2399 20.6646 16.2402 20.6118C16.2405 20.5591 16.2302 20.5068 16.21 20.458L14.968 17.293C14.9479 17.2412 14.917 17.1942 14.8775 17.155L12.5035 14.813C12.445 14.7553 12.4016 14.6841 12.3772 14.6056C12.3528 14.5271 12.3481 14.4438 12.3635 14.363L12.854 11.8005C12.8735 11.6986 12.9241 11.6053 12.999 11.5334C13.0738 11.4616 13.1692 11.4148 13.2718 11.3996C13.3745 11.3844 13.4793 11.4015 13.5718 11.4485C13.6643 11.4955 13.7399 11.5701 13.788 11.662C14.013 12.0905 14.238 12.457 14.496 12.757C14.804 13.1155 15.1565 13.379 15.604 13.554C16.044 13.726 16.5565 13.804 17.174 13.8225C17.2267 13.8251 17.2794 13.8172 17.329 13.7992C17.3786 13.7811 17.4241 13.7534 17.4628 13.7176C17.5016 13.6818 17.5328 13.6387 17.5547 13.5906C17.5765 13.5426 17.5886 13.4908 17.5902 13.438C17.5918 13.3853 17.5829 13.3328 17.564 13.2835C17.545 13.2343 17.5165 13.1893 17.4799 13.1512C17.4434 13.1132 17.3997 13.0827 17.3513 13.0618C17.3029 13.0408 17.2508 13.0297 17.198 13.029C16.628 13.012 16.216 12.9405 15.893 12.814C15.578 12.691 15.33 12.509 15.099 12.2395C14.861 11.963 14.64 11.5925 14.3865 11.0885C14.1847 10.6801 13.9897 10.2684 13.8015 9.85355L13.799 9.84755C13.709 9.65155 13.613 9.44355 13.509 9.22105C13.294 8.76005 12.984 8.38605 12.579 8.17655C12.165 7.96255 11.6945 7.94255 11.2185 8.11905Z" fill="#FCFCFC"/>
</svg>
