<svg width="195" height="225" viewBox="0 0 195 225" fill="none" xmlns="http://www.w3.org/2000/svg">
<path d="M103.651 0H7.74533C5.69203 0.00290632 3.72367 0.819991 2.27177 2.27211C0.819865 3.72424 0.00290588 5.6929 0 7.74651V193.572L0.911215 193.294V7.74651C0.913419 5.93439 1.63415 4.19712 2.91531 2.91576C4.19648 1.6344 5.93348 0.913558 7.74533 0.911354H103.933L103.651 0ZM187.255 0H7.74533C5.69203 0.00290632 3.72367 0.819991 2.27177 2.27211C0.819865 3.72424 0.00290588 5.6929 0 7.74651V216.447C0.00290468 218.5 0.819865 220.469 2.27177 221.921C3.72367 223.373 5.69203 224.19 7.74533 224.193H187.255C189.308 224.19 191.276 223.373 192.728 221.921C194.18 220.469 194.997 218.5 195 216.447V7.74651C194.997 5.6929 194.18 3.72424 192.728 2.27211C191.276 0.819991 189.308 0.00290632 187.255 0ZM194.089 216.447C194.087 218.259 193.366 219.996 192.085 221.277C190.803 222.559 189.066 223.28 187.255 223.282H7.74533C5.93348 223.28 4.19648 222.559 2.91531 221.277C1.63415 219.996 0.913419 218.259 0.911215 216.447V7.74651C0.913419 5.93439 1.63415 4.19712 2.91531 2.91576C4.19648 1.6344 5.93348 0.913558 7.74533 0.911354H187.255C189.066 0.913558 190.803 1.6344 192.085 2.91576C193.366 4.19712 194.087 5.93439 194.089 7.74651V216.447Z" fill="#3F3D56"/>
</svg>
