<svg width="336" height="37" viewBox="0 0 336 37" fill="none" xmlns="http://www.w3.org/2000/svg">
<rect width="303.001" height="36.4571" rx="18.2286" fill="#056AFF"/>
<mask id="path-2-inside-1_348_1390" fill="white">
<path d="M0 18.2286C0 8.1612 8.1612 0 18.2286 0H43.2859V36.4571H18.2286C8.16121 36.4571 0 28.2959 0 18.2286Z"/>
</mask>
<path d="M0 18.2286C0 8.1612 8.1612 0 18.2286 0H43.2859V36.4571H18.2286C8.16121 36.4571 0 28.2959 0 18.2286Z" fill="#056AFF"/>
<path d="M0 0H43.2859H0ZM43.2859 36.4571H0H43.2859ZM0 36.4571V0V36.4571ZM44.2859 0V36.4571H42.2859V0H44.2859Z" fill="white" mask="url(#path-2-inside-1_348_1390)"/>
<path fill-rule="evenodd" clip-rule="evenodd" d="M17.5287 16.8571L16.1572 18.2286L20.2715 22.3428L27.1287 15.4857L25.7572 14.1143L20.2715 19.6L17.5287 16.8571Z" fill="white"/>
<mask id="path-5-inside-2_348_1390" fill="white">
<path d="M43.2861 0H86.5721V36.4571H43.2861V0Z"/>
</mask>
<path d="M85.5721 0V36.4571H87.5721V0H85.5721Z" fill="#F8F8F8" mask="url(#path-5-inside-2_348_1390)"/>
<path fill-rule="evenodd" clip-rule="evenodd" d="M60.8148 16.8571L59.4434 18.2286L63.5576 22.3428L70.4148 15.4857L69.0434 14.1143L63.5576 19.6L60.8148 16.8571Z" fill="white"/>
<mask id="path-8-inside-3_348_1390" fill="white">
<path d="M86.5723 0H129.858V36.4571H86.5723V0Z"/>
</mask>
<path d="M128.858 0V36.4571H130.858V0H128.858Z" fill="#F8F8F8" mask="url(#path-8-inside-3_348_1390)"/>
<path fill-rule="evenodd" clip-rule="evenodd" d="M104.101 16.8571L102.729 18.2286L106.844 22.3428L113.701 15.4857L112.329 14.1143L106.844 19.6L104.101 16.8571Z" fill="white"/>
<mask id="path-11-inside-4_348_1390" fill="white">
<path d="M129.857 0H173.143V36.4571H129.857V0Z"/>
</mask>
<path d="M172.143 0V36.4571H174.143V0H172.143Z" fill="#F8F8F8" mask="url(#path-11-inside-4_348_1390)"/>
<path fill-rule="evenodd" clip-rule="evenodd" d="M147.386 16.8571L146.015 18.2286L150.129 22.3428L156.986 15.4857L155.615 14.1143L150.129 19.6L147.386 16.8571Z" fill="white"/>
<mask id="path-14-inside-5_348_1390" fill="white">
<path d="M173.144 0H216.429V36.4571H173.144V0Z"/>
</mask>
<path d="M215.429 0V36.4571H217.429V0H215.429Z" fill="#F8F8F8" mask="url(#path-14-inside-5_348_1390)"/>
<path fill-rule="evenodd" clip-rule="evenodd" d="M190.672 16.8571L189.301 18.2286L193.415 22.3428L200.272 15.4857L198.901 14.1143L193.415 19.6L190.672 16.8571Z" fill="white"/>
<mask id="path-17-inside-6_348_1390" fill="white">
<path d="M216.43 0H259.716V36.4571H216.43V0Z"/>
</mask>
<path d="M258.716 0V36.4571H260.716V0H258.716Z" fill="#F8F8F8" mask="url(#path-17-inside-6_348_1390)"/>
<path fill-rule="evenodd" clip-rule="evenodd" d="M233.958 16.8571L232.587 18.2286L236.701 22.3428L243.558 15.4857L242.187 14.1143L236.701 19.6L233.958 16.8571Z" fill="white"/>
<path fill-rule="evenodd" clip-rule="evenodd" d="M277.244 16.8571L275.873 18.2286L279.987 22.3428L286.844 15.4857L285.473 14.1143L279.987 19.6L277.244 16.8571Z" fill="white"/>
<g clip-path="url(#clip0_348_1390)">
<path d="M329.782 7.49175H326.988C326.638 7.49175 326.355 7.1839 326.355 6.80462C326.355 6.42534 326.638 6.11749 326.988 6.11749H329.782C330.131 6.11749 330.414 6.42471 330.414 6.80462C330.414 7.18454 330.131 7.49175 329.782 7.49175Z" fill="#F27E00"/>
<path d="M328.609 17.5743C328.515 17.5742 328.422 17.5512 328.339 17.5073C327.327 16.9845 326.636 15.5964 327.28 13.9547C328.068 11.947 329.817 11.009 331.359 10.1809C332.488 9.57527 333.554 9.00256 334.204 8.09924C334.576 7.58089 335.302 6.22622 334.006 4.84564C333.592 4.40315 332.411 4.17684 331.428 4.80898C330.621 5.32796 330.493 6.25657 330.628 6.89502C330.723 7.33752 330.999 7.86535 331.473 7.90644C331.821 7.93678 332.08 8.26802 332.053 8.64604C332.025 9.02405 331.72 9.30662 331.372 9.27817C330.424 9.19536 329.647 8.38244 329.397 7.20603C329.092 5.77109 329.636 4.36712 330.784 3.62878C332.281 2.66667 334.082 3.00297 334.893 3.8671C336.548 5.63012 336.094 7.70605 335.202 8.94756C334.376 10.0987 333.128 10.7681 331.922 11.4129C330.445 12.2056 329.05 12.954 328.445 14.4939C328.096 15.3821 328.413 16.0243 328.883 16.2639C329.199 16.4263 329.332 16.836 329.183 17.1792C329.136 17.294 329.057 17.3926 328.955 17.4628C328.853 17.5331 328.733 17.5718 328.609 17.5743Z" fill="#FBA300"/>
<path d="M316.955 7.49175H314.162C313.813 7.49175 313.53 7.1839 313.53 6.80462C313.53 6.42534 313.813 6.11749 314.162 6.11749H316.956C317.306 6.11749 317.589 6.42471 317.589 6.80462C317.589 7.18454 317.305 7.49175 316.955 7.49175Z" fill="#F27E00"/>
<path d="M321.024 16.9438L321.004 28.5201L322.893 28.5234L322.913 16.9471L321.024 16.9438Z" fill="#FF9800"/>
<path d="M321.697 28.5216L321.259 28.5185L321.278 16.9422L321.718 16.9453L321.697 28.5216Z" fill="#FFCC45"/>
<path d="M321.022 20.5959C321.022 20.5959 321.25 20.3544 321.985 20.3544C322.719 20.3544 322.906 20.5959 322.906 20.5959V19.8481L321.022 19.8645V20.5959Z" fill="#C86021"/>
<path d="M323.905 18.2646C323.905 18.7806 323.7 19.2755 323.336 19.6404C322.971 20.0053 322.476 20.2103 321.96 20.2103C321.444 20.2101 320.949 20.0051 320.584 19.6402C320.22 19.2753 320.015 18.7805 320.015 18.2646C320.015 17.7487 320.22 17.2539 320.584 16.889C320.949 16.5241 321.444 16.319 321.96 16.3189C322.476 16.3189 322.971 16.5239 323.336 16.8888C323.7 17.2537 323.905 17.7486 323.905 18.2646Z" fill="#F99109"/>
<path d="M321.96 16.3189C321.444 16.319 320.949 16.5241 320.584 16.889C320.22 17.2539 320.015 17.7487 320.015 18.2646C320.015 18.324 320.015 18.3828 320.023 18.441C320.619 18.3417 321.332 18.2513 321.95 18.2513C322.568 18.2513 323.294 18.3423 323.897 18.441C323.902 18.3822 323.905 18.3227 323.905 18.2627C323.905 17.747 323.7 17.2526 323.335 16.8881C322.97 16.5236 322.475 16.3189 321.96 16.3189Z" fill="#C86021"/>
<path d="M326.874 30.1342C326.604 29.2454 326.26 27.9059 326.033 27.4691C324.848 25.1827 323.263 24.3944 322.076 24.3963H321.832C320.645 24.3963 319.058 25.1915 317.877 27.4843C317.653 27.9186 317.946 29.2543 317.68 30.1336L326.874 30.1342Z" fill="#FDA300"/>
<path d="M320.122 30.1342C320.3 29.253 320.089 27.9217 320.242 27.4849C320.811 25.8698 321.527 25 322.193 24.6251C322.041 24.5404 322.063 24.4804 321.919 24.4437C321.144 24.6428 319.531 25.5038 318.833 27.4849C318.68 27.9192 318.836 29.2549 318.658 30.1342H320.122Z" fill="#FFCC45"/>
<path d="M328.167 4.70403L322.025 4.69329L315.885 4.68254C315.885 4.68254 315.717 10.8673 316.336 13.1405C317.266 16.554 319.4 18.0326 321.758 18.037H322.244C324.602 18.0414 326.741 16.5686 327.681 13.1595C328.31 10.8895 328.167 4.70403 328.167 4.70403Z" fill="#FDA300"/>
<path d="M322.026 4.6933H321.888V18.037H322.245C324.603 18.0415 326.742 16.5686 327.681 13.1595C328.308 10.8889 328.165 4.70341 328.165 4.70341L322.026 4.6933Z" fill="#F59209"/>
<path d="M321.728 17.3531C320.09 17.3499 319.362 15.071 319.073 13.7929C318.82 12.655 318.727 9.96277 318.719 7.66116L325.195 7.67317C325.179 9.97731 325.079 12.6715 324.819 13.8049C324.529 15.0774 323.794 17.3531 322.158 17.3531H321.728Z" fill="#FDA300"/>
<path d="M327.433 6.07893L322.151 6.06944L316.87 6.06059C316.87 6.06059 316.87 6.12886 316.865 6.25023L321.203 6.25782L325.978 6.2673C325.978 6.2673 326.105 11.5867 325.562 13.54C324.94 15.7923 324.216 17.0604 322.76 17.5269C324.618 17.3632 326.263 16.0774 327.016 13.3504C327.555 11.3983 327.433 6.07893 327.433 6.07893Z" fill="#E06511"/>
<path d="M318.693 13.2644C318.147 11.3269 318.292 6.07135 318.293 6.02394H316.984C316.984 6.02394 316.835 11.3193 317.384 13.2657C318.206 16.1874 320.099 17.4548 322.189 17.458H322.619C322.666 17.458 322.713 17.458 322.759 17.458C320.704 17.4163 319.506 16.1469 318.693 13.2644Z" fill="#FFCC45"/>
<path d="M322.026 4.69329L315.885 4.68254C315.885 4.68254 315.799 6.44746 315.899 8.80406C316.804 8.64729 318.704 8.47472 321.887 8.47472C325.268 8.47472 327.26 8.67384 328.135 8.82935C328.244 6.47085 328.167 4.70403 328.167 4.70403L322.026 4.69329Z" fill="#BA531B"/>
<path d="M328.651 1.71088H315.25V8.12009H328.651V1.71088Z" fill="#F59209"/>
<path d="M317.587 1.71088H316.072V8.12009H317.587V1.71088Z" fill="#FBD047"/>
<path d="M318.977 1.71088H318.095V8.12009H318.977V1.71088Z" fill="#FBD047"/>
<path d="M328.017 1.71088H326.502V8.12009H328.017V1.71088Z" fill="#E06511"/>
<path d="M315.25 3.75583C315.25 3.75583 315.566 3.37655 321.657 3.37655C327.747 3.37655 328.651 3.76025 328.651 3.76025V1.94476H315.25V3.75583Z" fill="#BA531B"/>
<path d="M329.444 1.22856H314.459V3.07882H329.444V1.22856Z" fill="#FEA402"/>
<path d="M328.435 27.6354H315.467V31.0331H328.435V27.6354Z" fill="#F59209"/>
<path d="M319.841 27.6354H316.283V31.0331H319.841V27.6354Z" fill="#FBD047"/>
<path d="M327.716 27.6354H322.739V31.0331H327.716V27.6354Z" fill="#E87A02"/>
<path d="M324.093 23.5265H319.809V25.091H324.093V23.5265Z" fill="#EE8716"/>
<path d="M317.233 1.22856H315.719V3.09083H317.233V1.22856Z" fill="#FBD047"/>
<path d="M328.485 1.22856H327.413V3.09083H328.485V1.22856Z" fill="#E87A02"/>
<path d="M316.723 13.9547C315.935 11.947 314.187 11.009 312.644 10.1809C311.515 9.57527 310.449 9.00255 309.799 8.09923C309.427 7.58088 308.701 6.22622 309.997 4.84564C310.411 4.40314 311.592 4.17684 312.575 4.80897C313.382 5.32796 313.51 6.25656 313.375 6.89502C313.325 7.13851 313.224 7.36866 313.079 7.57014C312.922 7.45981 312.734 7.40065 312.542 7.40073C312.294 7.40073 312.055 7.49949 311.879 7.6753C311.704 7.85111 311.605 8.08955 311.605 8.33818C311.605 8.58464 311.702 8.82118 311.875 8.99663C312.048 9.17208 312.283 9.27231 312.53 9.27564C312.564 9.27849 312.598 9.27849 312.631 9.27564C313.58 9.19283 314.357 8.3799 314.606 7.2035C314.912 5.76855 314.367 4.36458 313.219 3.62625C311.722 2.66414 309.922 3.00044 309.11 3.86456C307.456 5.62759 307.909 7.70352 308.801 8.94503C309.628 10.0961 310.876 10.7656 312.082 11.4104C313.559 12.2031 314.954 12.9515 315.559 14.4914C315.908 15.3795 315.59 16.0218 315.121 16.2614C314.805 16.4238 314.671 16.8334 314.821 17.1767C314.868 17.2903 314.946 17.3879 315.047 17.4576C315.148 17.5273 315.267 17.5661 315.39 17.5692C315.484 17.5691 315.577 17.5461 315.661 17.5022C316.678 16.9845 317.367 15.5964 316.723 13.9547Z" fill="#FEA200"/>
<path d="M329.444 1.22856H314.459V1.43527H329.444V1.22856Z" fill="#FBD047"/>
<path d="M309.119 9.19852C308.227 7.95701 307.696 5.83493 309.35 4.07128C310.16 3.20778 312.039 2.91763 313.535 3.88164C313.569 3.90313 313.602 3.92589 313.634 3.94864C313.505 3.83028 313.366 3.72326 313.219 3.62878C311.722 2.66667 309.922 3.00297 309.11 3.8671C307.456 5.63012 307.909 7.70605 308.801 8.94756C309.142 9.41104 309.551 9.82061 310.014 10.1625C309.678 9.87846 309.377 9.55477 309.119 9.19852Z" fill="#FBD047"/>
<path d="M315.139 17.4346C314.989 17.0914 315.123 16.6817 315.438 16.5193C315.908 16.2772 316.225 15.6343 315.876 14.7493C315.554 13.9275 315.006 13.3314 314.341 12.8333C314.863 13.2796 315.289 13.8093 315.56 14.4964C315.909 15.3846 315.592 16.0268 315.122 16.2664C314.806 16.4289 314.673 16.8385 314.823 17.1818C314.857 17.2635 314.908 17.3373 314.972 17.3986C315.036 17.4599 315.112 17.5075 315.195 17.5383C315.174 17.5051 315.155 17.4705 315.139 17.4346Z" fill="#FBD047"/>
<path d="M329.423 7.31917C329.207 5.95503 329.752 4.64588 330.847 3.94231C332.343 2.9802 334.144 3.3165 334.956 4.18062C335.497 4.75713 335.811 5.36714 335.96 5.9702C335.852 5.26537 335.529 4.5422 334.893 3.86456C334.083 3.00043 332.282 2.6635 330.784 3.62624C329.635 4.36458 329.091 5.76855 329.396 7.20349C329.405 7.24268 329.414 7.28124 329.423 7.31917Z" fill="#FBD047"/>
<path d="M328.881 16.2664C328.634 16.1349 328.448 15.9122 328.362 15.6457C328.398 16.0983 328.639 16.4251 328.944 16.5825C329.076 16.6524 329.181 16.7655 329.241 16.903C329.246 16.7739 329.215 16.6459 329.151 16.5335C329.088 16.4211 328.994 16.3286 328.881 16.2664Z" fill="#E87A02"/>
<path d="M331.471 7.9058C331.043 7.86851 330.776 7.43107 330.659 7.02081C330.667 7.08403 330.678 7.14724 330.69 7.21045C330.784 7.65295 331.061 8.18078 331.535 8.22187C331.647 8.23375 331.755 8.27575 331.846 8.34349C331.937 8.41122 332.008 8.50218 332.052 8.60684C332.06 8.24463 331.807 7.93425 331.471 7.9058Z" fill="#FBD047"/>
<path d="M327.343 14.2708C328.131 12.2631 329.88 11.325 331.422 10.4969C332.551 9.89133 333.618 9.31862 334.267 8.4153C334.537 8.03918 334.992 7.22309 334.728 6.27615C334.828 7.08592 334.443 7.7661 334.204 8.09923C333.555 9.00255 332.489 9.57527 331.359 10.1809C329.817 11.0089 328.068 11.947 327.28 13.9547C326.994 14.6829 326.971 15.3612 327.122 15.9358C327.05 15.3711 327.126 14.7972 327.343 14.2708Z" fill="#E06511"/>
<path d="M331.08 29.7486H312.84V35.2222H331.08V29.7486Z" fill="#7F302E"/>
<path d="M328.435 27.6354H315.467V27.8819H328.435V27.6354Z" fill="#FBD047"/>
</g>
<defs>
<clipPath id="clip0_348_1390">
<rect width="27.9985" height="34" fill="white" transform="translate(308.002 1.22856)"/>
</clipPath>
</defs>
</svg>
