<svg width="175" height="150" viewBox="0 0 175 150" fill="none" xmlns="http://www.w3.org/2000/svg">
<path d="M87.4437 150C135.738 150 174.887 147.718 174.887 144.903C174.887 142.089 135.738 139.807 87.4437 139.807C39.1499 139.807 0 142.089 0 144.903C0 147.718 39.1499 150 87.4437 150Z" fill="#056AFF" fill-opacity="0.3"/>
<path d="M89.3829 17.0825L89.0672 16.857C90.4652 15.0529 91.9985 13.339 93.4868 11.7604L93.7573 12.031C92.3142 13.6096 90.826 15.3235 89.3829 17.0825Z" fill="#056AFF"/>
<path d="M87.7137 18.5922L86.2565 20.4298L86.5745 20.682L88.0317 18.8444L87.7137 18.5922Z" fill="#056AFF"/>
<path d="M119.012 38.0102C128.798 22.2694 130.151 6.70904 123.026 1.70265C115.855 -3.30373 101.695 3.19104 90.195 17.7141L57.2289 59.2987L91.0068 83.1128L119.012 38.0102Z" fill="#056AFF"/>
<path opacity="0.1" d="M115.133 35.3039L86.4515 79.9104L82.9339 73.1901L111.435 32.5076C119.508 21.0064 124.018 10.4975 124.018 4.63419C124.018 4.09296 124.784 3.95765 124.965 4.45378C126.994 10.3171 123.476 22.3595 115.133 35.3039Z" fill="#F7FAFF"/>
<path d="M91.0024 83.0969C95.5629 76.6205 91.6992 66.0451 82.3727 59.4761C73.0462 52.9071 61.7885 52.8319 57.228 59.3083C52.6675 65.7847 56.5311 76.3601 65.8576 82.9292C75.1842 89.4982 86.4419 89.5733 91.0024 83.0969Z" fill="#056AFF"/>
<path opacity="0.5" d="M91.0024 83.0969C95.5629 76.6205 91.6992 66.0451 82.3727 59.4761C73.0462 52.9071 61.7885 52.8319 57.228 59.3083C52.6675 65.7847 56.5311 76.3601 65.8576 82.9292C75.1842 89.4982 86.4419 89.5733 91.0024 83.0969Z" fill="#F7FAFF"/>
<path opacity="0.1" d="M87.4886 52.0823C80.0926 46.8504 71.6594 45.362 66.2928 47.7975L57.9047 58.3515C62.8654 52.8039 73.4633 53.2098 82.3475 59.434C91.2317 65.6581 95.1551 75.5356 91.5924 82.0755L98.6276 70.7998C99.2139 64.8914 94.9747 57.3593 87.4886 52.0823Z" fill="#191919"/>
<path opacity="0.2" d="M99.3495 18.12C97.2751 21.3674 95.7418 27.4562 101.875 31.7861C107.963 36.0708 113.194 32.5979 115.585 29.531L99.3495 18.12Z" fill="#191919"/>
<path d="M116.983 25.7422C116.261 31.5605 109.542 35.8001 102.507 30.8388C95.4264 25.8775 97.1852 18.1199 102.416 15.5039C105.663 13.8802 109.767 14.6019 112.563 16.5413C115.405 18.5258 117.434 22.134 116.983 25.7422Z" fill="#F7FAFF"/>
<path d="M103.453 29.4406C100.702 27.5012 99.3045 24.9754 99.4849 22.3595C99.6653 20.0592 101.063 17.9845 103.138 16.9471C105.573 15.7294 109.045 16.0902 111.571 17.8943C114.096 19.6533 115.63 22.8105 115.314 25.5166C115.043 27.8169 113.555 29.8465 111.481 30.7936C109.091 31.8761 106.204 31.38 103.453 29.4406Z" fill="#056AFF"/>
<path opacity="0.3" d="M103.453 29.4406C100.702 27.5012 99.3045 24.9754 99.4849 22.3595C99.6653 20.0592 101.063 17.9845 103.138 16.9471C105.573 15.7294 109.045 16.0902 111.571 17.8943C114.096 19.6533 115.63 22.8105 115.314 25.5166C115.043 27.8169 113.555 29.8465 111.481 30.7936C109.091 31.8761 106.204 31.38 103.453 29.4406Z" fill="#191919"/>
<path d="M103.453 29.4407C100.702 27.5013 99.2591 25.0658 99.3493 22.54C99.4395 20.3751 100.747 18.4357 102.732 17.4885C105.077 16.4061 108.504 16.8571 111.03 18.6612C113.555 20.4202 115.133 23.4872 114.908 26.058C114.728 28.268 113.329 30.1173 111.3 30.9291C109 31.9214 106.204 31.3801 103.453 29.4407Z" fill="#056AFF"/>
<path opacity="0.2" d="M103.453 29.4407C100.702 27.5013 99.2591 25.0658 99.3493 22.54C99.4395 20.3751 100.747 18.4357 102.732 17.4885C105.077 16.4061 108.504 16.8571 111.03 18.6612C113.555 20.4202 115.133 23.4872 114.908 26.058C114.728 28.268 113.329 30.1173 111.3 30.9291C109 31.9214 106.204 31.3801 103.453 29.4407Z" fill="#F7FAFF"/>
<path opacity="0.3" d="M112.969 20.4652L100.296 26.058C99.6651 24.9304 99.3494 23.7577 99.3945 22.5399C99.4396 21.9536 99.5298 21.3673 99.7102 20.826L107.918 17.2178C109.045 17.4885 110.128 17.9846 111.075 18.6611C111.796 19.2024 112.428 19.7887 112.969 20.4652Z" fill="#F7FAFF"/>
<path opacity="0.3" d="M114.773 24.0735L103.138 29.2152C102.416 28.6739 101.74 28.0876 101.244 27.4562L113.916 21.8635C114.322 22.5851 114.593 23.3518 114.773 24.0735Z" fill="#F7FAFF"/>
<path opacity="0.1" d="M127.491 14.0156C127.085 10.9036 124.695 7.29534 120.952 4.63429C117.163 1.97324 112.969 0.935879 109.903 1.61242C115.089 -0.507404 119.779 -0.597609 123.026 1.70262C126.228 4.00286 127.716 8.42291 127.491 14.0156Z" fill="#191919"/>
<path opacity="0.5" d="M82.3844 70.4179C83.8041 68.4017 82.644 65.1394 79.7931 63.1314C76.9422 61.1234 73.4801 61.1301 72.0603 63.1463C70.6405 65.1625 71.8007 68.4248 74.6516 70.4328C77.5025 72.4408 80.9646 72.4341 82.3844 70.4179Z" fill="#056AFF"/>
<path opacity="0.5" d="M68.9091 68.4995C67.466 70.5291 64.0386 70.5291 61.1975 68.5446C58.3564 66.5601 57.1838 63.2676 58.6269 61.2831C60.0701 59.2535 63.4975 59.2535 66.3386 61.238C69.1797 63.2225 70.3522 66.4699 68.9091 68.4995Z" fill="#056AFF"/>
<path opacity="0.5" d="M88.6616 82.3912C87.2185 84.4208 83.7911 84.4208 80.9499 82.4363C78.1088 80.4518 76.9363 77.1593 78.3794 75.1748C79.8225 73.1452 83.2499 73.1452 86.091 75.1297C88.9322 77.1142 90.1047 80.3616 88.6616 82.3912Z" fill="#056AFF"/>
<path opacity="0.5" d="M75.2231 80.4968C73.78 82.5264 70.3526 82.5264 67.5114 80.5419C64.6703 78.5573 63.4978 75.2649 64.9409 73.2803C66.384 71.2507 69.8114 71.2507 72.6525 73.2352C75.4937 75.2198 76.6662 78.4671 75.2231 80.4968Z" fill="#056AFF"/>
<path opacity="0.5" d="M82.3487 70.3939C82.2134 70.6195 82.033 70.7999 81.8075 70.9803C82.5742 68.9507 81.4017 66.1994 78.8762 64.3953C76.3508 62.5912 73.3292 62.4108 71.6606 63.8541C71.7508 63.6286 71.8861 63.403 72.0214 63.1775C73.4194 61.1479 76.8919 61.1479 79.7331 63.1324C82.6193 65.1169 83.7918 68.3643 82.3487 70.3939Z" fill="#056AFF"/>
<path opacity="0.5" d="M68.9092 68.4995C68.7739 68.725 68.5935 68.9054 68.3681 69.0859C69.1798 67.0562 67.9622 64.305 65.4367 62.5009C62.9113 60.6968 59.8898 60.5164 58.2212 61.9596C58.3114 61.7341 58.4466 61.5086 58.5819 61.2831C60.025 59.2535 63.4524 59.2535 66.2936 61.238C69.1798 63.2225 70.3523 66.4699 68.9092 68.4995Z" fill="#056AFF"/>
<path opacity="0.5" d="M88.6617 82.3912C88.5264 82.6167 88.346 82.7971 88.1205 82.9775C88.9323 80.9479 87.7146 78.1515 85.1892 76.3925C82.6637 74.5884 79.6422 74.408 77.9736 75.8513C78.0638 75.6258 78.1991 75.4003 78.3344 75.1748C79.7775 73.1452 83.2049 73.1452 86.046 75.1297C88.9323 77.1142 90.1048 80.3616 88.6617 82.3912Z" fill="#056AFF"/>
<path opacity="0.5" d="M75.2232 80.4968C75.0879 80.7223 74.9075 80.9027 74.682 81.0831C75.4487 79.0535 74.2761 76.2571 71.7507 74.4981C69.2252 72.694 66.2037 72.5136 64.5351 73.9569C64.6253 73.7314 64.7606 73.5059 64.8959 73.2803C66.339 71.2507 69.7664 71.2507 72.6075 73.2352C75.4938 75.2198 76.6663 78.4671 75.2232 80.4968Z" fill="#056AFF"/>
<path d="M79.597 33.0489C79.597 33.0489 73.5088 40.9418 68.1873 47.7523C66.654 49.6917 64.2188 50.6389 61.7835 50.3232C57.1385 49.7368 49.6072 53.0293 49.6072 53.0293C49.6072 53.0293 63.9031 29.6211 79.597 33.0489Z" fill="#056AFF"/>
<path opacity="0.3" d="M79.597 33.0489C79.597 33.0489 73.5088 40.9418 68.1873 47.7523C66.654 49.6917 64.2188 50.6389 61.7835 50.3232C57.1385 49.7368 49.6072 53.0293 49.6072 53.0293C49.6072 53.0293 63.9031 29.6211 79.597 33.0489Z" fill="#191919"/>
<path d="M108.143 53.1646C108.143 53.1646 102.777 61.5537 98.1317 68.8603C96.8238 70.935 96.7787 73.551 97.8611 75.761C99.9806 79.9105 99.3944 88.1642 99.3944 88.1642C99.3944 88.1642 116.667 66.7856 108.143 53.1646Z" fill="#056AFF"/>
<path opacity="0.3" d="M108.143 53.1646C108.143 53.1646 102.777 61.5537 98.1317 68.8603C96.8238 70.935 96.7787 73.551 97.8611 75.761C99.9806 79.9105 99.3944 88.1642 99.3944 88.1642C99.3944 88.1642 116.667 66.7856 108.143 53.1646Z" fill="#191919"/>
<path d="M127.805 113.512C133.398 99.7105 109.09 95.8316 99.4393 99.2594C89.7884 102.732 79.9572 105.303 79.5964 96.0572C79.1905 86.8562 86.6316 81.1282 83.114 78.9633C81.1297 77.7906 80.5886 79.8653 79.6415 82.8872C76.6651 92.1783 59.8438 94.4335 67.6005 107.919C75.3122 121.405 71.2083 118.473 58.2203 123.885C45.1872 129.298 51.9067 144.858 64.4888 144.858C77.071 144.858 116.802 144.858 140.297 144.858C174.977 144.903 142.101 78.422 127.805 113.512Z" fill="#056AFF"/>
<path opacity="0.6" d="M127.805 113.512C133.398 99.7105 109.09 95.8316 99.4393 99.2594C89.7884 102.732 79.9572 105.303 79.5964 96.0572C79.1905 86.8562 86.6316 81.1282 83.114 78.9633C81.1297 77.7906 80.5886 79.8653 79.6415 82.8872C76.6651 92.1783 59.8438 94.4335 67.6005 107.919C75.3122 121.405 71.2083 118.473 58.2203 123.885C45.1872 129.298 51.9067 144.858 64.4888 144.858C77.071 144.858 116.802 144.858 140.297 144.858C174.977 144.903 142.101 78.422 127.805 113.512Z" fill="#F7FAFF"/>
<path d="M63.7673 65.4778C62.7751 61.9598 57.2733 66.3798 51.9067 71.7019C46.495 77.0691 43.8794 89.2468 38.6481 95.6063C33.4168 102.011 18.5347 107.739 24.3522 117.301C32.9658 131.418 13.1681 144.949 36.5736 144.949C59.9791 144.949 75.8083 144.949 84.6022 144.949C93.3962 144.949 102.912 134.214 89.2473 126.907C75.5828 119.601 55.1086 136.65 49.5616 120.368C46.8107 112.294 56.7772 115.993 52.1773 102.823C47.5773 89.6076 47.893 86.0446 50.2381 80.1361C55.9654 65.7935 65.3006 70.7999 63.7673 65.4778Z" fill="#056AFF"/>
<path opacity="0.6" d="M63.7673 65.4778C62.7751 61.9598 57.2733 66.3798 51.9067 71.7019C46.495 77.0691 43.8794 89.2468 38.6481 95.6063C33.4168 102.011 18.5347 107.739 24.3522 117.301C32.9658 131.418 13.1681 144.949 36.5736 144.949C59.9791 144.949 75.8083 144.949 84.6022 144.949C93.3962 144.949 102.912 134.214 89.2473 126.907C75.5828 119.601 55.1086 136.65 49.5616 120.368C46.8107 112.294 56.7772 115.993 52.1773 102.823C47.5773 89.6076 47.893 86.0446 50.2381 80.1361C55.9654 65.7935 65.3006 70.7999 63.7673 65.4778Z" fill="#F7FAFF"/>
<path d="M73.7338 67.1013C74.9064 64.9364 79.0102 66.2444 78.92 69.0858C78.8298 71.9273 68.232 75.6708 70.2162 85.5032C72.2005 95.3355 91.0512 96.0572 95.5159 105.89C99.9354 115.722 82.7984 117.12 87.8944 123.254C92.9904 129.388 108.82 115.271 120.094 118.924C131.368 122.577 142.597 144.948 121.943 144.948C101.288 144.948 72.1103 144.948 58.2654 144.948C44.4206 144.948 34.3188 116.353 47.6225 104.582C60.9262 92.8098 50.193 96.6435 55.1537 89.1114C60.1144 81.5341 69.179 75.4453 73.7338 67.1013Z" fill="#056AFF"/>
<path opacity="0.8" d="M73.7338 67.1013C74.9064 64.9364 79.0102 66.2444 78.92 69.0858C78.8298 71.9273 68.232 75.6708 70.2162 85.5032C72.2005 95.3355 91.0512 96.0572 95.5159 105.89C99.9354 115.722 82.7984 117.12 87.8944 123.254C92.9904 129.388 108.82 115.271 120.094 118.924C131.368 122.577 142.597 144.948 121.943 144.948C101.288 144.948 72.1103 144.948 58.2654 144.948C44.4206 144.948 34.3188 116.353 47.6225 104.582C60.9262 92.8098 50.193 96.6435 55.1537 89.1114C60.1144 81.5341 69.179 75.4453 73.7338 67.1013Z" fill="#F7FAFF"/>
</svg>
