<svg width="20" height="20" viewBox="0 0 20 20" fill="none" xmlns="http://www.w3.org/2000/svg">
<g clip-path="url(#clip0_2313_1765)">
<path d="M13.541 19.9358L13.5402 19.9351L6.73213 13.127C6.73206 13.1269 6.73198 13.1268 6.73191 13.1268C6.32071 12.7165 5.99445 12.2292 5.77184 11.6927C5.54918 11.1562 5.43457 10.5809 5.43457 9.99998C5.43457 9.41904 5.54918 8.8438 5.77184 8.30722C5.99447 7.7707 6.32075 7.28337 6.73199 6.87313C6.73204 6.87308 6.73208 6.87303 6.73213 6.87298L13.5402 0.0648813L13.6978 0.222411L13.5402 0.0648803C13.6412 -0.0360324 13.761 -0.116081 13.8928 -0.170695C14.0247 -0.225308 14.166 -0.253418 14.3087 -0.253418C14.4514 -0.253418 14.5927 -0.225309 14.7246 -0.170694C14.8564 -0.116081 14.9762 -0.0360317 15.0771 0.0648814C15.178 0.165793 15.2581 0.285595 15.3127 0.417448C15.3673 0.549296 15.3954 0.690611 15.3954 0.833324C15.3954 0.976037 15.3673 1.11735 15.3127 1.2492C15.2581 1.38105 15.178 1.50085 15.0771 1.60177L8.2689 8.40998C7.84755 8.83186 7.61088 9.40373 7.61088 9.99998C7.61088 10.5962 7.84751 11.168 8.2688 11.5899L13.541 19.9358ZM13.541 19.9358C13.6422 20.0362 13.7622 20.1156 13.8942 20.1695C14.0258 20.2233 14.1666 20.2506 14.3087 20.25M13.541 19.9358L8.26891 11.59L15.0764 18.3975C15.0765 18.3976 15.0766 18.3977 15.0768 18.3978C15.1781 18.4985 15.2586 18.6182 15.3135 18.75C15.3685 18.882 15.3969 19.0236 15.3969 19.1666C15.3969 19.3096 15.3685 19.4512 15.3135 19.5833C15.2585 19.7153 15.1779 19.8351 15.0764 19.9358C14.9752 20.0362 14.8551 20.1156 14.7231 20.1695C14.5916 20.2233 14.4508 20.2506 14.3087 20.25M14.3087 20.25C14.3082 20.25 14.3077 20.25 14.3072 20.25L14.3087 20L14.3101 20.25C14.3097 20.25 14.3092 20.25 14.3087 20.25Z" fill="#FCFCFC" stroke="black" stroke-width="0.5"/>
</g>
<defs>
<clipPath id="clip0_2313_1765">
<rect width="20" height="20" fill="white"/>
</clipPath>
</defs>
</svg>
