<svg width="8" height="748" viewBox="0 0 8 748" fill="none" xmlns="http://www.w3.org/2000/svg">
<rect width="8" height="8" rx="4" fill="#056AFF"/>
<rect x="3" y="8" width="2" height="78" fill="#056AFF"/>
<rect y="86" width="8" height="8" rx="4" fill="#CAC9CF"/>
<rect x="3" y="94" width="2" height="73" fill="#CAC9CF"/>
<rect y="167" width="8" height="8" rx="4" fill="#CAC9CF"/>
<rect x="3" y="175" width="2" height="74" fill="#CAC9CF"/>
<rect y="249" width="8" height="8" rx="4" fill="#CAC9CF"/>
<rect x="3" y="257" width="2" height="72" fill="#CAC9CF"/>
<rect y="329" width="8" height="8" rx="4" fill="#CAC9CF"/>
<rect x="3" y="337" width="2" height="73" fill="#CAC9CF"/>
<rect y="410" width="8" height="8" rx="4" fill="#CAC9CF"/>
<rect x="3" y="418" width="2" height="74" fill="#CAC9CF"/>
<rect y="492" width="8" height="8" rx="4" fill="#CAC9CF"/>
<rect x="3" y="500" width="2" height="56" fill="#CAC9CF"/>
<rect y="556" width="8" height="8" rx="4" fill="#CAC9CF"/>
<rect x="3" y="564" width="2" height="56" fill="#CAC9CF"/>
<rect y="620" width="8" height="8" rx="4" fill="#CAC9CF"/>
<rect x="3" y="628" width="2" height="56" fill="#CAC9CF"/>
<rect y="684" width="8" height="8" rx="4" fill="#CAC9CF"/>
<rect x="3" y="692" width="2" height="56" fill="#CAC9CF"/>
</svg>
