<svg width="36" height="36" viewBox="0 0 36 36" fill="none" xmlns="http://www.w3.org/2000/svg">
<path d="M2.38018 24.7098C3.27113 26.7838 4.56623 28.6597 6.1899 30.2279C9.39614 33.3246 13.6904 35.0381 18.1477 34.9994C22.6051 34.9606 26.8689 33.1728 30.0208 30.0208C33.1728 26.8689 34.9606 22.6051 34.9994 18.1477C35.0381 13.6904 33.3246 9.39614 30.2279 6.1899C28.6597 4.56623 26.7838 3.27113 24.7098 2.38018C22.6357 1.48922 20.405 1.02026 18.1477 1.00064C15.8905 0.981027 13.6519 1.41116 11.5627 2.26593C9.47344 3.12071 7.57536 4.38301 5.97918 5.97918C4.38301 7.57536 3.12071 9.47344 2.26593 11.5627C1.41116 13.6519 0.981027 15.8905 1.00064 18.1477C1.02026 20.405 1.48922 22.6357 2.38018 24.7098ZM15.5966 23.5966H14.3966V12.7966H15.5966V23.5966ZM21.9966 23.5966H20.7966V12.7966H21.9966V23.5966Z" fill="#121212" fill-opacity="0.75" stroke="#056AFF" stroke-width="2"/>
</svg>
