<svg width="205" height="268" viewBox="0 0 205 268" fill="none" xmlns="http://www.w3.org/2000/svg">
<path d="M204.722 63.8871L186.844 5.48127C186.546 4.50812 186.06 3.60313 185.413 2.81801C184.765 2.03289 183.97 1.38303 183.071 0.905561C182.173 0.428095 181.189 0.132376 180.176 0.0353143C179.163 -0.0617471 178.141 0.041751 177.169 0.339884L134.9 13.28L47.7468 39.9669L5.47813 52.9115C3.51455 53.5146 1.87042 54.8722 0.906616 56.6864C-0.057183 58.5006 -0.261908 60.6231 0.337389 62.5881L61.4413 262.195C61.9282 263.781 62.9105 265.17 64.2442 266.157C65.5778 267.144 67.1926 267.677 68.8516 267.679C69.6194 267.679 70.3829 267.564 71.1164 267.337L100.092 258.467L101.003 258.184V257.232L100.092 257.51L70.8476 266.466C69.1144 266.995 67.2424 266.814 65.6422 265.964C64.042 265.113 62.8443 263.663 62.3118 261.931L1.21257 62.3192C0.948747 61.4609 0.856797 60.5589 0.941984 59.665C1.02717 58.7711 1.28781 57.9028 1.70901 57.1098C2.1302 56.3168 2.70367 55.6147 3.39655 55.0437C4.08944 54.4727 4.88814 54.0439 5.74692 53.7821L48.0156 40.8375L135.169 14.1551L177.438 1.21046C178.089 1.01165 178.766 0.910272 179.447 0.909637C180.909 0.912919 182.331 1.38419 183.505 2.25443C184.68 3.12467 185.545 4.34814 185.973 5.74564L203.77 63.8871L204.052 64.7987H205L204.722 63.8871Z" fill="#3F3D56"/>
</svg>
