<svg width="18" height="18" viewBox="0 0 18 18" fill="none" xmlns="http://www.w3.org/2000/svg">
<path fill-rule="evenodd" clip-rule="evenodd" d="M16.2803 15.2197L13.5187 12.4583C14.4435 11.3033 15 9.8415 15 8.25C15 4.5285 11.9715 1.5 8.25 1.5C4.5285 1.5 1.5 4.5285 1.5 8.25C1.5 11.9715 4.5285 15 8.25 15C9.8415 15 11.3033 14.4435 12.4583 13.5187L15.2197 16.2803L16.2803 15.2197ZM3 8.25C3 5.355 5.355 3 8.25 3C11.145 3 13.5 5.355 13.5 8.25C13.5 11.145 11.145 13.5 8.25 13.5C5.355 13.5 3 11.145 3 8.25Z" fill="#030303"/>
</svg>
