<svg width="34" height="23" viewBox="0 0 34 23" fill="none" xmlns="http://www.w3.org/2000/svg">
<g clip-path="url(#clip0_348_2649)">
<path d="M5.47819 1.54748e-05L6.81401 1.40817L1.3374 7.17843L0 5.76944L5.47819 1.54748e-05Z" fill="#056AFF"/>
<path d="M8.88365 22.9268L7.45497 21.4252C8.33361 20.5026 9.22733 19.5633 10.1218 18.6223C5.48657 14.1667 5.9239 6.73555 10.1782 2.71547C12.1875 0.837044 14.8203 -0.133313 17.5058 0.0147656C20.1912 0.162844 22.713 1.41742 24.5242 3.50652C26.3355 5.59562 27.2904 8.35087 27.1818 11.175C27.0733 13.999 25.91 16.6643 23.9443 18.5931L26.6183 21.3668L25.1325 22.921C24.2666 22.0033 23.3625 21.054 22.4696 20.093C22.3252 19.9378 22.2315 19.9261 22.0458 20.0296C18.682 21.9444 15.3199 21.9383 11.9593 20.0112C11.9164 19.9862 11.8728 19.9612 11.8283 19.9387C11.7982 19.9291 11.7674 19.9219 11.7362 19.917L8.88365 22.9268ZM16.0183 4.24709C16.0128 4.33051 16.0056 4.39475 16.0056 4.45564C16.0056 6.61375 16.0056 8.77103 16.0128 10.9283C16.0258 11.0774 16.0885 11.2168 16.1898 11.3221C17.5184 12.7374 18.8521 14.1481 20.1909 15.554C20.2512 15.6174 20.3171 15.6758 20.3496 15.7067L21.7894 14.1893C21.7537 14.15 21.7013 14.0891 21.6449 14.0299C20.5337 12.862 19.4225 11.6849 18.2979 10.5262C18.2084 10.4404 18.1384 10.3347 18.0928 10.2167C18.0472 10.0988 18.0272 9.97172 18.0344 9.84467C18.0455 8.09282 18.0399 6.34097 18.0399 4.58912V4.24709H16.0183Z" fill="#030303"/>
<path d="M34.0001 5.73689L32.6373 7.16924L27.1901 1.43151L28.5545 0L34.0001 5.73689Z" fill="#056AFF"/>
</g>
<defs>
<clipPath id="clip0_348_2649">
<rect width="33.5257" height="22.6068" fill="white" transform="scale(1.01416)"/>
</clipPath>
</defs>
</svg>
