<svg width="76" height="76" viewBox="0 0 76 76" fill="none" xmlns="http://www.w3.org/2000/svg">
<path d="M62.9275 30.621L64.2686 31.9653L65.6894 30.7055L71.4741 25.5765L73.0692 24.1621L71.5666 22.6499L53.3224 4.2893L51.8967 2.85446L50.468 4.2864L44.9799 9.78716L43.5607 11.2096L44.9799 12.6321L62.9275 30.621ZM22.2117 71.5794L23.6375 73.0084L25.0632 71.5794L30.403 66.2273L31.8222 64.8048L30.403 63.3823L12.4555 45.3934L11.0297 43.9643L9.60396 45.3934L4.26419 50.7455L2.84499 52.1679L4.26419 53.5904L22.2117 71.5794ZM35.042 67.4166L36.4553 68.8332L37.881 67.4291L46.4098 59.0293L47.854 57.6069L46.4223 56.1719L41.0185 50.7556L50.4847 41.2676L55.8078 46.603L57.2211 48.0195L58.6467 46.6154L67.1755 38.2156L68.6198 36.7932L67.1881 35.3582L40.4151 8.52347L38.9768 7.08184L37.5512 8.53603L29.1707 17.0845L27.7763 18.5068L29.1831 19.9169L34.5128 25.2589L25.0466 34.7469L19.6493 29.3371L18.211 27.8955L16.7854 29.3497L8.40492 37.8982L7.01054 39.3205L8.41734 40.7305L35.042 67.4166Z" fill="#FCFCFC" stroke="#056AFF" stroke-width="4"/>
</svg>
