<svg width="15" height="19" viewBox="0 0 15 19" fill="none" xmlns="http://www.w3.org/2000/svg">
<path d="M6.54934 11.5651C5.23948 10.2434 6.00357 6.88395 6.54934 5.36946C7.64086 6.19555 10.3151 8.26077 12.2799 9.91294C14.7359 11.9782 10.6426 16.5216 8.59589 17.3477C6.95856 18.0086 3.54746 15.6956 2.04657 14.4564C3.5475 14.0434 6.54934 12.8869 6.54934 11.5651Z" fill="#056AFF"/>
<path d="M14.2603 10.0575C12.814 6.2769 7.66447 6.07304 8.90811 0.578247C9.00023 0.170539 8.56726 -0.144508 8.2172 0.0686124C4.87321 2.05156 2.46884 6.02671 4.4863 11.2343C4.65211 11.6605 4.15466 12.0589 3.79539 11.781C2.128 10.5115 1.95297 8.68608 2.10036 7.37956C2.15563 6.89772 1.52921 6.66607 1.26206 7.06451C0.635635 8.02819 0 9.58489 0 11.9292C0.35006 17.1182 4.70739 18.712 6.27345 18.9158C8.51199 19.2031 10.9348 18.7861 12.6759 17.1831C14.592 15.3947 15.2921 12.5408 14.2603 10.0575ZM5.71151 14.7183C7.03805 14.394 7.71975 13.4303 7.90399 12.5778C8.20799 11.2528 7.01963 9.95553 7.82108 7.8614C8.12508 9.59416 10.8334 10.6783 10.8334 12.5686C10.9071 14.9129 8.38302 16.9236 5.71151 14.7183Z" fill="#030303"/>
</svg>
