<svg width="15" height="12" viewBox="0 0 15 12" fill="none" xmlns="http://www.w3.org/2000/svg">
<path d="M10.3598 12H3.92586C1.75767 12 0 10.2255 0 8.03654V1.52031C0 0.680648 0.674191 0 1.50589 0H12.7799C13.6115 0 14.2857 0.680648 14.2857 1.52031V8.03656C14.2857 10.2255 12.528 12 10.3598 12Z" fill="#E0E0E0"/>
<path d="M12.6678 0H11.7421C12.6355 0 13.3597 0.680254 13.3597 1.51941V8.03885C13.3597 10.2265 11.4716 12 9.14258 12H10.0683C12.3974 12 14.2854 10.2265 14.2854 8.03885V1.51941C14.2854 0.680254 13.5612 0 12.6678 0V0Z" fill="#BDBDBD"/>
<path d="M1.14258 8.32766V1.79462C1.14258 1.43463 1.43118 1.14282 1.78717 1.14282H13.0694C13.4254 1.14282 13.714 1.43465 13.714 1.79462V8.32766C13.714 10.0402 12.3411 11.4285 10.6474 11.4285H4.20917C2.51553 11.4285 1.14258 10.0402 1.14258 8.32766Z" fill="#FFD54F"/>
<path d="M13.0576 1.14282H12.1795C12.542 1.14282 12.8358 1.43448 12.8358 1.79425V8.32947C12.8358 10.041 11.4381 11.4285 9.71387 11.4285H10.5919C12.3161 11.4285 13.7139 10.041 13.7139 8.32947V1.79425C13.7139 1.43448 13.4201 1.14282 13.0576 1.14282V1.14282Z" fill="#FFC328"/>
<path d="M9.22157 4.00007H5.06468C4.95021 4.00007 4.85742 3.88721 4.85742 3.748V2.76467C4.85742 2.18461 5.24405 1.71436 5.72101 1.71436H8.56527C9.0422 1.71436 9.42885 2.18458 9.42885 2.76467V3.748C9.42883 3.88721 9.33603 4.00007 9.22157 4.00007Z" fill="#BBF7FF"/>
<path d="M7.71443 9.14282C7.55664 9.14282 7.42871 8.94236 7.42871 8.69505V5.59059C7.42871 5.34331 7.55662 5.14282 7.71443 5.14282C7.87221 5.14282 8.00014 5.34328 8.00014 5.59059V8.69508C8.00014 8.94236 7.87221 9.14282 7.71443 9.14282Z" fill="#546E7A"/>
<path d="M7.37017 3.09151L6.62214 2.34347C6.54504 2.26637 6.42004 2.26637 6.34298 2.34347C6.26588 2.42056 6.26588 2.54556 6.34298 2.62263L7.09101 3.37067C7.12955 3.40921 7.18008 3.4285 7.23059 3.4285C7.2811 3.4285 7.33164 3.40923 7.37017 3.37067C7.44729 3.29361 7.44729 3.16861 7.37017 3.09151Z" fill="#F74F68"/>
<path d="M7.42758 3.42831H6.85645V3.16178C6.85645 2.99356 6.9843 2.85718 7.14201 2.85718C7.29972 2.85718 7.42758 2.99356 7.42758 3.16178V3.42831Z" fill="#546E7A"/>
<path fill-rule="evenodd" clip-rule="evenodd" d="M5.66255 1.71436H8.62291C9.22463 1.71436 9.71415 2.19235 9.71415 2.77988V3.60154C9.71415 3.82129 9.53107 4.00007 9.30602 4.00007H4.97944C4.75439 4.00007 4.57129 3.82129 4.57129 3.60154V2.77988C4.57129 2.19235 5.06083 1.71436 5.66255 1.71436ZM9.30618 3.62432C9.31901 3.62432 9.32943 3.61412 9.32943 3.60159V2.77994C9.32943 2.39962 9.01257 2.09021 8.62307 2.09021H5.66274C5.27324 2.09021 4.95636 2.39962 4.95636 2.77994V3.60159C4.95636 3.61412 4.9668 3.62432 4.97963 3.62432H9.30618Z" fill="#546E7A"/>
</svg>
