<svg width="24" height="24" viewBox="0 0 24 24" fill="none" xmlns="http://www.w3.org/2000/svg">
<path d="M12.0001 10C14.2101 10 16.0001 8.21 16.0001 6C16.0001 3.79 14.2101 2 12.0001 2C9.79006 2 8.00006 3.79 8.00006 6C8.00006 8.21 9.79006 10 12.0001 10ZM12.0001 4C13.1001 4 14.0001 4.9 14.0001 6C14.0001 7.1 13.1001 8 12.0001 8C10.9001 8 10.0001 7.1 10.0001 6C10.0001 4.9 10.9001 4 12.0001 4ZM18.3901 12.56C16.7101 11.7 14.5301 11 12.0001 11C9.47007 11 7.29007 11.7 5.61007 12.56C5.12212 12.8113 4.71337 13.1929 4.42916 13.6625C4.14496 14.132 3.99643 14.6712 4.00006 15.22V22H6.00007V15.22C6.00007 14.84 6.20007 14.5 6.50007 14.34C7.71007 13.73 9.63006 13 12.0001 13C12.7601 13 13.4701 13.07 14.1301 13.2L12.5801 16.5H9.75006C8.23006 16.5 7.00007 17.73 7.00007 19.25C7.00007 20.77 8.23006 22 9.75006 22H18.0001C19.1001 22 20.0001 21.1 20.0001 20V15.22C20.0001 14.1 19.3901 13.07 18.3901 12.56ZM10.9401 20H9.75006C9.34007 20 9.00006 19.66 9.00006 19.25C9.00006 18.84 9.34007 18.5 9.75006 18.5H11.6401L10.9401 20ZM18.0001 20H13.1501L16.0901 13.73C16.6301 13.93 17.1001 14.14 17.5001 14.34C17.8001 14.5 18.0001 14.84 18.0001 15.22V20Z" fill="#FCFCFC"/>
</svg>
