<svg width="26" height="26" viewBox="0 0 26 26" fill="none" xmlns="http://www.w3.org/2000/svg">
<path d="M6.33333 3.52631H3.66667C2.95942 3.52631 2.28115 3.79247 1.78105 4.26625C1.28095 4.74002 1 5.3826 1 6.05262V21.2105C1 21.8805 1.28095 22.5231 1.78105 22.9969C2.28115 23.4707 2.95942 23.7368 3.66667 23.7368H11.2627M19.6667 14.8947V19.9474H25M19.6667 11.1053V6.05262C19.6667 5.3826 19.3857 4.74002 18.8856 4.26625C18.3855 3.79247 17.7072 3.52631 17 3.52631H14.3333" stroke="#056AFF" stroke-width="2" stroke-linecap="round" stroke-linejoin="round"/>
<path d="M6.33301 11.1053H11.6663M6.33301 16.1579H10.333M6.33301 3.52632C6.33301 2.8563 6.61396 2.21372 7.11406 1.73994C7.61415 1.26616 8.29243 1 8.99967 1H11.6663C12.3736 1 13.0519 1.26616 13.552 1.73994C14.0521 2.21372 14.333 2.8563 14.333 3.52632C14.333 4.19634 14.0521 4.83891 13.552 5.31269C13.0519 5.78647 12.3736 6.05263 11.6663 6.05263H8.99967C8.29243 6.05263 7.61415 5.78647 7.11406 5.31269C6.61396 4.83891 6.33301 4.19634 6.33301 3.52632ZM14.333 19.9474C14.333 21.2874 14.8949 22.5726 15.8951 23.5201C16.8953 24.4677 18.2519 25 19.6663 25C21.0808 25 22.4374 24.4677 23.4376 23.5201C24.4378 22.5726 24.9997 21.2874 24.9997 19.9474C24.9997 18.6073 24.4378 17.3222 23.4376 16.3746C22.4374 15.4271 21.0808 14.8947 19.6663 14.8947C18.2519 14.8947 16.8953 15.4271 15.8951 16.3746C14.8949 17.3222 14.333 18.6073 14.333 19.9474Z" stroke="#056AFF" stroke-width="2" stroke-linecap="round" stroke-linejoin="round"/>
</svg>
