<svg width="354" height="150" viewBox="0 0 354 150" fill="none" xmlns="http://www.w3.org/2000/svg">
<rect width="354" height="150" rx="22" fill="url(#paint0_linear_221_1732)"/>
<mask id="mask0_221_1732" style="mask-type:alpha" maskUnits="userSpaceOnUse" x="0" y="0" width="354" height="150">
<rect width="354" height="150" rx="22" fill="white"/>
</mask>
<g mask="url(#mask0_221_1732)">
<ellipse opacity="0.3" cx="105.368" cy="69.3197" rx="79.4758" ry="56.0004" fill="#FCFCFC"/>
<path d="M103.057 146.195C99.6853 146.2 96.3231 145.947 93.028 145.442C87.2685 144.604 81.8432 142.871 77.1429 140.369C72.4425 137.867 68.5842 134.657 65.8458 130.972C63.6728 127.524 62.0586 123.914 61.034 120.209L60.7976 119.503C57.421 109.314 53.1664 98.5389 45.3156 88.8043C44.0494 87.2376 42.6649 85.671 41.3311 84.1642C38.1043 80.7523 35.3722 77.1182 33.1765 73.3174C29.7998 66.7997 30.4245 60.318 35.0337 56.0486C35.6408 55.3853 36.4308 54.8157 37.3563 54.3738C38.2817 53.932 39.3236 53.6271 40.4194 53.4774C41.0872 53.4202 41.7644 53.4608 42.4091 53.5966C43.0539 53.7323 43.6523 53.9604 44.1675 54.2667C44.5694 54.4937 44.899 54.7784 45.1347 55.1019C45.3704 55.4255 45.5068 55.7807 45.5351 56.1443H44.4377C44.4113 55.8907 44.3105 55.6439 44.1419 55.4194C43.9733 55.195 43.7406 54.9979 43.4584 54.8407C43.0576 54.6049 42.5941 54.4284 42.0953 54.3216C41.5966 54.2148 41.0727 54.1799 40.5545 54.2189C38.6524 54.526 36.99 55.3395 35.9116 56.4911C31.5388 60.5691 30.8466 66.7519 34.2233 73.0184C36.4004 76.7921 39.1158 80.3985 42.3273 83.7815C43.661 85.3003 45.0455 86.8669 46.3286 88.4455C54.1963 98.2519 58.5015 109.087 61.8782 119.336L62.1145 120.041C63.1176 123.685 64.7037 127.236 66.8419 130.625C69.503 134.206 73.2536 137.325 77.8229 139.755C82.3923 142.185 87.6663 143.866 93.2643 144.677C104.584 146.266 116.329 145.138 126.643 141.472C130.772 140.168 134.501 138.303 137.617 135.982C140.787 133.265 143.23 130.161 144.826 126.822C147.646 121.584 149.891 116.059 151.917 110.737C155.04 102.796 158.265 94.5805 163.735 87.142C165.424 84.9654 167.112 82.8248 168.902 80.7559C172.253 77.0427 175.08 73.1053 177.343 69.0002C179.285 65.1016 179.369 61.8248 177.614 59.433C176.997 58.6354 176.141 57.9434 175.105 57.4061C174.069 56.8688 172.88 56.4993 171.62 56.3237C170.741 56.1764 169.825 56.1764 168.946 56.3238C168.066 56.4712 167.248 56.7619 166.555 57.1727L165.829 56.5868C166.643 56.0931 167.609 55.7409 168.65 55.5582C169.69 55.3755 170.777 55.3673 171.823 55.5344C173.252 55.7433 174.598 56.1732 175.765 56.7934C176.933 57.4136 177.893 58.2088 178.576 59.1221C180.484 61.753 180.399 65.1733 178.356 69.2872C176.07 73.4441 173.196 77.4267 169.78 81.1744C168.091 83.2433 166.234 85.372 164.715 87.5247C159.312 94.8914 156.104 103.071 152.998 110.964C150.887 116.322 148.709 121.859 145.856 127.121C144.224 130.552 141.717 133.742 138.461 136.533C135.243 138.927 131.394 140.853 127.132 142.201C119.628 144.789 111.402 146.153 103.057 146.195Z" fill="#AB8DA8"/>
<path d="M115.448 6.94503C116.321 5.96354 116.821 4.83892 116.9 3.68023C116.996 3.15984 116.928 2.63099 116.704 2.13095C116.479 1.63091 116.103 1.17185 115.6 0.786152C115.178 0.499136 114.655 0.271914 114.266 -0.0390196C113.878 -0.349953 113.692 -0.672846 113.372 -0.971821C113.024 -1.29257 112.576 -1.55221 112.064 -1.73058C111.552 -1.90895 110.988 -2.00125 110.417 -2.00029C109.252 -2.00029 108.02 -1.61761 107.04 -2.00029C106.433 -2.21556 106.027 -2.64608 105.352 -2.88526C104.716 -3.1144 103.987 -3.1779 103.292 -3.06464C102.685 -2.91465 102.044 -2.84571 101.401 -2.86134C100.49 -2.95701 99.865 -3.53104 99.0546 -3.85394C98.638 -4.0048 98.1798 -4.0893 97.7123 -4.10149C97.2447 -4.11368 96.7791 -4.05328 96.348 -3.92452C95.9169 -3.79577 95.5307 -3.60177 95.2166 -3.35613C94.9026 -3.11049 94.6681 -2.81917 94.5298 -2.50257C94.4197 -2.20058 94.4197 -1.88372 94.5298 -1.58173C94.7155 -0.852231 95.4246 -0.26624 95.4753 0.463258C95.5259 1.19276 94.9013 1.82658 95.4753 2.47237C96.0493 3.11816 96.8935 3.14207 97.2987 3.75198C97.839 4.57715 97.2987 5.65346 97.7883 6.53843C98.0416 7.1005 98.1766 7.90175 98.9195 8.26052C99.9494 8.7628 102.195 8.34424 103.427 8.26052L108.205 7.98547C110.316 7.84196 112.916 7.98547 114.824 7.24401C115.054 7.1698 115.265 7.06874 115.448 6.94503Z" fill="#3B2645"/>
<path d="M99.2414 6.41887C99.0738 6.2558 98.8541 6.12311 98.6003 6.03163C98.3465 5.94014 98.0658 5.89246 97.781 5.89246C97.4962 5.89246 97.2155 5.94014 96.9617 6.03163C96.7079 6.12311 96.4882 6.2558 96.3206 6.41887C94.8518 7.61477 97.3336 10.0066 99.2414 10.1501C99.3525 8.90758 99.3525 7.66136 99.2414 6.41887Z" fill="#FFEDE5"/>
<path d="M122.962 26.45C122.517 28.4644 121.92 30.4604 121.172 32.4295C121.054 32.8002 120.953 33.159 120.885 33.5058C120.818 33.8526 120.75 34.1157 120.666 34.5582C120.666 34.6419 120.666 34.7376 120.666 34.8213C120.666 35.1083 120.548 35.4073 120.497 35.7301L118.37 49.782C105.15 52.3531 91.3565 49.782 91.3565 49.782C91.3565 49.782 91.3565 49.6026 91.3565 49.2558C91.137 47.6652 90.4617 42.6066 89.7864 36.9021C89.7864 36.9021 89.7864 36.8184 89.7864 36.7825C89.7932 36.6949 89.7932 36.6071 89.7864 36.5194C89.4993 34.1276 89.2292 31.5923 89.0097 29.1766C88.6045 24.979 88.3513 21.1043 88.4019 18.7005C88.4019 17.8156 91.3227 17.9113 93.315 17.7199C94.7838 17.5764 96.2865 17.4807 97.5865 17.4329C98.8865 17.3851 99.8657 17.3611 100.524 17.3611H101.267C101.267 17.3611 101.436 15.9859 101.436 15.9739L101.892 12.6015C102.113 12.6419 102.339 12.6699 102.567 12.6852C102.985 12.7406 103.408 12.7726 103.833 12.7808C104.39 12.7808 104.914 12.7808 105.403 12.7808L106.129 12.7211H106.552C107.024 12.6613 107.48 12.5895 107.902 12.5058C108.324 12.4221 108.459 12.3862 108.729 12.3264C109.963 12.0464 111.134 11.6438 112.207 11.1305L112.359 11.0588L112.646 10.9033L112.849 10.7957C112.849 10.9631 112.849 11.0348 112.849 11.1066C112.714 11.8959 112.562 12.9004 112.494 13.893C112.494 14.5867 112.393 15.2683 112.359 15.8543C112.326 16.4403 112.055 17.2894 112.646 17.5884C112.857 17.6723 113.085 17.7328 113.322 17.7677C114.248 17.8714 115.186 17.9154 116.124 17.8993C116.411 17.8993 116.698 17.8993 116.985 17.8993C117.705 17.8696 118.427 17.8696 119.146 17.8993C119.649 17.8983 120.148 17.9686 120.612 18.1062C121.076 18.2439 121.496 18.4459 121.848 18.7005C122.285 19.1492 122.563 19.6662 122.658 20.2074L122.861 21.188C123.182 22.9333 123.216 24.6991 122.962 26.45Z" fill="#FFEDE5"/>
<path d="M112.781 10.7119C112.553 11.5678 112.059 12.3771 111.337 13.0819C110.614 13.7866 109.68 14.3691 108.602 14.7876C107.523 15.2062 106.327 15.4502 105.1 15.5023C103.873 15.5544 102.644 15.4132 101.503 15.0889L101.824 12.6134C103.736 12.8746 105.705 12.84 107.596 12.5118C109.487 12.1836 111.256 11.5696 112.781 10.7119Z" fill="#E0855C" fill-opacity="0.1"/>
<path d="M99.579 2.83122C98.5998 3.54876 98.5154 5.15127 98.4478 6.9212C98.1946 12.3027 100.474 13.977 104.34 14.276C108.206 14.5749 112.275 13.5106 113.103 8.53566C113.525 6.03623 113.964 3.75206 112.68 2.6638C110.84 1.06129 102.55 0.63077 99.579 2.83122Z" fill="#FFEDE5"/>
<path d="M112.529 7.80614C112.529 7.80614 113.71 5.58177 115.585 6.76571C117.459 7.94965 114.875 11.3101 112.005 11.059C112.039 11.059 111.651 8.57151 112.529 7.80614Z" fill="#FFEDE5"/>
<path d="M114.758 7.78215C114.314 7.88022 113.917 8.06217 113.61 8.30835C113.261 8.51465 112.979 8.77158 112.782 9.06176C112.782 9.14548 112.9 9.20527 112.985 9.14548C113.223 8.97858 113.448 8.80294 113.66 8.61928C113.814 8.73957 114.005 8.8336 114.217 8.89434C114.386 8.89434 114.521 8.78671 114.454 8.69104C114.337 8.56439 114.181 8.4581 113.998 8.3801C114.313 8.23715 114.612 8.07722 114.893 7.90174C114.898 7.88735 114.898 7.8723 114.894 7.85776C114.89 7.84323 114.88 7.82962 114.867 7.81801C114.854 7.80641 114.838 7.79712 114.818 7.7909C114.799 7.78467 114.779 7.78168 114.758 7.78215Z" fill="#E0855C" fill-opacity="0.1"/>
<path d="M101.774 6.8015C101.774 6.8015 101.115 6.96893 101.217 6.14376C101.318 5.31859 101.774 5.50993 101.774 5.50993C101.774 5.50993 102.23 5.50993 102.162 6.15572C102.095 6.80151 101.774 6.8015 101.774 6.8015Z" fill="#3B2645"/>
<path d="M108.409 6.8015C108.409 6.8015 107.767 6.96893 107.868 6.14376C107.97 5.31859 108.409 5.50993 108.409 5.50993C108.409 5.50993 108.864 5.50993 108.797 6.15572C108.729 6.80151 108.409 6.8015 108.409 6.8015Z" fill="#3B2645"/>
<path d="M102.483 4.30208C102.218 4.19569 101.912 4.15114 101.609 4.17475C101.306 4.19836 101.021 4.28893 100.795 4.43363C100.784 4.44999 100.778 4.46813 100.779 4.48637C100.781 4.50461 100.788 4.52233 100.802 4.53788C100.815 4.55343 100.834 4.56629 100.857 4.57525C100.879 4.58421 100.904 4.58897 100.93 4.5891C101.167 4.5891 101.369 4.49343 101.606 4.48147C101.853 4.47311 102.1 4.50163 102.332 4.56518C102.551 4.61302 102.703 4.37384 102.483 4.30208Z" fill="#3B2645"/>
<path d="M109.405 4.70874C109.135 4.23038 107.97 4.19451 107.464 4.48152C107.439 4.49493 107.419 4.51214 107.406 4.53184C107.392 4.55153 107.385 4.57319 107.385 4.59513C107.385 4.61708 107.392 4.63873 107.406 4.65843C107.419 4.67812 107.439 4.69534 107.464 4.70874C107.767 4.72666 108.072 4.72666 108.375 4.70874C108.621 4.73675 108.859 4.78909 109.084 4.86421C109.113 4.89434 109.158 4.91505 109.209 4.92178C109.26 4.9285 109.312 4.9207 109.355 4.90009C109.397 4.87947 109.426 4.84773 109.436 4.81185C109.445 4.77596 109.434 4.73887 109.405 4.70874Z" fill="#3B2645"/>
<path d="M103.106 10.6522C104.531 10.7844 105.978 10.6094 107.26 10.1499C107.068 10.469 106.784 10.7562 106.427 10.9931C106.069 11.2299 105.645 11.4112 105.183 11.5252C103.714 11.8122 103.106 10.6522 103.106 10.6522Z" fill="#FCFCFC"/>
<path d="M94.5811 18.6887C98.4643 20.6141 98.8188 24.3573 96.9279 27.347C95.6448 29.3442 93.2642 30.7434 91.8629 32.6329C90.4027 34.4655 88.7072 36.1989 86.7979 37.8111C82.6108 41.5782 78.6264 44.9865 77.09 46.2781C71.8055 50.7507 60.6962 56.6585 56.6949 58.7154C55.7832 59.1938 55.2429 59.4569 55.2429 59.4569C55.2429 59.4569 51.4104 58.0338 52.4234 55.4028C52.4234 55.4028 67.6184 43.97 69.8639 41.638C72.3454 38.6069 74.5996 35.4852 76.6172 32.2861C79.206 28.7382 81.9017 25.2382 84.7044 21.7861C85.9875 20.1955 87.6252 18.1984 90.4447 17.8396C91.5825 17.749 92.7313 17.921 93.7201 18.3299C94.0188 18.4348 94.3066 18.5547 94.5811 18.6887Z" fill="#FFEDE5"/>
<path d="M52.4241 55.4149C52.84 55.3923 53.2576 55.3923 53.6735 55.4149C53.6735 55.4149 57.3203 56.85 56.6956 58.7156C56.6956 58.7156 56.3073 58.9667 55.6995 59.3494C55.0917 59.7321 54.4332 60.1866 53.6397 60.7606C52.8462 61.3346 51.0397 63.1524 50.2631 62.9969C50.082 62.9496 49.9239 62.8666 49.8072 62.7578L48.237 61.5619C47.3591 60.8682 45.8903 59.6962 47.0046 58.7754C46.1942 59.1222 44.3032 59.9713 43.3746 59.5647L42.9863 59.1222C42.9863 59.1222 45.7721 57.6513 46.9201 56.9218C48.4689 56.002 50.4046 55.472 52.4241 55.4149Z" fill="#FFEDE5"/>
<path d="M99.1909 37.01C99.1851 37.0737 99.1851 37.1376 99.1909 37.2013C99.1909 37.2013 99.3428 37.2013 99.3091 37.2013L99.1909 37.01Z" fill="#D6BED3"/>
<path d="M159.801 150.68C158.012 150.812 156.205 150.919 154.365 150.979L50.448 151.039H50.1272H49.5869L47.7635 150.919C47.3471 150.919 46.9477 150.802 46.6532 150.593C46.3588 150.385 46.1934 150.102 46.1934 149.807C46.1934 149.512 46.3588 149.229 46.6532 149.021C46.9477 148.812 47.3471 148.695 47.7635 148.695L49.6038 148.575H50.1272H50.4648L154.365 148.635C156.188 148.635 157.995 148.79 159.801 148.934C160.06 148.995 160.284 149.113 160.443 149.269C160.602 149.426 160.688 149.614 160.688 149.807C160.688 150 160.602 150.188 160.443 150.345C160.284 150.501 160.06 150.619 159.801 150.68Z" fill="#C6C6C6"/>
<path d="M105.454 75.769C103.9 84.5827 102.077 92.2484 102.077 92.2484C102.33 94.3771 102.449 96.6852 102.449 99.0531C102.449 103.693 102.01 108.62 101.452 112.961C100.743 118.498 99.7641 123.21 99.342 125.578V125.877C99.9667 141.579 93.6523 143.66 90.6977 140.228C87.7431 136.796 90.6977 126.678 90.6977 126.678C90.7072 126.587 90.7072 126.495 90.6977 126.403C89.4547 121.705 88.6258 116.956 88.2158 112.184C87.2028 100.632 88.9418 92.7268 88.7392 91.2917C85.2106 66.1779 90.1405 52.3294 90.1405 52.3294C90.9102 50.3171 92.2998 48.4506 94.2094 46.8641C97.8056 44.1135 102.128 44.8072 104.846 48.1676C105.132 48.5122 105.391 48.8675 105.623 49.232C106.73 51.1622 107.358 53.2134 107.48 55.2952C107.75 60.4973 106.72 68.5218 105.454 75.769Z" fill="#F5A784"/>
<path d="M122.895 111.574C122.502 116.445 121.679 121.294 120.43 126.092L120.278 126.678C120.278 126.678 123.232 136.831 120.278 140.228C117.323 143.624 111.076 141.639 111.633 126.092C111.633 126.021 111.633 125.949 111.633 125.889C111.161 123.641 110.215 118.773 109.472 113.009C108.898 108.632 108.459 103.729 108.459 99.0889C108.459 96.6971 108.594 94.401 108.848 92.2603C108.848 92.2603 106.974 84.5946 105.471 75.7928C104.205 68.5337 103.158 60.5092 103.597 55.3549C103.723 53.2724 104.357 51.2211 105.471 49.2917C105.692 48.916 105.952 48.5523 106.248 48.2034C109.371 44.3646 114.571 44.0297 118.404 48.3589C119.501 49.6138 120.364 50.9645 120.97 52.3771C120.97 52.3771 125.9 66.1897 122.371 91.3395C122.118 92.7506 123.789 100.38 122.895 111.574Z" fill="#F5A784"/>
<path d="M52.0182 63.1761C52.3546 63.4519 52.7724 63.672 53.2421 63.8208C53.7118 63.9696 54.222 64.0434 54.7364 64.0371C54.9721 63.9983 55.1942 63.926 55.3893 63.8246C55.5844 63.7233 55.7485 63.5949 55.8716 63.4474C55.9946 63.2998 56.0742 63.1361 56.1055 62.9661C56.1367 62.7962 56.119 62.6235 56.0533 62.4586C55.857 62.0948 55.5382 61.7705 55.1247 61.5138C52.5754 59.72 49.9584 57.9261 47.3077 56.2638C46.8648 55.9101 46.2728 55.6669 45.6194 55.5702C45.0118 55.57 44.4237 55.7225 43.96 56.0007C43.4962 56.2788 43.1869 56.6644 43.0869 57.089C43.0869 57.8544 44.0155 58.1414 44.7752 58.5719C47.1727 60.0787 49.5701 61.6573 52.0182 63.1761Z" fill="#3B2645"/>
<path d="M51.647 61.0596C51.7521 60.9828 51.8377 60.8938 51.9002 60.7965C51.943 60.6729 51.9455 60.5441 51.9075 60.4197C51.8694 60.2954 51.7919 60.1789 51.6807 60.0789C51.0561 59.3494 49.7729 58.1775 48.5067 58.0698C48.0886 58.0547 47.6723 58.1175 47.2991 58.2517C46.9258 58.386 46.6088 58.5872 46.3794 58.8352C46.0005 59.2213 45.7595 59.6668 45.6772 60.1334C45.5949 60.5999 45.6736 61.0737 45.9066 61.514C46.2772 62.306 47.0385 62.9769 48.0508 63.4035C48.556 63.5552 49.1243 63.5627 49.6372 63.4245C50.15 63.2864 50.5676 63.0132 50.8028 62.6621C51.0561 62.2196 50.9716 61.6814 51.3768 61.3107C51.4537 61.2203 51.5443 61.1361 51.647 61.0596Z" fill="#FFEDE5"/>
<path d="M116.26 18.6886C112.36 20.614 112.006 24.3571 113.914 27.3469C115.18 29.344 117.56 30.7432 118.979 32.6328C120.451 34.46 122.145 36.1927 124.044 37.811C128.231 41.5781 132.232 44.9864 133.751 46.278C139.053 50.7745 150.162 56.6584 154.163 58.7153L155.632 59.4568C155.632 59.4568 159.448 58.0336 158.435 55.4027C158.435 55.4027 143.24 43.9699 140.994 41.6379C138.506 38.6094 136.252 35.4875 134.241 32.2859C131.641 28.6982 128.957 25.2421 126.137 21.786C124.854 20.1954 123.233 18.1983 120.397 17.8395C119.259 17.7498 118.111 17.9217 117.121 18.3298C116.822 18.4342 116.534 18.5541 116.26 18.6886Z" fill="#FFEDE5"/>
<path d="M158.417 55.4148C157.996 55.3923 157.572 55.3923 157.151 55.4148C157.151 55.4148 153.504 56.8499 154.129 58.7155C154.129 58.7155 154.534 58.9666 155.125 59.3493C155.716 59.732 156.408 60.1864 157.185 60.7605C157.961 61.3345 159.801 63.1523 160.561 62.9968C160.74 62.9463 160.897 62.8639 161.017 62.7576L162.57 61.5617C163.465 60.8681 164.917 59.6961 163.82 58.7753C164.613 59.1221 166.504 59.9712 167.45 59.5646L167.77 59.1221C167.77 59.1221 164.985 57.6511 163.82 56.9216C162.301 56.0134 160.402 55.484 158.417 55.4148Z" fill="#FFEDE5"/>
<path d="M158.806 63.1761C158.47 63.4519 158.052 63.672 157.582 63.8208C157.112 63.9696 156.602 64.0435 156.088 64.0372C155.849 64.001 155.623 63.9307 155.424 63.8305C155.225 63.7303 155.058 63.6024 154.931 63.4545C154.805 63.3066 154.722 63.142 154.689 62.9707C154.655 62.7995 154.672 62.6252 154.737 62.4586C154.948 62.1108 155.272 61.8034 155.682 61.5617C158.237 59.7678 160.849 58.0178 163.516 56.3117C163.957 55.956 164.55 55.7123 165.205 55.618C165.81 55.6183 166.396 55.7712 166.857 56.0495C167.318 56.3278 167.624 56.7133 167.72 57.1368C167.72 57.9022 166.809 58.1892 166.032 58.6197C163.651 60.0787 161.254 61.6573 158.806 63.1761Z" fill="#3B2645"/>
<path d="M159.194 61.0596C159.078 60.9863 158.986 60.8967 158.923 60.7965C158.888 60.6719 158.89 60.5433 158.931 60.4194C158.972 60.2956 159.05 60.1795 159.16 60.0789C159.768 59.3494 161.051 58.1775 162.317 58.0698C162.735 58.0547 163.151 58.1175 163.525 58.2517C163.898 58.386 164.215 58.5872 164.444 58.8352C164.819 59.2231 165.053 59.6702 165.127 60.1373C165.2 60.6044 165.111 61.0771 164.866 61.514C164.507 62.3103 163.743 62.9837 162.722 63.4035C162.217 63.5552 161.649 63.5627 161.136 63.4245C160.623 63.2864 160.205 63.0132 159.97 62.6621C159.734 62.2196 159.818 61.6814 159.396 61.3107L159.194 61.0596Z" fill="#FFEDE5"/>
<path d="M123.148 103.909V105.105C123.148 105.906 123.148 106.731 123.148 107.58V108.549C123.148 109.529 123.047 110.546 122.979 111.586C118.608 112.441 114.107 112.918 109.574 113.009C109.388 111.67 109.017 108.106 109 107.712C109 106.898 108.747 104.602 108.73 104.291C108.629 102.545 108.561 100.799 108.561 99.0892C108.561 96.8648 108.679 94.6883 108.916 92.6672C108.916 92.5237 108.916 92.3921 108.916 92.2606C108.916 92.129 107.041 84.6068 105.539 75.7931C105.37 76.7259 105.201 77.6587 105.032 78.5556C103.614 86.1376 102.112 92.2606 102.112 92.2606C102.365 94.3893 102.483 96.6974 102.483 99.0652C102.483 100.871 102.483 102.653 102.297 104.542C102.297 104.853 101.96 108.848 101.909 109.23C101.791 110.51 101.639 111.766 101.487 112.974C99.1232 112.902 96.7933 112.794 94.4803 112.651C92.6569 112.543 90.3607 112.471 88.1321 112.244C88.0308 111.168 87.9633 110.139 87.9126 109.135C87.9126 108.884 87.9126 108.632 87.9126 108.381C87.9126 107.281 87.9126 106.241 87.9126 105.236V104.447C87.9126 97.1996 88.9088 92.428 88.7568 91.2919C85.2282 66.178 90.1581 52.3295 90.1581 52.3295C90.9278 50.3172 92.3174 48.4507 94.227 46.8643C95.6743 47.023 97.0944 47.2875 98.4647 47.6536C100.552 48.0399 102.707 48.2131 104.864 48.1678H106.417C108.291 48.1678 110.165 48.0123 112.022 47.9764H113.271C115.052 47.9577 116.83 48.078 118.573 48.3352C119.615 49.6037 120.42 50.9624 120.97 52.3774C122.334 56.8912 123.136 61.4811 123.368 66.0943C123.94 74.5152 123.607 82.9547 122.372 91.3397C122.169 92.4041 123.064 96.9605 123.148 103.909Z" fill="#3B2645"/>
<path d="M99.2405 125.877C99.4769 132.06 98.6496 136.126 97.3665 138.577C95.408 142.368 92.3015 142.321 90.6131 140.276C90.1571 139.708 89.843 139.089 89.6846 138.446C88.4521 134.177 90.6131 126.726 90.6131 126.726C90.6226 126.635 90.6226 126.543 90.6131 126.451C91.4532 126.885 92.4054 127.198 93.4158 127.372C94.5494 127.569 95.7428 127.501 96.8172 127.177C97.8915 126.854 98.7891 126.293 99.3756 125.578L99.2405 125.877Z" fill="#AB8DA8"/>
<path d="M121.29 138.111C121.146 138.871 120.802 139.605 120.277 140.276C118.454 142.381 115.313 142.369 113.372 138.291C112.19 135.899 111.43 131.917 111.683 126.081C112.948 126.885 114.576 127.343 116.276 127.372C117.792 127.273 119.232 126.857 120.412 126.176C120.443 126.363 120.443 126.552 120.412 126.738C120.412 126.738 122.337 133.794 121.29 138.111Z" fill="#AB8DA8"/>
<path d="M96.6918 129.548C95.8366 129.187 94.8595 128.996 93.8638 128.996C92.8681 128.996 91.891 129.187 91.0359 129.548C91.0042 129.573 90.983 129.604 90.9746 129.637C90.9663 129.67 90.9712 129.704 90.9888 129.735C91.0064 129.766 91.0359 129.793 91.0741 129.813C91.1122 129.833 91.1575 129.845 91.2047 129.847C92.0488 129.847 92.893 129.596 93.6865 129.608C94.6153 129.664 95.5326 129.792 96.4216 129.991C96.4977 129.998 96.5748 129.987 96.6414 129.96C96.7079 129.933 96.7603 129.891 96.7908 129.841C96.8212 129.792 96.828 129.736 96.8102 129.683C96.7923 129.63 96.7508 129.583 96.6918 129.548Z" fill="#291B30"/>
<path d="M96.421 131.462C94.9792 130.867 93.2873 130.651 91.643 130.852C91.0858 130.852 91.0689 131.51 91.643 131.474C92.4374 131.42 93.2385 131.444 94.0235 131.546C94.7495 131.641 95.408 131.856 96.1339 131.964C96.2233 131.978 96.3165 131.968 96.3972 131.938C96.478 131.908 96.541 131.858 96.5753 131.798C96.6096 131.738 96.6129 131.672 96.5847 131.61C96.5564 131.549 96.4985 131.496 96.421 131.462Z" fill="#291B30"/>
<path d="M118.775 129.548C117.492 129.238 114.706 129.118 113.71 129.955C113.575 130.063 113.71 130.29 113.896 130.278C114.689 130.206 115.381 129.979 116.209 129.955C117.036 129.931 117.897 130.087 118.674 130.051C118.72 130.055 118.768 130.054 118.813 130.045C118.859 130.037 118.902 130.023 118.939 130.003C118.977 129.983 119.009 129.958 119.033 129.929C119.057 129.9 119.072 129.868 119.079 129.835C119.086 129.803 119.083 129.769 119.071 129.737C119.06 129.704 119.039 129.674 119.011 129.647C118.983 129.621 118.947 129.598 118.907 129.581C118.866 129.564 118.822 129.553 118.775 129.548Z" fill="#291B30"/>
<path d="M119.4 131.57C117.999 131.127 114.504 130.804 113.795 132.144C113.693 132.323 114.014 132.467 114.217 132.383C114.946 132.095 115.759 131.929 116.593 131.898C117.427 131.867 118.26 131.971 119.029 132.203C119.535 132.347 119.923 131.725 119.4 131.57Z" fill="#291B30"/>
<path d="M55.4799 17.2655C55.4799 17.1937 55.2773 17.1937 55.2604 17.2655C54.4162 21.3435 54.9059 25.6368 54.9059 29.8105C54.9059 34.2233 54.7033 38.6721 55.0747 43.073C55.0907 43.12 55.1285 43.1618 55.1821 43.1917C55.2357 43.2216 55.3019 43.2379 55.3702 43.2379C55.4384 43.2379 55.5046 43.2216 55.5582 43.1917C55.6118 43.1618 55.6496 43.12 55.6656 43.073C56.0202 38.6721 55.8176 34.2233 55.8176 29.8105C55.8176 25.7325 56.3072 21.3794 55.4799 17.2655Z" fill="#F7F8F8"/>
<path d="M62.8572 18.6529C62.8392 18.5942 62.7934 18.5416 62.7274 18.5038C62.6613 18.4661 62.579 18.4456 62.4942 18.4456C62.4094 18.4456 62.3271 18.4661 62.2611 18.5038C62.195 18.5416 62.1492 18.5942 62.1312 18.6529C62.1312 22.5754 61.7767 26.5697 62.1312 30.4803C62.1312 30.5469 62.1686 30.6108 62.2351 30.6579C62.3015 30.705 62.3917 30.7315 62.4858 30.7315C62.5798 30.7315 62.67 30.705 62.7365 30.6579C62.803 30.6108 62.8403 30.5469 62.8403 30.4803C63.2286 26.5697 62.891 22.5754 62.8572 18.6529Z" fill="#F7F8F8"/>
<path d="M138.344 59.72C138.33 59.6846 138.3 59.6534 138.259 59.6312C138.218 59.609 138.168 59.5969 138.116 59.5969C138.064 59.5969 138.014 59.609 137.973 59.6312C137.931 59.6534 137.902 59.6846 137.888 59.72C137.412 64.8553 137.317 70.0047 137.601 75.1471C137.601 80.2895 137.601 85.4199 137.871 90.5622C137.885 90.6005 137.917 90.6343 137.961 90.6584C138.006 90.6826 138.06 90.6957 138.116 90.6957C138.172 90.6957 138.226 90.6826 138.27 90.6584C138.315 90.6343 138.346 90.6005 138.361 90.5622C138.597 85.4199 138.597 80.2895 138.631 75.1471C138.907 70.0046 138.811 64.8555 138.344 59.72Z" fill="#F7F8F8"/>
<path d="M151.36 29.6433C151.307 26.2214 150.991 22.804 150.414 19.4064C150.414 19.2031 149.958 19.2629 149.942 19.4064C149.811 23.0809 149.963 26.7578 150.397 30.4206C150.617 33.8289 150.566 37.321 151.208 40.6934C151.208 41.0043 151.951 40.9087 151.968 40.6216C152.204 36.9741 151.664 33.2549 151.36 29.6433Z" fill="#F7F8F8"/>
<path d="M154.737 31.5449C154.725 31.5181 154.702 31.4947 154.67 31.4781C154.638 31.4615 154.599 31.4525 154.56 31.4525C154.52 31.4525 154.482 31.4615 154.45 31.4781C154.418 31.4947 154.394 31.5181 154.382 31.5449C153.935 36.4582 153.901 41.3861 154.281 46.3023C154.271 46.3322 154.27 46.3635 154.279 46.3936C154.288 46.4238 154.307 46.4522 154.334 46.4765C154.361 46.5008 154.395 46.5204 154.434 46.534C154.473 46.5475 154.516 46.5545 154.56 46.5545C154.603 46.5545 154.646 46.5475 154.685 46.534C154.725 46.5204 154.759 46.5008 154.786 46.4765C154.813 46.4522 154.831 46.4238 154.84 46.3936C154.85 46.3635 154.849 46.3322 154.838 46.3023C155.218 41.3861 155.184 36.4582 154.737 31.5449Z" fill="#F7F8F8"/>
<path d="M104.948 78.5434C104.974 77.6122 105.144 76.6858 105.455 75.7809C105.286 76.7137 105.117 77.6465 104.948 78.5434Z" fill="#291B30"/>
<path d="M123.317 66.094C121.038 56.3953 102.213 55.9408 102.213 55.9408C101.048 51.9465 108.646 50.7506 108.646 50.7506L113.086 48.036C114.867 48.0172 116.644 48.1375 118.388 48.3947C119.487 49.6378 120.356 50.9763 120.971 52.3771C122.307 56.8933 123.092 61.4825 123.317 66.094Z" fill="#291B30"/>
<path d="M121.24 53.4176C106.045 58.4762 89.5332 53.8362 89.5332 53.8362C90.7319 51.4444 89.8371 39.2462 89.7527 36.9261C89.7527 36.9261 89.7527 36.8424 89.7527 36.8066C89.7595 36.7189 89.7595 36.6311 89.7527 36.5435C92.9436 31.3054 93.2982 21.212 93.3151 17.7439C94.7502 17.5885 96.2528 17.5047 97.5528 17.4569C98.0593 21.3316 99.8658 31.2695 104.897 30.839C109.928 30.4085 112.326 21.5588 113.204 17.6841C114.129 17.7941 115.068 17.8382 116.006 17.8157C116.293 17.8157 116.58 17.8157 116.867 17.8157C116.428 23.1135 120.582 34.2473 120.7 34.5583C120.7 34.642 120.7 34.7377 120.7 34.8214C120.7 35.1084 120.582 35.4074 120.531 35.7302C120.531 35.7302 120.531 35.8618 120.531 35.9336C119.467 42.6784 121.24 53.4176 121.24 53.4176Z" fill="#AB8DA8"/>
<ellipse opacity="0.3" cx="281.85" cy="71.8086" rx="63.1131" ry="44.3855" fill="#FCFCFC"/>
<path d="M280.01 133.076C277.323 133.079 274.644 132.878 272.019 132.476C267.43 131.808 263.107 130.427 259.362 128.433C255.617 126.44 252.542 123.882 250.36 120.946C248.629 118.199 247.343 115.322 246.526 112.37L246.338 111.808C243.648 103.689 240.258 95.1036 234.002 87.3471C232.993 86.0989 231.89 84.8506 230.827 83.65C228.256 80.9314 226.079 78.0358 224.33 75.0073C221.639 69.8141 222.137 64.6495 225.81 61.2477C226.293 60.7192 226.923 60.2653 227.66 59.9133C228.398 59.5612 229.228 59.3183 230.101 59.199C230.633 59.1534 231.173 59.1858 231.686 59.2939C232.2 59.4021 232.677 59.5839 233.087 59.8279C233.408 60.0088 233.67 60.2356 233.858 60.4934C234.046 60.7512 234.155 61.0342 234.177 61.3239H233.303C233.282 61.1219 233.201 60.9252 233.067 60.7464C232.933 60.5675 232.747 60.4105 232.522 60.2853C232.203 60.0974 231.834 59.9567 231.436 59.8716C231.039 59.7865 230.621 59.7587 230.209 59.7898C228.693 60.0345 227.368 60.6827 226.509 61.6003C223.025 64.8496 222.473 69.776 225.164 74.7691C226.899 77.776 229.062 80.6495 231.621 83.345C232.684 84.5552 233.787 85.8035 234.809 87.0613C241.078 94.8749 244.509 103.508 247.199 111.674L247.387 112.236C248.187 115.14 249.45 117.969 251.154 120.669C253.274 123.523 256.263 126.008 259.904 127.944C263.545 129.88 267.747 131.22 272.207 131.866C281.227 133.132 290.585 132.233 298.803 129.312C302.093 128.273 305.064 126.787 307.547 124.938C310.073 122.773 312.019 120.3 313.291 117.639C315.538 113.466 317.327 109.063 318.941 104.823C321.43 98.4959 323.999 91.9496 328.358 86.0226C329.703 84.2884 331.049 82.5827 332.475 80.9342C335.145 77.9756 337.398 74.8383 339.201 71.5674C340.748 68.461 340.815 65.8501 339.416 63.9443C338.925 63.3088 338.242 62.7575 337.417 62.3294C336.592 61.9012 335.644 61.6068 334.64 61.4669C333.94 61.3495 333.21 61.3495 332.51 61.467C331.809 61.5844 331.157 61.816 330.605 62.1434L330.026 61.6765C330.675 61.2831 331.445 61.0025 332.274 60.8569C333.103 60.7114 333.969 60.7049 334.802 60.838C335.941 61.0044 337.013 61.347 337.944 61.8412C338.874 62.3353 339.638 62.9689 340.183 63.6966C341.703 65.7929 341.636 68.5182 340.008 71.7961C338.186 75.1082 335.896 78.2816 333.174 81.2677C331.829 82.9162 330.349 84.6124 329.138 86.3275C324.834 92.1973 322.278 98.715 319.802 105.004C318.121 109.273 316.385 113.685 314.112 117.877C312.811 120.611 310.814 123.153 308.22 125.377C305.655 127.285 302.589 128.819 299.193 129.893C293.214 131.955 286.659 133.042 280.01 133.076Z" fill="#AB8DA8"/>
<path d="M289.884 22.1223C290.579 21.3403 290.978 20.4442 291.041 19.521C291.117 19.1063 291.063 18.6849 290.884 18.2865C290.705 17.8881 290.405 17.5223 290.005 17.215C289.669 16.9863 289.252 16.8053 288.942 16.5575C288.633 16.3098 288.485 16.0525 288.229 15.8143C287.952 15.5587 287.596 15.3518 287.187 15.2097C286.779 15.0676 286.33 14.994 285.875 14.9948C284.947 14.9948 283.965 15.2997 283.184 14.9948C282.7 14.8233 282.377 14.4802 281.839 14.2896C281.333 14.1071 280.752 14.0565 280.198 14.1467C279.714 14.2662 279.203 14.3212 278.691 14.3087C277.965 14.2325 277.467 13.7751 276.821 13.5178C276.49 13.3976 276.124 13.3303 275.752 13.3206C275.379 13.3108 275.008 13.359 274.665 13.4616C274.321 13.5642 274.014 13.7187 273.763 13.9145C273.513 14.1102 273.326 14.3423 273.216 14.5946C273.128 14.8352 273.128 15.0877 273.216 15.3283C273.364 15.9095 273.929 16.3765 273.97 16.9577C274.01 17.539 273.512 18.044 273.97 18.5586C274.427 19.0731 275.1 19.0922 275.422 19.5781C275.853 20.2356 275.422 21.0932 275.813 21.7984C276.014 22.2462 276.122 22.8846 276.714 23.1705C277.534 23.5707 279.324 23.2372 280.306 23.1705L284.113 22.9513C285.794 22.837 287.866 22.9513 289.386 22.3606C289.57 22.3014 289.738 22.2209 289.884 22.1223Z" fill="#3B2645"/>
<path d="M276.97 21.703C276.836 21.5731 276.661 21.4674 276.459 21.3945C276.257 21.3216 276.033 21.2836 275.806 21.2836C275.579 21.2836 275.355 21.3216 275.153 21.3945C274.951 21.4674 274.776 21.5731 274.642 21.703C273.472 22.6559 275.45 24.5617 276.97 24.676C277.058 23.686 277.058 22.693 276.97 21.703Z" fill="#FFEDE5"/>
<path d="M295.871 37.6638C295.516 39.2689 295.04 40.8593 294.445 42.4282C294.35 42.7236 294.27 43.0094 294.216 43.2858C294.162 43.5621 294.108 43.7718 294.041 44.1243C294.041 44.191 294.041 44.2673 294.041 44.334C294.041 44.5626 293.947 44.8009 293.906 45.0581L292.211 56.2545C281.678 58.3032 270.687 56.2545 270.687 56.2545C270.687 56.2545 270.687 56.1116 270.687 55.8352C270.513 54.5679 269.974 50.5372 269.436 45.992C269.436 45.992 269.436 45.9253 269.436 45.8967C269.442 45.8269 269.442 45.7569 269.436 45.687C269.208 43.7813 268.992 41.7612 268.818 39.8363C268.495 36.4917 268.293 33.4044 268.333 31.4891C268.333 30.784 270.661 30.8602 272.248 30.7077C273.418 30.5934 274.616 30.5172 275.651 30.479C276.687 30.4409 277.467 30.4219 277.992 30.4219H278.584C278.584 30.4219 278.719 29.3261 278.719 29.3165L279.082 26.6294C279.258 26.6617 279.438 26.684 279.62 26.6961C279.953 26.7403 280.29 26.7658 280.629 26.7723C281.073 26.7723 281.49 26.7723 281.88 26.7723L282.458 26.7247H282.795C283.171 26.677 283.535 26.6199 283.871 26.5532C284.207 26.4865 284.315 26.4579 284.53 26.4102C285.513 26.1872 286.446 25.8663 287.301 25.4574L287.422 25.4002L287.651 25.2763L287.812 25.1906C287.812 25.324 287.812 25.3811 287.812 25.4383C287.705 26.0672 287.584 26.8676 287.53 27.6585C287.53 28.2112 287.449 28.7543 287.422 29.2212C287.395 29.6882 287.18 30.3647 287.651 30.6029C287.819 30.6698 288.001 30.718 288.189 30.7459C288.928 30.8284 289.675 30.8635 290.422 30.8507C290.651 30.8507 290.88 30.8507 291.108 30.8507C291.682 30.827 292.257 30.827 292.83 30.8507C293.231 30.8498 293.628 30.9059 293.998 31.0156C294.367 31.1252 294.702 31.2862 294.983 31.4891C295.331 31.8466 295.553 32.2585 295.628 32.6897L295.79 33.4711C296.046 34.8617 296.073 36.2687 295.871 37.6638Z" fill="#FFEDE5"/>
<path d="M287.759 25.1239C287.577 25.8058 287.184 26.4507 286.608 27.0122C286.032 27.5738 285.288 28.0379 284.429 28.3714C283.57 28.7049 282.617 28.8994 281.639 28.9409C280.661 28.9824 279.682 28.8699 278.772 28.6114L279.028 26.639C280.551 26.8471 282.12 26.8195 283.627 26.558C285.134 26.2965 286.544 25.8073 287.759 25.1239Z" fill="#E0855C" fill-opacity="0.1"/>
<path d="M277.239 18.8445C276.459 19.4162 276.391 20.6931 276.337 22.1034C276.136 26.3913 277.952 27.7254 281.032 27.9636C284.113 28.2018 287.355 27.3537 288.014 23.3897C288.351 21.3982 288.7 19.5782 287.678 18.7111C286.212 17.4342 279.606 17.0912 277.239 18.8445Z" fill="#FFEDE5"/>
<path d="M287.557 22.8084C287.557 22.8084 288.499 21.036 289.992 21.9793C291.485 22.9227 289.427 25.6003 287.14 25.4002C287.167 25.4002 286.858 23.4182 287.557 22.8084Z" fill="#FFEDE5"/>
<path d="M289.333 22.7893C288.98 22.8675 288.663 23.0125 288.418 23.2086C288.14 23.373 287.915 23.5777 287.759 23.8089C287.759 23.8756 287.853 23.9233 287.92 23.8756C288.11 23.7426 288.289 23.6027 288.458 23.4564C288.581 23.5522 288.733 23.6271 288.902 23.6755C289.037 23.6755 289.144 23.5898 289.091 23.5135C288.997 23.4126 288.873 23.3279 288.727 23.2658C288.978 23.1519 289.217 23.0245 289.44 22.8846C289.445 22.8732 289.445 22.8612 289.441 22.8496C289.438 22.838 289.431 22.8272 289.42 22.8179C289.41 22.8087 289.396 22.8013 289.381 22.7963C289.366 22.7914 289.349 22.789 289.333 22.7893Z" fill="#E0855C" fill-opacity="0.1"/>
<path d="M278.988 22.0079C278.988 22.0079 278.463 22.1413 278.544 21.4838C278.624 20.8263 278.988 20.9788 278.988 20.9788C278.988 20.9788 279.351 20.9788 279.297 21.4934C279.243 22.0079 278.988 22.0079 278.988 22.0079Z" fill="#3B2645"/>
<path d="M284.274 22.0079C284.274 22.0079 283.763 22.1413 283.844 21.4838C283.924 20.8263 284.274 20.9788 284.274 20.9788C284.274 20.9788 284.637 20.9788 284.583 21.4934C284.53 22.0079 284.274 22.0079 284.274 22.0079Z" fill="#3B2645"/>
<path d="M279.553 20.0165C279.342 19.9318 279.098 19.8963 278.857 19.9151C278.615 19.9339 278.388 20.0061 278.208 20.1213C278.199 20.1344 278.195 20.1488 278.195 20.1634C278.196 20.1779 278.203 20.192 278.213 20.2044C278.224 20.2168 278.239 20.227 278.257 20.2342C278.275 20.2413 278.295 20.2451 278.316 20.2452C278.504 20.2452 278.665 20.169 278.854 20.1595C279.051 20.1528 279.248 20.1755 279.432 20.2262C279.607 20.2643 279.728 20.0737 279.553 20.0165Z" fill="#3B2645"/>
<path d="M285.069 20.3404C284.854 19.9593 283.925 19.9307 283.522 20.1594C283.502 20.1701 283.486 20.1838 283.476 20.1995C283.465 20.2152 283.459 20.2324 283.459 20.2499C283.459 20.2674 283.465 20.2847 283.476 20.3003C283.486 20.316 283.502 20.3298 283.522 20.3404C283.764 20.3547 284.006 20.3547 284.248 20.3404C284.444 20.3628 284.634 20.4045 284.813 20.4643C284.836 20.4883 284.872 20.5048 284.912 20.5102C284.953 20.5155 284.995 20.5093 285.028 20.4929C285.062 20.4765 285.086 20.4512 285.093 20.4226C285.101 20.394 285.092 20.3644 285.069 20.3404Z" fill="#3B2645"/>
<path d="M280.05 25.0761C281.185 25.1815 282.338 25.042 283.359 24.6759C283.206 24.9302 282.98 25.159 282.695 25.3477C282.41 25.5364 282.073 25.6809 281.704 25.7717C280.534 26.0004 280.05 25.0761 280.05 25.0761Z" fill="#FCFCFC"/>
<path d="M273.257 31.4796C276.351 33.0138 276.634 35.9963 275.127 38.3785C274.105 39.9698 272.208 41.0847 271.091 42.5902C269.928 44.0504 268.577 45.4316 267.055 46.7162C263.719 49.7178 260.544 52.4335 259.32 53.4626C255.11 57.0264 246.258 61.7336 243.07 63.3726C242.343 63.7537 241.913 63.9634 241.913 63.9634C241.913 63.9634 238.859 62.8294 239.666 60.7331C239.666 60.7331 251.773 51.6236 253.563 49.7654C255.54 47.3503 257.336 44.863 258.944 42.3139C261.006 39.487 263.154 36.6982 265.387 33.9476C266.41 32.6803 267.715 31.0889 269.961 30.8031C270.868 30.7309 271.783 30.8679 272.571 31.1938C272.809 31.2773 273.038 31.3729 273.257 31.4796Z" fill="#FFEDE5"/>
<path d="M239.665 60.7426C239.997 60.7246 240.33 60.7246 240.661 60.7426C240.661 60.7426 243.567 61.8861 243.069 63.3726C243.069 63.3726 242.76 63.5727 242.275 63.8776C241.791 64.1826 241.266 64.5447 240.634 65.002C240.002 65.4594 238.562 66.9078 237.944 66.7839C237.799 66.7462 237.673 66.6801 237.58 66.5934L236.329 65.6405C235.63 65.0878 234.459 64.154 235.347 63.4203C234.701 63.6966 233.195 64.3731 232.455 64.0492L232.146 63.6966C232.146 63.6966 234.365 62.5245 235.28 61.9433C236.514 61.2104 238.056 60.7882 239.665 60.7426Z" fill="#FFEDE5"/>
<path d="M276.929 46.0779C276.925 46.1286 276.925 46.1796 276.929 46.2303C276.929 46.2303 277.05 46.2303 277.023 46.2303L276.929 46.0779Z" fill="#D6BED3"/>
<path d="M325.223 136.649C323.797 136.754 322.358 136.84 320.891 136.887L238.091 136.935H237.836H237.405L235.952 136.84C235.62 136.84 235.302 136.746 235.068 136.58C234.833 136.414 234.701 136.189 234.701 135.954C234.701 135.718 234.833 135.493 235.068 135.327C235.302 135.161 235.62 135.067 235.952 135.067L237.419 134.972H237.836H238.105L320.891 135.02C322.344 135.02 323.784 135.144 325.223 135.258C325.429 135.307 325.608 135.4 325.734 135.525C325.861 135.65 325.929 135.8 325.929 135.954C325.929 136.107 325.861 136.257 325.734 136.382C325.608 136.507 325.429 136.6 325.223 136.649Z" fill="#C6C6C6"/>
<path d="M281.92 76.9607C280.682 83.9834 279.229 90.0914 279.229 90.0914C279.431 91.7875 279.525 93.6266 279.525 95.5133C279.525 99.2105 279.175 103.136 278.731 106.595C278.166 111.007 277.386 114.761 277.05 116.648V116.886C277.548 129.398 272.516 131.056 270.162 128.321C267.808 125.586 270.162 117.525 270.162 117.525C270.17 117.452 270.17 117.379 270.162 117.306C269.172 113.562 268.511 109.778 268.185 105.976C267.378 96.7711 268.763 90.4725 268.602 89.3291C265.79 69.3186 269.718 58.2842 269.718 58.2842C270.332 56.6808 271.439 55.1936 272.96 53.9295C275.826 51.7379 279.27 52.2906 281.435 54.9682C281.663 55.2427 281.87 55.5258 282.054 55.8162C282.937 57.3542 283.437 58.9886 283.534 60.6473C283.749 64.7924 282.929 71.1862 281.92 76.9607Z" fill="#F5A784"/>
<path d="M295.817 105.49C295.504 109.371 294.848 113.235 293.853 117.058L293.732 117.525C293.732 117.525 296.086 125.615 293.732 128.321C291.377 131.027 286.4 129.445 286.844 117.058C286.844 117.001 286.844 116.943 286.844 116.896C286.467 115.104 285.714 111.226 285.122 106.633C284.665 103.146 284.315 99.2389 284.315 95.5417C284.315 93.636 284.422 91.8064 284.624 90.1008C284.624 90.1008 283.131 83.9928 281.934 76.9796C280.925 71.1956 280.091 64.8018 280.44 60.6948C280.541 59.0355 281.046 57.401 281.934 55.8637C282.11 55.5644 282.317 55.2746 282.553 54.9966C285.041 51.9378 289.185 51.671 292.238 55.1205C293.113 56.1204 293.8 57.1966 294.283 58.3222C294.283 58.3222 298.211 69.3279 295.4 89.3671C295.198 90.4915 296.53 96.5708 295.817 105.49Z" fill="#F5A784"/>
<path d="M239.343 66.9268C239.611 67.1465 239.944 67.3219 240.318 67.4405C240.692 67.559 241.099 67.6179 241.509 67.6128C241.697 67.5819 241.874 67.5243 242.029 67.4435C242.184 67.3628 242.315 67.2605 242.413 67.1429C242.511 67.0253 242.575 66.8949 242.6 66.7595C242.625 66.6241 242.61 66.4865 242.558 66.355C242.402 66.0652 242.148 65.8068 241.818 65.6023C239.787 64.1729 237.702 62.7436 235.59 61.4191C235.237 61.1373 234.765 60.9435 234.244 60.8665C233.76 60.8663 233.292 60.9878 232.922 61.2094C232.553 61.431 232.306 61.7383 232.227 62.0766C232.227 62.6865 232.966 62.9151 233.572 63.2582C235.482 64.4588 237.392 65.7166 239.343 66.9268Z" fill="#3B2645"/>
<path d="M239.047 65.2403C239.13 65.1791 239.199 65.1082 239.248 65.0306C239.282 64.9322 239.284 64.8295 239.254 64.7305C239.224 64.6314 239.162 64.5385 239.073 64.4589C238.576 63.8777 237.553 62.9438 236.544 62.8581C236.211 62.8461 235.88 62.896 235.582 63.003C235.285 63.11 235.032 63.2703 234.849 63.4679C234.547 63.7756 234.355 64.1305 234.29 64.5023C234.224 64.8741 234.287 65.2516 234.473 65.6024C234.768 66.2335 235.375 66.768 236.181 67.1079C236.584 67.2288 237.037 67.2347 237.445 67.1247C237.854 67.0146 238.187 66.7969 238.374 66.5171C238.576 66.1646 238.508 65.7358 238.831 65.4404C238.893 65.3683 238.965 65.3012 239.047 65.2403Z" fill="#FFEDE5"/>
<path d="M290.53 31.4795C287.422 33.0136 287.139 35.9961 288.66 38.3783C289.669 39.9696 291.565 41.0845 292.695 42.5901C293.868 44.046 295.219 45.4266 296.731 46.716C300.067 49.7176 303.256 52.4333 304.466 53.4624C308.69 57.0453 317.542 61.7335 320.73 63.3724L321.901 63.9632C321.901 63.9632 324.941 62.8293 324.134 60.7329C324.134 60.7329 312.027 51.6234 310.237 49.7653C308.255 47.3522 306.459 44.8647 304.856 42.3137C302.785 39.4551 300.646 36.7013 298.399 33.9474C297.377 32.6801 296.085 31.0888 293.825 30.8029C292.919 30.7314 292.004 30.8684 291.216 31.1936C290.977 31.2768 290.748 31.3723 290.53 31.4795Z" fill="#FFEDE5"/>
<path d="M324.121 60.7425C323.785 60.7247 323.448 60.7247 323.112 60.7425C323.112 60.7425 320.206 61.886 320.704 63.3725C320.704 63.3725 321.027 63.5726 321.498 63.8775C321.968 64.1824 322.52 64.5445 323.139 65.0019C323.758 65.4593 325.224 66.9077 325.829 66.7838C325.971 66.7436 326.097 66.6779 326.192 66.5932L327.43 65.6404C328.143 65.0877 329.3 64.1539 328.426 63.4201C329.058 63.6965 330.565 64.373 331.318 64.049L331.573 63.6965C331.573 63.6965 329.354 62.5244 328.426 61.9432C327.215 61.2195 325.703 60.7977 324.121 60.7425Z" fill="#FFEDE5"/>
<path d="M324.43 66.9267C324.162 67.1465 323.829 67.3219 323.455 67.4404C323.08 67.559 322.674 67.6178 322.264 67.6128C322.074 67.584 321.894 67.528 321.735 67.4482C321.577 67.3683 321.443 67.2664 321.342 67.1486C321.241 67.0308 321.176 66.8996 321.149 66.7631C321.123 66.6266 321.136 66.4878 321.188 66.355C321.355 66.0779 321.614 65.833 321.941 65.6404C323.977 64.211 326.057 62.8167 328.183 61.4572C328.534 61.1738 329.007 60.9797 329.528 60.9045C330.011 60.9047 330.478 61.0266 330.845 61.2483C331.212 61.4701 331.456 61.7772 331.533 62.1147C331.533 62.7245 330.806 62.9532 330.187 63.2963C328.291 64.4588 326.38 65.7166 324.43 66.9267Z" fill="#3B2645"/>
<path d="M324.739 65.2403C324.647 65.1819 324.574 65.1105 324.524 65.0306C324.495 64.9314 324.497 64.8289 324.53 64.7302C324.562 64.6316 324.625 64.539 324.712 64.4589C325.196 63.8777 326.219 62.9438 327.228 62.8581C327.561 62.8461 327.893 62.896 328.19 63.003C328.487 63.11 328.74 63.2703 328.923 63.4679C329.221 63.777 329.408 64.1333 329.467 64.5054C329.525 64.8776 329.454 65.2543 329.259 65.6024C328.973 66.2369 328.364 66.7734 327.551 67.1079C327.148 67.2288 326.695 67.2347 326.287 67.1247C325.878 67.0146 325.545 66.7969 325.358 66.5171C325.169 66.1646 325.237 65.7358 324.9 65.4404L324.739 65.2403Z" fill="#FFEDE5"/>
<path d="M296.018 99.3822V100.335C296.018 100.973 296.018 101.631 296.018 102.308V103.079C296.018 103.861 295.937 104.671 295.884 105.5C292.4 106.18 288.814 106.561 285.202 106.634C285.054 105.566 284.758 102.727 284.745 102.412C284.745 101.764 284.543 99.9348 284.53 99.6871C284.449 98.2959 284.395 96.9047 284.395 95.542C284.395 93.7697 284.489 92.0354 284.678 90.4251C284.678 90.3107 284.678 90.2059 284.678 90.1011C284.678 89.9963 283.184 84.0026 281.987 76.9799C281.853 77.7232 281.718 78.4664 281.584 79.1811C280.454 85.2223 279.256 90.1011 279.256 90.1011C279.458 91.7972 279.552 93.6363 279.552 95.523C279.552 96.9618 279.552 98.3816 279.404 99.8872C279.404 100.135 279.135 103.318 279.095 103.622C279.001 104.642 278.88 105.643 278.759 106.605C276.875 106.548 275.019 106.462 273.176 106.348C271.723 106.262 269.893 106.205 268.118 106.024C268.037 105.166 267.983 104.347 267.943 103.546C267.943 103.346 267.943 103.146 267.943 102.946C267.943 102.069 267.943 101.24 267.943 100.44V99.811C267.943 94.0365 268.736 90.2345 268.615 89.3293C265.804 69.3187 269.732 58.2844 269.732 58.2844C270.345 56.681 271.452 55.1938 272.974 53.9297C274.127 54.0562 275.259 54.2669 276.351 54.5586C278.014 54.8664 279.731 55.0044 281.449 54.9683H282.687C284.18 54.9683 285.673 54.8445 287.153 54.8159H288.148C289.567 54.8009 290.984 54.8968 292.373 55.1017C293.203 56.1125 293.845 57.195 294.283 58.3225C295.37 61.9191 296.009 65.5763 296.193 69.252C296.649 75.9617 296.383 82.6862 295.399 89.3674C295.238 90.2154 295.951 93.8459 296.018 99.3822Z" fill="#3B2645"/>
<path d="M276.971 116.886C277.159 121.813 276.5 125.053 275.477 127.006C273.917 130.027 271.442 129.988 270.096 128.359C269.733 127.907 269.483 127.414 269.356 126.901C268.374 123.499 270.096 117.563 270.096 117.563C270.104 117.49 270.104 117.417 270.096 117.344C270.766 117.69 271.524 117.939 272.329 118.077C273.233 118.235 274.184 118.18 275.04 117.923C275.896 117.665 276.611 117.218 277.078 116.648L276.971 116.886Z" fill="#AB8DA8"/>
<path d="M294.539 126.634C294.424 127.24 294.15 127.825 293.732 128.359C292.279 130.036 289.777 130.027 288.23 126.777C287.288 124.872 286.683 121.699 286.885 117.048C287.892 117.69 289.19 118.055 290.544 118.078C291.751 117.999 292.899 117.667 293.839 117.125C293.864 117.273 293.864 117.424 293.839 117.573C293.839 117.573 295.373 123.195 294.539 126.634Z" fill="#AB8DA8"/>
<path d="M274.938 119.812C274.257 119.524 273.478 119.372 272.685 119.372C271.892 119.372 271.113 119.524 270.432 119.812C270.407 119.831 270.39 119.856 270.383 119.882C270.376 119.909 270.38 119.936 270.394 119.96C270.408 119.985 270.432 120.007 270.462 120.023C270.493 120.038 270.529 120.048 270.566 120.05C271.239 120.05 271.912 119.85 272.544 119.859C273.284 119.904 274.015 120.006 274.723 120.164C274.784 120.17 274.845 120.161 274.898 120.139C274.951 120.118 274.993 120.085 275.017 120.045C275.042 120.005 275.047 119.961 275.033 119.919C275.018 119.877 274.985 119.839 274.938 119.812Z" fill="#291B30"/>
<path d="M274.723 121.336C273.574 120.862 272.226 120.69 270.916 120.85C270.472 120.85 270.459 121.374 270.916 121.346C271.549 121.303 272.187 121.322 272.813 121.403C273.391 121.479 273.916 121.651 274.495 121.736C274.566 121.747 274.64 121.74 274.704 121.716C274.769 121.692 274.819 121.652 274.846 121.604C274.873 121.557 274.876 121.504 274.854 121.454C274.831 121.405 274.785 121.364 274.723 121.336Z" fill="#291B30"/>
<path d="M292.533 119.812C291.511 119.564 289.291 119.469 288.498 120.136C288.39 120.221 288.498 120.402 288.646 120.393C289.278 120.336 289.83 120.155 290.489 120.136C291.148 120.117 291.834 120.24 292.453 120.212C292.49 120.216 292.528 120.214 292.564 120.208C292.6 120.201 292.634 120.189 292.664 120.174C292.694 120.158 292.72 120.138 292.739 120.115C292.758 120.092 292.77 120.067 292.776 120.04C292.781 120.014 292.779 119.987 292.77 119.962C292.76 119.936 292.744 119.912 292.721 119.891C292.699 119.869 292.671 119.851 292.639 119.838C292.606 119.824 292.571 119.815 292.533 119.812Z" fill="#291B30"/>
<path d="M293.031 121.422C291.915 121.07 289.13 120.812 288.565 121.88C288.484 122.022 288.74 122.137 288.901 122.07C289.483 121.841 290.13 121.708 290.795 121.684C291.46 121.659 292.123 121.742 292.735 121.927C293.139 122.042 293.448 121.546 293.031 121.422Z" fill="#291B30"/>
<path d="M242.101 30.3456C242.101 30.2884 241.94 30.2884 241.926 30.3456C241.254 33.5949 241.644 37.0158 241.644 40.3413C241.644 43.8575 241.482 47.4022 241.778 50.9088C241.791 50.9462 241.821 50.9796 241.864 51.0034C241.907 51.0272 241.959 51.0402 242.014 51.0402C242.068 51.0402 242.121 51.0272 242.164 51.0034C242.206 50.9796 242.236 50.9462 242.249 50.9088C242.532 47.4022 242.37 43.8575 242.37 40.3413C242.37 37.092 242.76 33.6235 242.101 30.3456Z" fill="#F7F8F8"/>
<path d="M247.979 31.451C247.965 31.4042 247.929 31.3623 247.876 31.3322C247.823 31.3022 247.758 31.2858 247.69 31.2858C247.623 31.2858 247.557 31.3022 247.504 31.3322C247.452 31.3623 247.415 31.4042 247.401 31.451C247.401 34.5764 247.118 37.759 247.401 40.875C247.401 40.928 247.431 40.9789 247.484 41.0165C247.537 41.054 247.609 41.0751 247.683 41.0751C247.758 41.0751 247.83 41.054 247.883 41.0165C247.936 40.9789 247.966 40.928 247.966 40.875C248.275 37.759 248.006 34.5764 247.979 31.451Z" fill="#F7F8F8"/>
<path d="M308.125 64.173C308.114 64.1448 308.091 64.12 308.058 64.1023C308.025 64.0846 307.985 64.075 307.944 64.075C307.902 64.075 307.862 64.0846 307.83 64.1023C307.797 64.12 307.773 64.1448 307.762 64.173C307.383 68.2648 307.307 72.3678 307.533 76.4652C307.533 80.5626 307.533 84.6504 307.749 88.7478C307.76 88.7783 307.785 88.8053 307.821 88.8245C307.856 88.8437 307.899 88.8542 307.944 88.8542C307.988 88.8542 308.032 88.8437 308.067 88.8245C308.102 88.8053 308.127 88.7783 308.139 88.7478C308.327 84.6504 308.327 80.5626 308.354 76.4652C308.574 72.3677 308.497 68.265 308.125 64.173Z" fill="#F7F8F8"/>
<path d="M318.498 40.2081C318.456 37.4815 318.204 34.7586 317.745 32.0514C317.745 31.8894 317.381 31.9371 317.368 32.0514C317.264 34.9793 317.385 37.9089 317.731 40.8274C317.906 43.5432 317.866 46.3256 318.377 49.0127C318.377 49.2605 318.969 49.1842 318.982 48.9555C319.171 46.0492 318.74 43.0858 318.498 40.2081Z" fill="#F7F8F8"/>
<path d="M321.188 41.7232C321.178 41.7019 321.16 41.6833 321.134 41.67C321.109 41.6568 321.078 41.6497 321.047 41.6497C321.015 41.6497 320.984 41.6568 320.959 41.67C320.934 41.6833 320.915 41.7019 320.905 41.7232C320.549 45.6381 320.522 49.5646 320.825 53.4818C320.816 53.5057 320.816 53.5306 320.823 53.5546C320.83 53.5787 320.845 53.6012 320.867 53.6206C320.888 53.64 320.915 53.6556 320.946 53.6664C320.978 53.6772 321.012 53.6828 321.047 53.6828C321.081 53.6828 321.116 53.6772 321.147 53.6664C321.178 53.6556 321.205 53.64 321.227 53.6206C321.248 53.6012 321.263 53.5787 321.27 53.5546C321.278 53.5306 321.277 53.5057 321.269 53.4818C321.571 49.5646 321.544 45.6381 321.188 41.7232Z" fill="#F7F8F8"/>
<path d="M281.517 79.1714C281.537 78.4294 281.672 77.6913 281.92 76.9702C281.786 77.7135 281.651 78.4567 281.517 79.1714Z" fill="#291B30"/>
<path d="M296.153 69.2517C294.337 61.5239 279.337 61.1618 279.337 61.1618C278.409 57.9791 284.462 57.0262 284.462 57.0262L288 54.8632C289.419 54.8483 290.836 54.9441 292.225 55.1491C293.101 56.1395 293.793 57.2061 294.283 58.3222C295.347 61.9206 295.973 65.5773 296.153 69.2517Z" fill="#291B30"/>
<path d="M294.498 59.1513C282.391 63.182 269.234 59.4848 269.234 59.4848C270.19 57.5791 269.477 47.8597 269.409 46.0111C269.409 46.0111 269.409 45.9444 269.409 45.9158C269.415 45.846 269.415 45.776 269.409 45.7062C271.952 41.5325 272.234 33.4902 272.248 30.7269C273.391 30.603 274.588 30.5363 275.624 30.4982C276.028 33.5855 277.467 41.504 281.476 41.1609C285.485 40.8179 287.395 33.7666 288.095 30.6792C288.832 30.7669 289.58 30.802 290.328 30.784C290.557 30.784 290.785 30.784 291.014 30.784C290.664 35.0053 293.974 43.8766 294.068 44.1244C294.068 44.1911 294.068 44.2673 294.068 44.334C294.068 44.5627 293.974 44.8009 293.933 45.0582C293.933 45.0582 293.933 45.163 293.933 45.2202C293.086 50.5945 294.498 59.1513 294.498 59.1513Z" fill="#AB8DA8"/>
</g>
<rect opacity="0.3" width="354" height="150" rx="22" fill="black"/>
<path fill-rule="evenodd" clip-rule="evenodd" d="M164.451 75.0068C164.451 68.5673 170.336 63.3334 177.562 63.3334C184.789 63.3334 190.673 68.5673 190.673 75.0068C190.673 81.4327 184.789 86.6667 177.562 86.6667C170.336 86.6667 164.451 81.4327 164.451 75.0068ZM182.371 76.1875C182.511 76.0637 182.688 75.8724 182.726 75.8273C182.928 75.591 183.029 75.2983 183.029 75.0068C183.029 74.6792 182.916 74.3753 182.7 74.1277C182.683 74.112 182.648 74.0786 182.603 74.035C182.519 73.9535 182.398 73.8364 182.283 73.7338C181.245 72.7432 178.537 71.1224 177.119 70.6272C176.904 70.5495 176.36 70.3795 176.069 70.3683C175.791 70.3683 175.525 70.4245 175.272 70.5371C174.955 70.6947 174.702 70.9423 174.563 71.235C174.474 71.4376 174.335 72.0454 174.335 72.0566C174.196 72.7207 174.12 73.8013 174.12 74.9944C174.12 76.1324 174.196 77.1668 174.31 77.8421C174.313 77.8449 174.324 77.8932 174.341 77.9683C174.392 78.1964 174.499 78.6716 174.614 78.8664C174.892 79.3392 175.436 79.6318 176.018 79.6318H176.069C176.449 79.6206 177.246 79.3279 177.246 79.3167C178.587 78.8214 181.232 77.2793 182.295 76.2551L182.371 76.1875Z" fill="#F7F8F8"/>
<defs>
<linearGradient id="paint0_linear_221_1732" x1="354" y1="150" x2="-105.316" y2="66.1202" gradientUnits="userSpaceOnUse">
<stop stop-color="#056AFF"/>
<stop offset="1" stop-color="#9DCEFF"/>
</linearGradient>
</defs>
</svg>
