<svg width="15" height="17" viewBox="0 0 15 17" fill="none" xmlns="http://www.w3.org/2000/svg">
<path d="M13.75 1.25H11.875V0.625C11.875 0.45924 11.8092 0.300268 11.6919 0.183058C11.5747 0.065848 11.4158 0 11.25 0C11.0842 0 10.9253 0.065848 10.8081 0.183058C10.6908 0.300268 10.625 0.45924 10.625 0.625V1.25H4.375V0.625C4.375 0.45924 4.30915 0.300268 4.19194 0.183058C4.07473 0.065848 3.91576 0 3.75 0C3.58424 0 3.42527 0.065848 3.30806 0.183058C3.19085 0.300268 3.125 0.45924 3.125 0.625V1.25H1.25C0.918479 1.25 0.600537 1.3817 0.366116 1.61612C0.131696 1.85054 0 2.16848 0 2.5V15C0 15.3315 0.131696 15.6495 0.366116 15.8839C0.600537 16.1183 0.918479 16.25 1.25 16.25H13.75C14.0815 16.25 14.3995 16.1183 14.6339 15.8839C14.8683 15.6495 15 15.3315 15 15V2.5C15 2.16848 14.8683 1.85054 14.6339 1.61612C14.3995 1.3817 14.0815 1.25 13.75 1.25ZM3.125 2.5V3.125C3.125 3.29076 3.19085 3.44973 3.30806 3.56694C3.42527 3.68415 3.58424 3.75 3.75 3.75C3.91576 3.75 4.07473 3.68415 4.19194 3.56694C4.30915 3.44973 4.375 3.29076 4.375 3.125V2.5H10.625V3.125C10.625 3.29076 10.6908 3.44973 10.8081 3.56694C10.9253 3.68415 11.0842 3.75 11.25 3.75C11.4158 3.75 11.5747 3.68415 11.6919 3.56694C11.8092 3.44973 11.875 3.29076 11.875 3.125V2.5H13.75V5H1.25V2.5H3.125ZM13.75 15H1.25V6.25H13.75V15ZM6.25 8.125V13.125C6.25 13.2908 6.18415 13.4497 6.06694 13.5669C5.94973 13.6842 5.79076 13.75 5.625 13.75C5.45924 13.75 5.30027 13.6842 5.18306 13.5669C5.06585 13.4497 5 13.2908 5 13.125V9.13594L4.65469 9.30938C4.50633 9.38355 4.33459 9.39576 4.17723 9.34331C4.01988 9.29086 3.8898 9.17804 3.81562 9.02969C3.74145 8.88133 3.72924 8.70959 3.78169 8.55223C3.83414 8.39488 3.94696 8.2648 4.09531 8.19062L5.34531 7.56562C5.44063 7.51793 5.54657 7.4954 5.65305 7.50018C5.75954 7.50497 5.86303 7.5369 5.95369 7.59296C6.04435 7.64902 6.11916 7.72733 6.17103 7.82045C6.22289 7.91357 6.25008 8.01841 6.25 8.125ZM10.8719 10.5039L9.375 12.5H10.625C10.7908 12.5 10.9497 12.5658 11.0669 12.6831C11.1842 12.8003 11.25 12.9592 11.25 13.125C11.25 13.2908 11.1842 13.4497 11.0669 13.5669C10.9497 13.6842 10.7908 13.75 10.625 13.75H8.125C8.00893 13.75 7.89515 13.7177 7.79642 13.6567C7.69768 13.5956 7.61789 13.5083 7.56598 13.4045C7.51408 13.3007 7.4921 13.1845 7.50252 13.0689C7.51295 12.9533 7.55536 12.8429 7.625 12.75L9.87344 9.75234C9.92458 9.68426 9.96127 9.60644 9.98126 9.52367C10.0012 9.44089 10.0041 9.35491 9.98966 9.27098C9.97522 9.18707 9.94379 9.10698 9.89728 9.03565C9.85078 8.96431 9.79019 8.90324 9.71923 8.85616C9.64827 8.80909 9.56844 8.77701 9.48464 8.76189C9.40084 8.74678 9.31483 8.74895 9.2319 8.76828C9.14897 8.7876 9.07086 8.82366 9.00236 8.87426C8.93387 8.92485 8.87644 8.98891 8.83359 9.0625C8.79377 9.13585 8.73965 9.20047 8.67444 9.25256C8.60923 9.30466 8.53425 9.34316 8.45392 9.36581C8.37359 9.38845 8.28954 9.39478 8.20673 9.38441C8.12391 9.37405 8.04401 9.3472 7.97174 9.30545C7.89947 9.26371 7.83629 9.20791 7.78593 9.14135C7.73557 9.0748 7.69906 8.99883 7.67853 8.91793C7.65801 8.83703 7.6539 8.75284 7.66644 8.67033C7.67899 8.58781 7.70793 8.50865 7.75156 8.4375C7.95802 8.08022 8.27656 7.80103 8.65782 7.6432C9.03908 7.48537 9.46176 7.45772 9.86033 7.56453C10.2589 7.67133 10.6111 7.90664 10.8624 8.23397C11.1136 8.5613 11.2499 8.96236 11.25 9.375C11.2513 9.78261 11.1184 10.1793 10.8719 10.5039Z" fill="#92929D"/>
</svg>
