<svg width="24" height="24" viewBox="0 0 24 24" fill="none" xmlns="http://www.w3.org/2000/svg">
<path fill-rule="evenodd" clip-rule="evenodd" d="M13.1715 7.487C13.7665 7.487 14.3372 7.25063 14.7579 6.82989C15.1786 6.40916 15.415 5.83851 15.415 5.2435C15.415 4.64849 15.1786 4.07784 14.7579 3.65711C14.3372 3.23637 13.7665 3 13.1715 3C12.5765 3 12.0058 3.23637 11.5851 3.65711C11.1644 4.07784 10.928 4.64849 10.928 5.2435C10.928 5.83851 11.1644 6.40916 11.5851 6.82989C12.0058 7.25063 12.5765 7.487 13.1715 7.487ZM13.1715 6.487C13.3348 6.487 13.4965 6.45484 13.6474 6.39234C13.7982 6.32985 13.9353 6.23826 14.0508 6.12279C14.1663 6.00732 14.2579 5.87024 14.3203 5.71937C14.3828 5.5685 14.415 5.4068 14.415 5.2435C14.415 5.0802 14.3828 4.9185 14.3203 4.76763C14.2579 4.61676 14.1663 4.47968 14.0508 4.36421C13.9353 4.24874 13.7982 4.15715 13.6474 4.09466C13.4965 4.03216 13.3348 4 13.1715 4C12.8417 4 12.5254 4.13101 12.2922 4.36421C12.059 4.59741 11.928 4.9137 11.928 5.2435C11.928 5.5733 12.059 5.88959 12.2922 6.12279C12.5254 6.35599 12.8417 6.487 13.1715 6.487ZM5 14C4.73478 14 4.48043 14.1054 4.29289 14.2929C4.10536 14.4804 4 14.7348 4 15V21H3V15C3 14.4696 3.21071 13.9609 3.58579 13.5858C3.96086 13.2107 4.46957 13 5 13H8.4555C8.2085 10.485 8.7355 8.4585 10.271 7.6345C10.2904 7.62419 10.3104 7.61517 10.331 7.6075L10.343 7.6025C10.996 7.36 11.6995 7.3735 12.3315 7.7005C12.9325 8.011 13.337 8.5355 13.591 9.0805C13.685 9.2815 13.7715 9.4695 13.8525 9.6455C14.0176 10.0098 14.1886 10.3713 14.3655 10.73C14.583 11.1625 14.7405 11.412 14.8775 11.5715C14.993 11.7065 15.0905 11.7725 15.2155 11.8215C15.3655 11.88 15.6155 11.936 16.07 11.9495C16.3652 11.9584 16.6486 12.0672 16.874 12.258C17.0994 12.4488 17.2535 12.7104 17.311 13H19C19.5304 13 20.0391 13.2107 20.4142 13.5858C20.7893 13.9609 21 14.4696 21 15V21H20V15C20 14.7348 19.8946 14.4804 19.7071 14.2929C19.5196 14.1054 19.2652 14 19 14H17.1015C16.9776 14.1781 16.8111 14.3224 16.6173 14.42C16.4235 14.5175 16.2084 14.5651 15.9915 14.5585C15.3795 14.54 14.8 14.4615 14.266 14.2525C14.0872 14.183 13.9146 14.0986 13.75 14H12.687L12.685 14.0115L14.625 15.9255C14.755 16.054 14.8565 16.208 14.923 16.3775L16.038 19.2175C16.1006 19.3771 16.1312 19.5474 16.1281 19.7188C16.1249 19.8902 16.088 20.0592 16.0194 20.2163C15.9509 20.3735 15.8521 20.5155 15.7287 20.6345C15.6052 20.7534 15.4596 20.8469 15.3 20.9095C15.1404 20.9721 14.9701 21.0027 14.7987 20.9996C14.6273 20.9964 14.4583 20.9595 14.3012 20.8909C14.144 20.8224 14.002 20.7236 13.883 20.6002C13.7641 20.4767 13.6706 20.3311 13.608 20.1715L12.5945 17.589L9.076 14.117C9.03868 14.0801 9.00362 14.0411 8.971 14H5ZM10.381 14L13.3725 16.952C13.4223 17.001 13.4613 17.06 13.487 17.125L14.539 19.806C14.5536 19.8433 14.5754 19.8773 14.6032 19.9062C14.631 19.9351 14.6641 19.9582 14.7008 19.9742C14.7375 19.9903 14.7771 19.9989 14.8171 19.9997C14.8571 20.0005 14.897 19.9934 14.9342 19.9788C14.9715 19.9641 15.0056 19.9423 15.0345 19.9146C15.0633 19.8868 15.0864 19.8536 15.1025 19.8169C15.1185 19.7802 15.1272 19.7407 15.128 19.7007C15.1287 19.6606 15.1216 19.6208 15.107 19.5835L13.992 16.7435C13.9765 16.7037 13.9528 16.6676 13.9225 16.6375L11.7925 14.5355C11.734 14.4778 11.6906 14.4065 11.6662 14.328C11.6417 14.2495 11.637 14.1662 11.6525 14.0855L11.669 14H10.381ZM11.8605 13L12.0925 11.7855C12.1119 11.6836 12.1626 11.5902 12.2375 11.5184C12.3123 11.4465 12.4077 11.3998 12.5103 11.3845C12.6129 11.3693 12.7178 11.3864 12.8103 11.4334C12.9028 11.4805 12.9783 11.5551 13.0265 11.647C13.2275 12.03 13.428 12.355 13.6555 12.6205C13.927 12.936 14.2365 13.1675 14.6295 13.321C15.017 13.4725 15.4705 13.5425 16.0215 13.559C16.1024 13.5615 16.1809 13.5317 16.2399 13.4762C16.2988 13.4207 16.3333 13.3441 16.3358 13.2633C16.3382 13.1824 16.3084 13.1038 16.253 13.0449C16.1975 12.9859 16.1209 12.9515 16.04 12.949C15.5255 12.934 15.149 12.869 14.8515 12.753C14.5605 12.639 14.331 12.4705 14.1185 12.223C13.901 11.9695 13.7005 11.633 13.472 11.1795C13.2909 10.8126 13.1159 10.4427 12.947 10.07L12.9445 10.064C12.8635 9.888 12.7775 9.7015 12.6845 9.5025C12.4945 9.095 12.2225 8.77 11.872 8.5885C11.5215 8.4075 11.122 8.3865 10.7155 8.531C9.7655 9.064 9.205 10.5105 9.4565 12.958C9.45799 12.9722 9.46067 12.9862 9.4645 13H11.8605Z" fill="#FCFCFC"/>
<path fill-rule="evenodd" clip-rule="evenodd" d="M9.27803 15.45C9.21614 15.3906 9.14003 15.3482 9.057 15.3267C8.97397 15.3052 8.88682 15.3055 8.80392 15.3274C8.72101 15.3494 8.64514 15.3923 8.58361 15.452C8.52207 15.5117 8.47693 15.5863 8.45253 15.6685L7.96103 17.3275L7.00203 18.772C6.78437 19.1035 6.70682 19.5076 6.78633 19.8961C6.86585 20.2846 7.09596 20.6258 7.42635 20.8451C7.75675 21.0644 8.16053 21.1439 8.54941 21.0663C8.93828 20.9887 9.28061 20.7603 9.50153 20.431L10.585 18.799C10.6676 18.6746 10.7311 18.5386 10.7735 18.3955L11.0355 17.5105C11.0616 17.4226 11.0629 17.3292 11.0395 17.2406C11.016 17.152 10.9686 17.0715 10.9025 17.008L9.27803 15.45ZM8.89803 17.6835L9.17803 16.7395L9.99053 17.5185L9.81453 18.1115C9.80051 18.1592 9.77944 18.2045 9.75203 18.246L8.66853 19.878C8.63221 19.9327 8.58548 19.9798 8.53099 20.0164C8.4765 20.0531 8.41532 20.0787 8.35095 20.0917C8.28657 20.1047 8.22026 20.1049 8.15581 20.0923C8.09135 20.0797 8.03 20.0546 7.97528 20.0183C7.92055 19.9819 7.87351 19.9352 7.83684 19.8807C7.80017 19.8262 7.7746 19.7651 7.76157 19.7007C7.74855 19.6363 7.74833 19.57 7.76094 19.5055C7.77354 19.4411 7.79871 19.3797 7.83503 19.325L8.83553 17.818C8.8632 17.7764 8.88443 17.7309 8.89853 17.683" fill="#FCFCFC"/>
</svg>
