<svg width="40" height="45" viewBox="0 0 40 45" fill="none" xmlns="http://www.w3.org/2000/svg">
<g clip-path="url(#clip0_348_3115)">
<path d="M6.55553 44.9494C6.36368 44.8209 6.11213 44.7387 5.99275 44.5554C5.75613 44.2118 5.44063 43.8114 5.45982 43.4511C5.47048 43.2192 5.99062 42.92 6.33383 42.8188C8.67875 42.0791 11.0237 41.3984 13.3686 40.6671C15.5195 39.9928 16.4234 38.29 15.8222 36.0181C15.5517 35.0241 15.2221 34.0466 14.8352 33.0909C13.9356 30.836 13.0403 28.5789 12.049 26.364C11.2347 24.5453 10.8808 22.6444 10.5824 20.7013C10.412 19.5616 10.0722 18.4531 9.57408 17.4116C8.50821 15.2304 8.29504 13.1778 9.90663 11.1589C10.1646 10.8364 10.2733 10.3897 10.4119 9.98713C11.559 6.63894 13.3709 3.5509 15.7412 0.904106C15.9713 0.624204 16.265 0.401973 16.5984 0.255489C16.9318 0.109006 17.2954 0.0424098 17.6598 0.0611333C22.8975 0.109604 28.133 0.103292 33.3707 0.124367C34.4366 0.124367 34.767 0.59431 34.3833 1.5848C33.3792 4.16641 31.644 6.26964 29.5123 7.97244C27.2398 9.78273 24.7627 11.3443 22.3667 13.0029C22.0384 13.2305 21.6525 13.3801 21.3157 13.5993C19.783 14.5898 19.7233 14.9227 20.6932 16.3874C22.3475 18.8889 23.1106 21.5359 22.1386 24.5137C20.5696 29.3207 20.8595 34.0688 22.7781 38.7304C23.0808 39.4659 23.5007 40.155 23.844 40.8737C24.7116 42.6945 24.3023 43.9905 22.5649 44.9621H20.1411C18.0456 44.3615 15.9501 44.4373 13.8546 44.9621L6.55553 44.9494Z" fill="#056AFF"/>
</g>
<defs>
<clipPath id="clip0_348_3115">
<rect width="40" height="45" fill="white"/>
</clipPath>
</defs>
</svg>
