<svg width="14" height="14" viewBox="0 0 14 14" fill="none" xmlns="http://www.w3.org/2000/svg">
<path d="M13.5213 1.57353C13.6568 1.72314 13.8021 1.89233 13.9555 2.08296C14.0201 2.16346 14.013 2.27909 13.9409 2.35124C13.9381 2.35409 13.9352 2.35693 13.9322 2.35959C13.928 2.36338 13.5046 2.73972 12.8366 3.34921L9.99402 6.00231C9.27687 6.68794 8.59692 7.35193 7.97432 7.97453C7.35172 8.59712 6.68754 9.27725 6.00059 9.99609L3.34725 12.8385C2.73926 13.5049 2.36295 13.9283 2.35916 13.9325C2.28795 14.0125 2.16625 14.0229 2.08253 13.9559C1.89265 13.8032 1.72367 13.6581 1.57443 13.523C0.903806 12.9154 0.630179 12.5062 0.616319 12.4855C0.566385 12.4094 0.573395 12.3089 0.633966 12.2407C0.637753 12.2366 1.0141 11.8132 1.6234 11.1454L4.2845 8.29446C4.97546 7.57162 5.64133 6.88977 6.26546 6.26567C6.88937 5.64176 7.57141 4.97568 8.29254 4.28644L8.29407 4.28491L11.1433 1.62515C11.813 1.01432 12.2364 0.638008 12.2405 0.634194C12.3087 0.573624 12.4092 0.566586 12.4851 0.616734C12.506 0.630406 12.9146 0.903844 13.5213 1.57353Z" fill="#C7CDE0"/>
<path d="M13.5054 1.16675C13.6454 1.32126 13.7955 1.49599 13.9539 1.69286C14.0206 1.77599 14.0133 1.89541 13.9388 1.96992C13.9359 1.97286 13.9329 1.9758 13.9298 1.97855C13.9255 1.98246 13.4882 2.37112 12.7983 3.00055L9.86237 5.7405C9.12168 6.44858 8.41941 7.1343 7.77637 7.77727C7.13333 8.42025 6.44735 9.12264 5.73784 9.86501L2.9974 12.8004C2.36945 13.4887 1.98078 13.926 1.97687 13.9303C1.90332 14.0128 1.77762 14.0236 1.69115 13.9544C1.49504 13.7968 1.32051 13.6469 1.16638 13.5073C2.27121 12.2155 6.58126 7.31802 13.5054 1.16675V1.16675Z" fill="#B1ACCC"/>
<path d="M6.30936 12.8666C6.30936 12.9217 6.28729 12.9742 6.24864 13.0129C6.24317 13.0183 6.2377 13.0234 6.23146 13.0281C5.98265 13.2269 5.72351 13.3919 5.48153 13.526C4.91618 13.839 4.44453 13.9829 4.4168 13.9911C4.35176 14.0109 4.28107 13.9972 4.22794 13.9546C1.68139 11.9168 0.0581331 9.7896 0.0419163 9.76833C0.00207859 9.71559 -0.0102153 9.64706 0.008709 9.58361C0.0171075 9.55607 0.159081 9.09037 0.468224 8.52976C0.603374 8.2849 0.770349 8.02188 0.971886 7.76921C1.01153 7.7194 1.07247 7.69051 1.13632 7.6915C1.20039 7.69227 1.26034 7.72255 1.29879 7.77351C1.31794 7.79851 3.22904 10.3022 6.23162 12.7046C6.28085 12.744 6.30936 12.8037 6.30936 12.8666Z" fill="#8389AA"/>
<path d="M6.30866 12.8666C6.30866 12.9217 6.28658 12.9742 6.24793 13.0129C6.24247 13.0183 6.23699 13.0234 6.23075 13.0281C5.98195 13.2269 5.72281 13.3919 5.48082 13.526C2.6192 11.2748 0.467547 8.52976 0.467547 8.52976C0.602697 8.2849 0.769673 8.02187 0.971209 7.76921C1.01085 7.7194 1.0718 7.69051 1.13564 7.6915C1.19971 7.69227 1.25966 7.72255 1.29812 7.77351C1.31726 7.79851 3.22837 10.3022 6.23094 12.7046C6.28015 12.744 6.30866 12.8037 6.30866 12.8666Z" fill="#646D91"/>
<path d="M8.67482 12.0651C8.72325 12.1057 8.75079 12.1656 8.74941 12.2287C8.74825 12.2826 8.72637 12.3334 8.68888 12.3708C8.68225 12.3775 8.6754 12.3835 8.6678 12.3892C8.47428 12.5366 8.27332 12.6645 8.0751 12.7744C7.45797 13.1181 6.87016 13.2903 6.63053 13.3518C6.5608 13.3696 6.48679 13.355 6.42918 13.3118C6.09327 13.0603 4.8577 12.1076 3.37486 10.625C1.77876 9.02907 0.916167 7.88892 0.684545 7.57023C0.642746 7.51283 0.628877 7.43998 0.646475 7.37126C0.706619 7.13577 0.875943 6.55563 1.2136 5.94347C1.32629 5.73942 1.45751 5.53166 1.60965 5.33189C1.64852 5.28093 1.70847 5.25104 1.77232 5.25007C1.83619 5.24949 1.89691 5.27858 1.93656 5.32838C1.96308 5.36197 4.64287 8.71311 8.67482 12.0651Z" fill="#8389AA"/>
<path d="M8.67448 12.0651C8.72291 12.1057 8.75046 12.1656 8.74907 12.2287C8.74791 12.2826 8.72603 12.3334 8.68854 12.3708C8.68191 12.3775 8.67506 12.3835 8.66746 12.3892C8.47394 12.5366 8.27298 12.6645 8.07476 12.7744C4.68685 9.98723 2.08676 6.99108 1.21323 5.94347C1.32592 5.73942 1.45715 5.53166 1.60929 5.33189C1.64816 5.28093 1.70811 5.25104 1.77195 5.25007C1.83583 5.24949 1.89655 5.27858 1.93619 5.32838C1.96274 5.36197 4.64253 8.71311 8.67448 12.0651Z" fill="#646D91"/>
<path d="M12.8662 6.30936C12.9213 6.30936 12.9738 6.28729 13.0125 6.24864C13.018 6.24317 13.023 6.2377 13.0277 6.23146C13.2265 5.98265 13.3915 5.72351 13.5256 5.48153C13.8386 4.91618 13.9826 4.44453 13.9908 4.4168C14.0105 4.35176 13.9968 4.28107 13.9543 4.22794C11.9165 1.68139 9.78922 0.0581331 9.76795 0.0419163C9.71522 0.00207859 9.64669 -0.0102153 9.58324 0.008709C9.55569 0.0171075 9.08999 0.159081 8.52938 0.468224C8.28453 0.603374 8.0215 0.770349 7.76883 0.971886C7.71903 1.01153 7.69013 1.07247 7.69113 1.13632C7.6919 1.20039 7.72218 1.26034 7.77314 1.29879C7.79814 1.31794 10.3018 3.22904 12.7042 6.23162C12.7436 6.28085 12.8033 6.30936 12.8662 6.30936Z" fill="#8389AA"/>
<path d="M12.8662 6.30941C12.9213 6.30941 12.9738 6.28733 13.0125 6.24868C13.018 6.24321 13.023 6.23774 13.0277 6.2315C13.2265 5.98269 13.3915 5.72355 13.5256 5.48157C11.2744 2.61994 8.52938 0.468295 8.52938 0.468295C8.28453 0.603445 8.0215 0.77042 7.76883 0.971957C7.71903 1.0116 7.69013 1.07255 7.69113 1.13639C7.6919 1.20046 7.72218 1.26041 7.77314 1.29886C7.79814 1.31801 10.3018 3.22911 12.7042 6.23169C12.7436 6.2809 12.8033 6.30941 12.8662 6.30941Z" fill="#646D91"/>
<path d="M12.0647 8.67532C12.1053 8.72375 12.1652 8.75129 12.2283 8.74991C12.2822 8.74875 12.333 8.72687 12.3705 8.68938C12.3771 8.68275 12.3831 8.6759 12.3888 8.6683C12.5362 8.47478 12.6641 8.27382 12.7741 8.0756C13.1177 7.45847 13.29 6.87066 13.3515 6.63103C13.3692 6.5613 13.3546 6.48728 13.3115 6.42968C13.0599 6.09377 12.1072 4.85819 10.6246 3.37536C9.02869 1.77925 7.88854 0.916665 7.56985 0.685043C7.51245 0.643244 7.43961 0.629375 7.37088 0.646974C7.1354 0.707117 6.55525 0.876441 5.94309 1.21409C5.73904 1.32678 5.53129 1.45801 5.33152 1.61015C5.28055 1.64902 5.25066 1.70897 5.2497 1.77282C5.24912 1.83669 5.2782 1.89741 5.32801 1.93706C5.3616 1.96358 8.71274 4.64337 12.0647 8.67532Z" fill="#8389AA"/>
<path d="M12.0647 8.67535C12.1053 8.72378 12.1652 8.75133 12.2283 8.74995C12.2822 8.74879 12.333 8.72691 12.3705 8.68942C12.3771 8.68279 12.3831 8.67593 12.3888 8.66834C12.5362 8.47481 12.6641 8.27386 12.7741 8.07563C9.98686 4.68772 6.99071 2.08763 5.94309 1.2141C5.73904 1.32679 5.53129 1.45802 5.33152 1.61016C5.28055 1.64903 5.25066 1.70898 5.2497 1.77282C5.24912 1.8367 5.2782 1.89742 5.32801 1.93707C5.3616 1.96361 8.71274 4.6434 12.0647 8.67535Z" fill="#646D91"/>
</svg>
