<svg width="15" height="19" viewBox="0 0 15 19" fill="none" xmlns="http://www.w3.org/2000/svg">
<path d="M6.54932 11.5651C5.23946 10.2434 6.00355 6.88399 6.54932 5.3695C7.64083 6.19559 10.3151 8.2608 12.2798 9.91297C14.7358 11.9782 10.6425 16.5216 8.59586 17.3477C6.95854 18.0086 3.54744 15.6956 2.04656 14.4564C3.54748 14.0434 6.54932 12.8869 6.54932 11.5651Z" fill="#006BFF"/>
<path d="M14.2603 10.0574C12.814 6.27688 7.66445 6.07302 8.90808 0.578246C9.0002 0.170539 8.56723 -0.144507 8.21717 0.0686121C4.87319 2.05155 2.46884 6.02669 4.48628 11.2342C4.6521 11.6605 4.15465 12.0589 3.79538 11.7809C2.12799 10.5115 1.95296 8.68605 2.10035 7.37954C2.15563 6.8977 1.5292 6.66605 1.26205 7.06449C0.635633 8.02816 0 9.58486 0 11.9292C0.350059 17.1182 4.70737 18.7119 6.27343 18.9158C8.51196 19.203 10.9347 18.7861 12.6758 17.183C14.5919 15.3947 15.292 12.5407 14.2603 10.0574ZM5.71149 14.7183C7.03803 14.3939 7.71972 13.4303 7.90396 12.5778C8.20796 11.2528 7.0196 9.9555 7.82105 7.86137C8.12505 9.59413 10.8334 10.6783 10.8334 12.5685C10.9071 14.9128 8.38299 16.9236 5.71149 14.7183Z" fill="white"/>
</svg>
