<svg width="36" height="36" viewBox="0 0 36 36" fill="none" xmlns="http://www.w3.org/2000/svg">
<path d="M18 1C14.6377 1 11.3509 1.99703 8.55531 3.86502C5.75968 5.733 3.58074 8.38804 2.29405 11.4944C1.00737 14.6007 0.670709 18.0189 1.32666 21.3165C1.98261 24.6142 3.6017 27.6433 5.97919 30.0208C8.35668 32.3983 11.3858 34.0174 14.6835 34.6733C17.9811 35.3293 21.3993 34.9926 24.5056 33.7059C27.612 32.4193 30.267 30.2403 32.135 27.4447C34.003 24.6491 35 21.3623 35 18C35 13.4913 33.2089 9.1673 30.0208 5.97918C26.8327 2.79107 22.5087 1 18 1ZM23.8571 22.5714C23.8571 22.9124 23.7217 23.2394 23.4806 23.4806C23.2395 23.7217 22.9124 23.8571 22.5714 23.8571H13.4286C13.0876 23.8571 12.7606 23.7217 12.5194 23.4806C12.2783 23.2394 12.1429 22.9124 12.1429 22.5714V13.4286C12.1429 13.0876 12.2783 12.7606 12.5194 12.5194C12.7606 12.2783 13.0876 12.1429 13.4286 12.1429H22.5714C22.9124 12.1429 23.2395 12.2783 23.4806 12.5194C23.7217 12.7606 23.8571 13.0876 23.8571 13.4286V22.5714Z" fill="#121212" fill-opacity="0.75" stroke="#006BFF" stroke-width="2"/>
</svg>
