<svg width="20" height="25" viewBox="0 0 20 25" fill="none" xmlns="http://www.w3.org/2000/svg">
<path d="M9.72954 16.6252C12.3344 16.6252 14.4442 14.5154 14.4442 11.9106V5.42796C14.4442 2.82312 12.3344 0.713313 9.72954 0.713313C7.1247 0.713313 5.0149 2.82312 5.0149 5.42796V11.9106C5.0149 14.5154 7.1247 16.6252 9.72954 16.6252Z" stroke="#056AFF" stroke-width="1.41231" stroke-linecap="round" stroke-linejoin="round"/>
<path d="M0.713313 9.73036V11.7341C0.713313 16.708 4.75612 20.7508 9.73007 20.7508C14.704 20.7508 18.7468 16.708 18.7468 11.7341V9.73036" stroke="#056AFF" stroke-width="1.41231" stroke-linecap="round" stroke-linejoin="round"/>
<path d="M8.09112 5.93508C9.15192 5.54612 10.307 5.54612 11.3678 5.93508" stroke="#056AFF" stroke-width="1.41231" stroke-linecap="round" stroke-linejoin="round"/>
<path d="M8.78668 8.43366C9.41137 8.26865 10.0596 8.26865 10.6843 8.43366" stroke="#056AFF" stroke-width="1.41231" stroke-linecap="round" stroke-linejoin="round"/>
<path d="M9.72987 20.7507V24.2867" stroke="#056AFF" stroke-width="1.41231" stroke-linecap="round" stroke-linejoin="round"/>
</svg>
