<svg width="170" height="242" viewBox="0 0 170 242" fill="none" xmlns="http://www.w3.org/2000/svg">
<path d="M169.545 51.9533H90.0091C88.1967 51.9555 86.459 52.6766 85.1774 53.9584C83.8958 55.2403 83.1748 56.9781 83.1726 58.7909V235.587L82.2611 235.865L62.7497 241.841C61.825 242.123 60.8262 242.027 59.9726 241.573C59.1189 241.119 58.4802 240.345 58.1967 239.421L0.159099 49.8155C-0.123342 48.8906 -0.0270762 47.8914 0.426734 47.0375C0.880545 46.1836 1.65477 45.5449 2.57925 45.2616L32.6463 36.0537L119.812 9.36903L149.879 0.161118C150.336 0.020272 150.817 -0.0289448 151.294 0.0162829C151.77 0.0615105 152.233 0.200298 152.656 0.424697C153.079 0.649097 153.454 0.954704 153.758 1.32403C154.063 1.69336 154.292 2.11916 154.432 2.57706L169.267 51.0417L169.545 51.9533Z" fill="#E6E6E6"/>
</svg>
