<svg width="65" height="26" viewBox="0 0 65 26" fill="none" xmlns="http://www.w3.org/2000/svg">
<g clip-path="url(#clip0_358_1666)">
<path d="M13.5351 18.6725C13.5351 14.8994 13.5351 11.3441 13.5351 7.78534C13.5351 4.06328 15.7777 2.39956 19.1814 3.68221C32.5071 8.69259 45.824 13.7291 59.132 18.7916C60.7859 19.421 61.507 20.6629 61.1563 22.1667C60.8057 23.6705 59.4859 24.4768 57.627 24.1366C52.8606 23.2656 48.1074 22.3028 43.3542 21.3603C38.4389 20.3839 33.4939 19.5265 28.6249 18.3459C26.0317 17.7165 23.5641 16.5223 21.0469 15.5663C19.8065 15.0934 19.2872 14.2054 19.4725 12.8071C19.5337 11.9704 19.5403 11.1304 19.4923 10.2928L18.9101 10.0716C18.6984 10.5003 18.3115 10.9256 18.3048 11.3577C18.2486 14.3585 18.2817 17.3627 18.2718 20.3669C18.2718 22.7961 17.5606 23.5548 15.2518 23.5718C12.0014 23.5922 8.75104 23.5922 5.50065 23.5718C3.57556 23.5718 2.58654 22.694 2.58985 21.1256C2.59316 19.5571 3.59871 18.6896 5.50395 18.6794C8.0939 18.6453 10.6805 18.6725 13.5351 18.6725Z" fill="white"/>
<path d="M0.0849604 26.1099C-0.454198 24.2557 0.746498 24.5279 1.72228 24.5279C19.6347 24.5143 37.5471 24.5041 55.4595 24.4973C58.2115 24.4973 60.9668 24.5347 63.7288 24.4769C64.9295 24.4531 65.171 24.9634 64.8005 26.1099H0.0849604Z" fill="white"/>
<path d="M12.4434 5.15543C12.4592 6.17267 12.1804 7.17174 11.6425 8.0255C11.1045 8.87925 10.3318 9.5491 9.4227 9.94981C8.51355 10.3505 7.50905 10.464 6.53703 10.2757C5.56501 10.0875 4.66941 9.60606 3.96419 8.89271C3.25897 8.17936 2.77602 7.26635 2.57678 6.26984C2.37755 5.27332 2.47104 4.23839 2.84537 3.29669C3.2197 2.35499 3.85793 1.54909 4.67886 0.981607C5.49979 0.414121 6.46631 0.110667 7.45541 0.109863C8.76001 0.123468 10.0087 0.656827 10.9389 1.59777C11.8691 2.53871 12.4084 3.81396 12.4434 5.15543Z" fill="white"/>
</g>
<defs>
<clipPath id="clip0_358_1666">
<rect width="65" height="26" fill="white"/>
</clipPath>
</defs>
</svg>
