<svg width="42" height="42" viewBox="0 0 42 42" fill="none" xmlns="http://www.w3.org/2000/svg">
<g clip-path="url(#clip0_358_1675)">
<path d="M7.56431 0.105591C8.43229 0.57371 9.30027 1.0334 9.48368 2.13622C9.69694 3.36767 8.92066 4.85426 7.69013 5.41727L12.1089 7.39096L12.2476 7.28553L11.3817 6.08993L12.5013 5.09043L15.3292 8.21334L14.2373 9.19596L13.0793 8.24496C15.3058 13.6094 14.4292 17.7676 8.40883 19.5389C5.10538 20.511 1.72303 18.4382 0.460514 15.2942C-0.108536 13.9257 -0.211102 12.4111 0.168345 10.9799C0.552218 9.51859 1.26025 8.18803 2.51424 7.35089C3.70424 6.56015 5.07339 6.03089 6.32524 5.40462C5.35063 4.71298 4.49759 3.83156 4.57863 2.43564C4.65754 1.12617 5.59588 0.537863 6.69632 0.105591H7.56431ZM2.0024 12.7279C2.01216 13.717 2.31841 14.6809 2.88237 15.4978C3.44633 16.3147 4.24267 16.9479 5.17065 17.3172C6.09863 17.6865 7.11653 17.7753 8.0956 17.5725C9.07466 17.3696 9.97088 16.8842 10.6709 16.1777C11.3709 15.4711 11.8431 14.5751 12.028 13.6031C12.2129 12.631 12.102 11.6266 11.7094 10.7169C11.3167 9.80719 10.6601 9.03306 9.8224 8.49245C8.98472 7.95184 8.0037 7.66904 7.00343 7.67984C6.33909 7.68534 5.68236 7.82056 5.07102 8.07774C4.45969 8.33491 3.90577 8.70899 3.44107 9.17846C2.97637 9.64792 2.61006 10.2035 2.36317 10.8134C2.11628 11.4232 1.99367 12.0753 2.0024 12.7322V12.7279ZM7.04821 3.62914C7.80956 3.60384 8.77564 3.90116 8.75431 2.60223C8.73523 2.16598 8.54766 1.75356 8.23027 1.44993C7.91287 1.1463 7.48982 0.97458 7.04821 0.97013C6.60771 0.985513 6.19075 1.17054 5.88633 1.48572C5.58191 1.8009 5.41415 2.22126 5.41888 2.65705C5.39329 3.94965 6.35297 3.57853 7.04821 3.63335V3.62914Z" fill="white"/>
<path d="M33.0299 0.105591C34.6742 0.763488 35.9921 1.71871 36.2438 3.61649C36.5381 5.83479 35.1775 7.71358 32.9808 8.1817C30.9293 8.61819 28.8137 7.31083 28.2443 5.2549C27.9784 4.26353 28.1 3.20949 28.585 2.30283C29.0699 1.39618 29.8826 0.703502 30.861 0.362839C31.0892 0.280602 31.3153 0.192045 31.5435 0.105591H33.0299Z" fill="white"/>
<path d="M25.7712 10.826C24.5236 10.826 23.4637 10.7838 22.4102 10.8534C22.051 10.9183 21.7313 11.1186 21.5187 11.4122C20.2924 13.078 19.1152 14.786 17.9103 16.4624C17.2129 17.4323 16.3556 17.6769 15.5857 17.1498C14.8159 16.6226 14.7327 15.7054 15.3959 14.7523C16.94 12.5382 18.4754 10.3241 20.0749 8.14166C20.3308 7.79584 20.9109 7.68619 21.3545 7.47111C21.3822 7.45635 21.4249 7.47111 21.459 7.47111C25.4982 6.92708 29.0874 7.93501 32.3354 10.3684C33.615 11.3299 35.1078 12.0195 36.7393 12.9684C37.5369 12.0996 38.3196 11.1971 39.1577 10.3515C39.9297 9.56922 40.851 9.50807 41.4908 10.1407C42.1775 10.8028 42.1092 11.6968 41.2775 12.5192C39.9233 13.8498 38.5264 15.1381 37.2021 16.4961C36.7222 16.9895 36.3874 16.9537 35.8628 16.6058C34.5469 15.737 33.1949 14.9188 31.7553 14.0206C30.6037 15.9858 29.4926 17.8773 28.3837 19.7708C27.1745 21.8394 27.1766 21.8394 28.8571 23.6023C30.3094 25.1289 31.7809 26.6408 33.1884 28.2096C33.3102 28.3717 33.3927 28.5591 33.4296 28.7576C33.4666 28.9561 33.4571 29.1604 33.4017 29.3546C31.9089 32.8613 30.3713 36.3448 28.8294 39.8304C28.6423 40.2444 28.4099 40.6368 28.1363 41.0007C27.2832 42.1309 26.0783 42.4261 24.9821 41.7999C23.8859 41.1736 23.5554 39.9632 24.1546 38.6854C25.4065 36.0285 26.6626 33.3716 27.9763 30.7442C28.3069 30.0842 28.2152 29.7258 27.6671 29.2555C26.1508 27.9482 24.6942 26.5754 23.116 25.1394C21.9666 26.9866 20.7702 28.7115 19.7892 30.5566C19.096 31.866 18.2579 32.3215 16.7459 32.2688C13.0735 32.1359 9.39259 32.2372 5.71593 32.2182C4.15058 32.2182 3.44256 31.4612 3.48735 29.9451C3.53 28.5407 4.2359 27.8912 5.83324 27.8765C8.5886 27.8533 11.3482 27.809 14.1036 27.8976C15.2658 27.9355 15.912 27.5918 16.5049 26.5691C19.3242 21.6876 22.2417 16.8693 25.1229 12.0195C25.3105 11.6779 25.4854 11.3405 25.7712 10.826Z" fill="white"/>
<path d="M9.9995 14.6701C9.03769 14.4487 7.81144 14.2483 6.65342 13.8561C6.28021 13.7296 5.85793 13.0928 5.86433 12.6964C5.87073 12.3 6.30365 11.7243 6.69179 11.564C7.02448 11.427 7.72398 11.6231 7.97137 11.9141C8.76897 12.8377 9.42796 13.8751 9.9995 14.6701Z" fill="white"/>
</g>
<defs>
<clipPath id="clip0_358_1675">
<rect width="42" height="42" fill="white"/>
</clipPath>
</defs>
</svg>
