<svg width="11" height="22" viewBox="0 0 11 22" fill="none" xmlns="http://www.w3.org/2000/svg">
<path d="M8.75289 21.409L8.75213 21.4083L1.62099 14.2771C1.62091 14.2771 1.62084 14.277 1.62076 14.2769C1.19004 13.8472 0.848312 13.3368 0.615133 12.7748C0.381911 12.2128 0.261862 11.6103 0.261862 11.0018C0.261862 10.3933 0.381911 9.79073 0.615133 9.22869C0.848327 8.66671 1.19009 8.15626 1.62084 7.72655C1.62089 7.7265 1.62094 7.72645 1.62099 7.7264L8.75214 0.595264L8.91714 0.760268L8.75214 0.595263C8.85784 0.489562 8.98332 0.405716 9.12143 0.34851C9.25954 0.291305 9.40756 0.261862 9.55704 0.261862C9.70653 0.261862 9.85455 0.291305 9.99265 0.348511C10.1308 0.405716 10.2562 0.489563 10.3619 0.595264C10.4676 0.700964 10.5515 0.826451 10.6087 0.964559C10.6659 1.10266 10.6953 1.25068 10.6953 1.40017C10.6953 1.54965 10.6659 1.69767 10.6087 1.83578C10.5515 1.97389 10.4676 2.09937 10.3619 2.20507L3.23068 9.33633C2.78934 9.77822 2.54144 10.3772 2.54144 11.0018C2.54144 11.6263 2.7893 12.2252 3.23057 12.6671L8.75289 21.409ZM8.75289 21.409C8.85892 21.5142 8.98467 21.5974 9.12292 21.6539C9.26071 21.7101 9.40821 21.7388 9.55704 21.7381M8.75289 21.409L3.23068 12.6672L10.3612 19.7977C10.3613 19.7978 10.3614 19.798 10.3616 19.7981C10.4677 19.9035 10.552 20.0289 10.6096 20.167C10.6672 20.3053 10.6968 20.4536 10.6968 20.6034C10.6968 20.7532 10.6672 20.9015 10.6096 21.0398C10.552 21.178 10.4675 21.3035 10.3612 21.409C10.2552 21.5142 10.1294 21.5974 9.99116 21.6539C9.85338 21.7101 9.70587 21.7388 9.55704 21.7381M9.55704 21.7381C9.55654 21.7381 9.55603 21.7381 9.55552 21.7381L9.55704 21.4762L9.55856 21.7381C9.55805 21.7381 9.55755 21.7381 9.55704 21.7381Z" fill="#030303" stroke="black" stroke-width="0.5"/>
</svg>
