<svg width="95" height="52" viewBox="0 0 95 52" fill="none" xmlns="http://www.w3.org/2000/svg">
<path d="M9.9874 52.0001C9.10787 51.9995 8.25168 51.717 7.54445 51.194C6.83723 50.6711 6.31619 49.9352 6.05776 49.0943L0.180029 29.8927C0.0220826 29.3769 -0.0327274 28.835 0.0187356 28.298C0.0701987 27.7611 0.226922 27.2395 0.479957 26.7631C0.732991 26.2867 1.07739 25.8649 1.49346 25.5216C1.90953 25.1784 2.38913 24.9204 2.90488 24.7626L83.1916 0.179026C84.2332 -0.138845 85.3582 -0.0304333 86.3199 0.480462C87.2816 0.991358 88.0013 1.863 88.3211 2.90407L94.1989 22.106C94.5165 23.1476 94.408 24.2728 93.8972 25.2346C93.3864 26.1964 92.5151 26.9162 91.4742 27.2363L11.1873 51.8198C10.7985 51.9392 10.3941 51.9999 9.9874 52.0001Z" fill="#056AFF"/>
</svg>
