<svg width="28" height="28" viewBox="0 0 28 28" fill="none" xmlns="http://www.w3.org/2000/svg">
<path fill-rule="evenodd" clip-rule="evenodd" d="M2.625 5.83333C2.625 4.06142 4.06142 2.625 5.83333 2.625H7.875C8.35825 2.625 8.75 3.01675 8.75 3.5C8.75 3.98325 8.35825 4.375 7.875 4.375H5.83333C5.02791 4.375 4.375 5.02791 4.375 5.83333V7.875C4.375 8.35825 3.98325 8.75 3.5 8.75C3.01675 8.75 2.625 8.35825 2.625 7.875V5.83333ZM22.1667 4.375H20.125C19.6418 4.375 19.25 3.98325 19.25 3.5C19.25 3.01675 19.6418 2.625 20.125 2.625H22.1667C23.9386 2.625 25.375 4.06142 25.375 5.83333V7.875C25.375 8.35825 24.9832 8.75 24.5 8.75C24.0168 8.75 23.625 8.35825 23.625 7.875V5.83333C23.625 5.02791 22.9721 4.375 22.1667 4.375ZM3.5 19.25C3.98325 19.25 4.375 19.6418 4.375 20.125V22.1667C4.375 22.9721 5.02791 23.625 5.83333 23.625H7.875C8.35825 23.625 8.75 24.0168 8.75 24.5C8.75 24.9832 8.35825 25.375 7.875 25.375H5.83333C4.06142 25.375 2.625 23.9386 2.625 22.1667V20.125C2.625 19.6418 3.01675 19.25 3.5 19.25ZM23.625 22.1667V20.125C23.625 19.6418 24.0168 19.25 24.5 19.25C24.9832 19.25 25.375 19.6418 25.375 20.125V22.1667C25.375 23.9386 23.9386 25.375 22.1667 25.375H20.125C19.6418 25.375 19.25 24.9832 19.25 24.5C19.25 24.0168 19.6418 23.625 20.125 23.625H22.1667C22.9721 23.625 23.625 22.9721 23.625 22.1667ZM19.8333 10.8281C19.8333 11.3114 19.4416 11.7031 18.9583 11.7031H9.04167C8.55842 11.7031 8.16667 11.3114 8.16667 10.8281C8.16667 10.3449 8.55842 9.95312 9.04167 9.95312H18.9583C19.4416 9.95312 19.8333 10.3449 19.8333 10.8281Z" fill="#056AFF"/>
<path d="M9.04167 14.6562H18.9583C19.4416 14.6562 19.8333 14.2645 19.8333 13.7812C19.8333 13.298 19.4416 12.9062 18.9583 12.9062H9.04167C8.55842 12.9062 8.16667 13.298 8.16667 13.7812C8.16667 14.2645 8.55842 14.6562 9.04167 14.6562Z" fill="#056AFF"/>
<path d="M9.04167 17.7188H14.6927C15.176 17.7188 15.5677 17.327 15.5677 16.8438C15.5677 16.3605 15.176 15.9688 14.6927 15.9688H9.04167C8.55842 15.9688 8.16667 16.3605 8.16667 16.8438C8.16667 17.327 8.55842 17.7188 9.04167 17.7188Z" fill="#056AFF"/>
</svg>
