<svg width="30" height="24" viewBox="0 0 30 24" fill="none" xmlns="http://www.w3.org/2000/svg">
<g clip-path="url(#clip0_348_2631)">
<path d="M0 0.653738C0.226518 0.16305 0.606108 -0.0296367 1.13955 0.00468804C1.59181 0.033552 2.04794 0.0101494 2.50174 0.0101494C3.20372 0.0101494 3.53615 0.341693 3.53692 1.04223C3.53692 2.14374 3.53692 3.24551 3.53692 4.34754V4.68377H5.25707V8.78401H3.53692V9.50951C3.53692 10.494 3.53692 11.4788 3.53692 12.4638C3.53692 13.1245 3.19367 13.4654 2.5319 13.467C2.07731 13.467 1.62196 13.4436 1.1697 13.4732C0.628529 13.5083 0.232703 13.3297 0.000773853 12.8234L0 0.653738Z" fill="#056AFF"/>
<path d="M29.6871 12.8243C29.4551 13.3306 29.0601 13.5077 28.5205 13.4741C28.0396 13.4445 27.5556 13.4741 27.0732 13.4671C26.5127 13.4617 26.1532 13.0981 26.1517 12.531C26.1517 11.4014 26.1517 10.2687 26.1517 9.14143V8.79194H24.4269V4.70652H26.1517V4.36717C26.1517 3.24694 26.1517 2.12696 26.1517 1.00725C26.1517 0.361322 26.4957 0.0126125 27.132 0.0110523C27.5958 0.0110523 28.0597 0.0336764 28.5235 0.00481248C29.0647 -0.0302923 29.4598 0.147573 29.6902 0.653862L29.6871 12.8243Z" fill="#056AFF"/>
<path d="M10.4947 19.9014C9.44562 19.8 8.54341 19.4177 7.79738 18.6961C6.91759 17.8458 6.4545 16.8005 6.43982 15.5757C6.42435 14.2979 6.43054 13.0208 6.43982 11.743C6.44755 10.3942 7.45489 9.38243 8.79776 9.37775C10.6919 9.37151 12.5859 9.37775 14.48 9.37775C15.0629 9.37775 15.4178 9.73816 15.4255 10.3232C15.451 12.2064 14.2141 13.471 12.3463 13.4725C11.9404 13.4725 11.5345 13.4725 11.1287 13.4725C10.5682 13.4788 10.2133 13.8423 10.2079 14.4133C10.2043 14.7644 10.2043 15.1154 10.2079 15.4665C10.2141 15.9946 10.5682 16.3831 11.0513 16.3971C11.5345 16.4112 11.9219 16.0188 11.9458 15.4813C11.9458 15.4033 11.9458 15.3307 11.9458 15.227H12.9508C14.613 15.227 15.8577 14.5031 16.6957 13.0544C16.725 13.0105 16.763 12.9733 16.8074 12.9451C16.8517 12.9169 16.9013 12.8983 16.9532 12.8906C17.5233 12.853 18.0793 12.6951 18.5852 12.4272C18.6325 12.4023 18.6844 12.3876 18.7376 12.384C18.7908 12.3804 18.8442 12.3879 18.8944 12.4061C20.1314 13.0588 21.3585 13.05 22.5759 12.3796C22.6011 12.3726 22.6271 12.3686 22.6532 12.3679C22.6594 12.4506 22.6702 12.5317 22.6702 12.6129C22.6702 13.549 22.6702 14.4851 22.6702 15.4212C22.6702 17.5275 21.3908 19.218 19.3846 19.7735C19.3297 19.7891 19.2748 19.8023 19.1913 19.8249V20.1424C19.1913 21.1074 19.1913 22.0732 19.1913 23.0382C19.1913 23.6443 18.8357 24.0024 18.2357 24.0032C15.9747 24.0032 13.7134 24.0032 11.4518 24.0032C10.8511 24.0032 10.497 23.6451 10.4955 23.0398C10.4932 22.003 10.4947 20.9701 10.4947 19.9014Z" fill="#030303"/>
<path d="M10.9242 4.06519C11.2334 2.9902 11.8681 2.40512 12.7611 2.35442C13.722 2.30059 14.3776 2.80376 14.8484 3.98094C15.1809 2.87787 15.8805 2.28031 17.0232 2.37002C17.8952 2.43867 18.492 3.04949 18.7526 4.06051C18.7866 3.94662 18.8121 3.86548 18.8353 3.78435C18.9624 3.32919 19.2475 2.93536 19.6386 2.67481C20.0297 2.41426 20.5007 2.30437 20.9654 2.36523C21.4301 2.42608 21.8577 2.65362 22.1699 3.00627C22.4821 3.35891 22.6582 3.81314 22.666 4.28596C22.6791 5.90469 22.676 7.52341 22.666 9.14213C22.6697 9.62528 22.4974 10.093 22.1818 10.4564C21.8663 10.8198 21.4295 11.0536 20.9544 11.1135C20.0058 11.2484 19.0989 10.6275 18.8237 9.657C18.8028 9.58367 18.7812 9.5119 18.751 9.40737C18.5577 10.306 18.0552 10.8669 17.16 11.0971C17.16 10.8014 17.16 10.5424 17.16 10.2834C17.1461 8.78016 16.0235 7.63106 14.5384 7.62014C12.5863 7.60922 10.6343 7.59752 8.68297 7.63106C8.13484 7.6412 7.58981 7.81049 7.02467 7.91034C7.02467 7.87992 7.01462 7.78786 7.01462 7.69659C7.01462 6.63357 7.01462 5.57054 7.01462 4.50751C7.01462 3.33735 7.68104 2.50264 8.73168 2.36534C9.61533 2.25456 10.6598 2.77021 10.9242 4.06519Z" fill="#030303"/>
</g>
<defs>
<clipPath id="clip0_348_2631">
<rect width="29.6251" height="23.95" fill="white" transform="scale(1.00209)"/>
</clipPath>
</defs>
</svg>
