<svg width="16" height="16" viewBox="0 0 16 16" fill="none" xmlns="http://www.w3.org/2000/svg">
<path fill-rule="evenodd" clip-rule="evenodd" d="M9.39958 1.594C9.88835 1.115 10.5464 0.848262 11.2308 0.851749C11.9151 0.855236 12.5704 1.12867 13.0543 1.61262C13.5381 2.09658 13.8115 2.75194 13.8148 3.43629C13.8182 4.12063 13.5513 4.77865 13.0722 5.26733L8.00958 10.33C7.72424 10.6153 7.54958 10.79 7.35624 10.9413C7.12731 11.1197 6.87962 11.2726 6.61758 11.3973C6.39491 11.5033 6.16091 11.5813 5.77824 11.7087L3.99691 12.3027L3.56891 12.4453C3.38114 12.5081 3.17962 12.5172 2.98693 12.4718C2.79425 12.4264 2.61803 12.3282 2.47804 12.1882C2.33806 12.0482 2.23985 11.872 2.19443 11.6793C2.14901 11.4866 2.15818 11.2851 2.22091 11.0973L2.95758 8.888C3.08491 8.50533 3.16291 8.27133 3.26891 8.04867C3.39387 7.78681 3.547 7.53935 3.72558 7.31067C3.87691 7.11667 4.05091 6.942 4.33624 6.65733L9.39958 1.594ZM3.97291 11.256L3.41024 10.6927L3.89558 9.236C4.03691 8.812 4.09558 8.63933 4.17158 8.47933C4.26491 8.28267 4.38024 8.09733 4.51358 7.926C4.62291 7.786 4.75091 7.65667 5.06691 7.34L8.99424 3.41333C9.19831 3.92316 9.50434 4.38595 9.89358 4.77333C10.281 5.16233 10.7438 5.46813 11.2536 5.672L7.32624 9.59867C7.00958 9.91533 6.88091 10.0433 6.74091 10.152C6.56928 10.2857 6.38377 10.4006 6.18758 10.4947C6.02758 10.5707 5.85424 10.6293 5.43024 10.7707L3.97358 11.2567L3.97291 11.256ZM12.0502 4.87467C11.9475 4.85197 11.8462 4.82325 11.7469 4.78867C11.3149 4.63764 10.9229 4.39055 10.6002 4.066C10.2758 3.74329 10.0287 3.35125 9.87758 2.91933C9.84277 2.82001 9.81383 2.71872 9.79091 2.616L10.1062 2.30133C10.4074 2.00988 10.8111 1.84847 11.2302 1.85191C11.6492 1.85535 12.0502 2.02336 12.3465 2.3197C12.6429 2.61605 12.8109 3.017 12.8143 3.43609C12.8178 3.85518 12.6564 4.25883 12.3649 4.56L12.0502 4.87467ZM2.16624 14.6667C2.16624 14.5341 2.21892 14.4069 2.31269 14.3131C2.40646 14.2193 2.53363 14.1667 2.66624 14.1667H13.3329V15.1667H2.66624C2.53363 15.1667 2.40646 15.114 2.31269 15.0202C2.21892 14.9265 2.16624 14.7993 2.16624 14.6667Z" fill="#056AFF"/>
</svg>
