<svg width="16" height="16" viewBox="0 0 16 16" fill="none" xmlns="http://www.w3.org/2000/svg">
<g clip-path="url(#clip0_2318_2585)">
<path d="M0.5 8C0.5 12.15 3.85 15.5 8 15.5C12.15 15.5 15.5 12.15 15.5 8C15.5 3.85 12.15 0.5 8 0.5C3.85 0.5 0.5 3.85 0.5 8Z" fill="#FFDD67"/>
<path d="M11.9248 9.39999C11.9248 11.55 14.8498 11.55 14.8498 9.39999C14.8498 7.82499 13.3998 6.29999 13.3998 6.29999C13.3998 6.29999 11.9248 7.82499 11.9248 9.39999Z" fill="#65B1EF"/>
<path d="M9.625 10C10.3154 10 10.875 9.44036 10.875 8.75C10.875 8.05964 10.3154 7.5 9.625 7.5C8.93464 7.5 8.375 8.05964 8.375 8.75C8.375 9.44036 8.93464 10 9.625 10Z" fill="#664E27"/>
<path d="M3.875 10C4.56536 10 5.125 9.44036 5.125 8.75C5.125 8.05964 4.56536 7.5 3.875 7.5C3.18464 7.5 2.625 8.05964 2.625 8.75C2.625 9.44036 3.18464 10 3.875 10Z" fill="#664E27"/>
<path d="M5.15034 4.97503C4.35034 5.65003 3.27534 5.95003 2.22534 5.75003C2.07534 5.72503 1.95034 6.25003 2.12534 6.30003C3.32534 6.52503 4.57534 6.17503 5.50034 5.40003C5.62534 5.27503 5.25034 4.87503 5.15034 4.97503ZM11.2753 5.72503C10.2253 5.90003 9.15034 5.62503 8.35034 4.95003C8.25034 4.85003 7.85034 5.25003 8.00034 5.37503C8.92534 6.17503 10.1753 6.50003 11.3753 6.27503C11.5503 6.22503 11.4253 5.70003 11.2753 5.72503Z" fill="#917524"/>
<path d="M9.52504 11.825C8.07504 11.45 6.52504 11.725 5.30004 12.575C5.00004 12.8 5.57504 13.575 5.87504 13.375C6.67504 12.8 7.97504 12.425 9.30004 12.775C9.62504 12.85 9.90004 11.95 9.52504 11.825Z" fill="#664E27"/>
</g>
<defs>
<clipPath id="clip0_2318_2585">
<rect width="16" height="16" fill="white"/>
</clipPath>
</defs>
</svg>
