<svg width="19" height="19" viewBox="0 0 19 19" fill="none" xmlns="http://www.w3.org/2000/svg">
<path d="M13.8575 10.7198V13.3345C13.8575 16.8206 12.4631 18.2151 8.9769 18.2151H5.66504C2.17886 18.2151 0.78439 16.8206 0.78439 13.3345V10.0226C0.78439 6.53641 2.17886 5.14194 5.66504 5.14194H8.27967" stroke="#BBBBBB" stroke-width="1.5" stroke-linecap="round" stroke-linejoin="round"/>
<path d="M13.8569 10.7198H11.0679C8.97622 10.7198 8.27899 10.0226 8.27899 7.93088V5.14194L13.8569 10.7198Z" stroke="#BBBBBB" stroke-width="1.5" stroke-linecap="round" stroke-linejoin="round"/>
<path d="M9.15019 0.78439H12.6364" stroke="#BBBBBB" stroke-width="1.5" stroke-linecap="round" stroke-linejoin="round"/>
<path d="M5.14143 3.39902C5.14143 1.95226 6.3093 0.78439 7.75606 0.78439H10.0395" stroke="#BBBBBB" stroke-width="1.5" stroke-linecap="round" stroke-linejoin="round"/>
<path d="M18.2155 6.01365V11.4085C18.2155 12.7594 17.1173 13.8575 15.7664 13.8575" stroke="#BBBBBB" stroke-width="1.5" stroke-linecap="round" stroke-linejoin="round"/>
<path d="M18.2146 6.01365H15.6C13.639 6.01365 12.9853 5.36 12.9853 3.39902V0.78439L18.2146 6.01365Z" stroke="#BBBBBB" stroke-width="1.5" stroke-linecap="round" stroke-linejoin="round"/>
</svg>
