<svg width="40" height="45" viewBox="0 0 40 45" fill="none" xmlns="http://www.w3.org/2000/svg">
<g clip-path="url(#clip0_348_3069)">
<path d="M2.65234 17.0112C4.59862 17.0955 6.35518 17.2114 8.11387 17.2409C10.3842 17.2789 12.6587 17.2198 14.9354 17.2536C16.5411 17.2958 18.1237 16.8684 19.4846 16.0249C19.6558 15.9475 19.8426 15.9094 20.0309 15.9134C20.2191 15.9174 20.404 15.9635 20.5718 16.0481C21.9055 16.8676 23.4507 17.2877 25.0207 17.2578C27.9668 17.2346 30.9128 17.2831 33.8589 17.2367C34.9759 17.2177 36.0887 17.026 37.2868 16.9016C37.2042 17.1781 37.1038 17.4491 36.9862 17.713C36.4575 18.7435 35.9736 19.8078 35.3554 20.7856C33.4238 23.7646 32.4893 27.269 32.6843 30.8022C32.8975 34.9307 33.2428 39.055 33.6159 43.1729C33.7587 44.7261 33.6415 44.9979 32.0704 44.9979C24.0096 44.9979 15.9502 44.9979 7.89217 44.9979C6.39995 44.9979 6.16546 44.7029 6.39995 43.2277C7.29741 37.7336 7.76853 32.2037 6.97125 26.6717C6.72824 24.9857 5.86488 23.3672 5.14222 21.7824C4.39184 20.1344 3.4688 18.5623 2.65234 17.0112ZM20.883 21.9489C20.883 21.5274 20.9917 21.0659 20.851 20.6992C20.7253 20.3747 20.2882 19.911 20.0516 19.9447C19.7105 19.9911 19.3034 20.3789 19.152 20.7203C19.0007 21.0617 19.1051 21.5464 19.103 21.9679C19.103 23.9278 18.5914 24.4968 16.5833 24.5938C15.7722 24.6496 14.9577 24.5567 14.1808 24.3198C13.6585 24.1406 13.294 23.5337 12.825 23.1628C12.484 22.9237 12.128 22.7062 11.7592 22.5116C11.5311 22.8931 11.0877 23.2892 11.1196 23.6538C11.1942 24.6886 11.9361 25.3398 12.8442 25.7613C15.0442 26.7328 17.2569 26.7391 19.395 25.599C19.864 25.3503 20.1326 25.3461 20.6037 25.599C22.7035 26.7265 24.8864 26.7265 27.0608 25.8097C27.9753 25.4262 28.7321 24.7792 28.86 23.7592C28.909 23.382 28.5168 22.95 28.3249 22.5432C27.9233 22.7231 27.5369 22.9345 27.1695 23.1755C26.7218 23.5211 26.3978 24.1343 25.9075 24.2924C25.0975 24.5398 24.2489 24.6405 23.4027 24.5895C21.3754 24.4799 20.8873 23.913 20.883 21.9489ZM23.245 34.2964C24.2682 33.9866 25.2616 33.8138 26.1186 33.3754C26.6887 33.0405 27.1297 32.5274 27.372 31.9171C27.5063 31.5862 27.2271 30.8486 26.903 30.6337C26.3765 30.2859 25.9779 30.6884 25.6986 31.249C25.0975 32.4587 21.8615 32.6863 21.0685 31.5904C20.9528 31.3792 20.8961 31.1413 20.9043 30.9013C20.8809 30.3765 21.0109 29.8118 20.8532 29.3376C20.7295 28.9667 20.2648 28.7053 19.9536 28.3998C19.6743 28.7032 19.2458 28.9646 19.152 29.3165C19.0113 29.8413 19.152 30.4355 19.0817 30.9856C19.0362 31.3133 18.8709 31.6132 18.617 31.8286C17.2825 32.76 15.1145 32.2964 14.1616 30.9856C14.0445 30.8484 13.896 30.7407 13.7285 30.6715C13.5609 30.6022 13.3791 30.5734 13.1981 30.5873C12.9188 30.6568 12.4989 31.1858 12.5586 31.3755C12.7717 32.0077 13.0169 32.8507 13.52 33.1057C14.4835 33.6115 15.6283 34.014 16.7005 34.0203C17.7728 34.0266 18.8642 33.2405 19.9301 33.2764C21.0386 33.3227 22.1322 33.9297 23.245 34.2964ZM22.9082 41.9822C23.9378 41.5881 24.9482 41.35 25.7817 40.8273C26.2294 40.5491 26.4596 39.8199 26.6131 39.2488C26.6664 39.0381 26.2507 38.5766 25.9608 38.4712C25.7263 38.3848 25.1785 38.585 25.0783 38.8C24.4558 40.1424 23.3004 39.9843 22.177 39.879C21.2902 39.7947 20.7764 39.3942 20.8702 38.3658C20.9363 37.6683 21.207 36.585 20.0346 36.5661C18.7555 36.5471 19.2309 37.6788 19.0881 38.4017C19.0028 38.8231 18.8749 39.4216 18.5765 39.6176C17.3976 40.3658 15.8414 39.9485 14.9717 38.8568C14.7777 38.6145 14.2405 38.3848 14.0103 38.4859C13.7097 38.6145 13.3175 39.1645 13.3942 39.3858C13.6074 39.9738 13.9165 40.6987 14.4153 40.9748C15.1827 41.3963 16.1633 41.7588 17.0096 41.6787C18.9921 41.489 20.9491 40.8294 22.9082 41.9822Z" fill="#056AFF"/>
<path d="M20.0609 2.42382C21.4338 0.607217 23.2585 -0.0207958 25.4116 0.00238595C29.7433 0.0445346 34.0771 0.00240036 38.4152 0.0171524C39.803 0.0171524 39.9991 0.227888 40.0012 1.61669C40.0012 4.2847 40.0162 6.9527 40.0012 9.62493C39.9799 13.1233 37.6734 15.4246 34.124 15.4625C31.2483 15.4941 28.3683 15.433 25.4947 15.4857C23.2948 15.5258 21.4444 14.9104 20.0012 12.9568C18.315 15.4689 15.7804 15.5384 13.1647 15.4857C10.7857 15.4288 8.40456 15.4857 6.02554 15.4667C2.33976 15.4435 0.031083 13.1654 0.0161608 9.54696C0.00763388 6.84382 0.00763388 4.13999 0.0161608 1.43545C0.0161608 0.27847 0.28263 0.0255883 1.47001 0.0234809C6.01772 0.0234809 10.5654 0.0234809 15.1132 0.0234809C17.0871 0.0234809 18.0827 0.51449 20.0609 2.42382Z" fill="#056AFF"/>
</g>
<defs>
<clipPath id="clip0_348_3069">
<rect width="40" height="45" fill="white"/>
</clipPath>
</defs>
</svg>
