<svg width="21" height="27" viewBox="0 0 21 27" fill="none" xmlns="http://www.w3.org/2000/svg">
<path d="M9.3067 16.4347C7.44532 14.5564 8.53113 9.78249 9.3067 7.63031C10.8578 8.80422 14.658 11.739 17.4501 14.0868C20.9402 17.0216 15.1234 23.4781 12.215 24.6521C9.88822 25.5912 5.04087 22.3042 2.90803 20.5434C5.04092 19.9564 9.3067 18.3129 9.3067 16.4347Z" fill="#056AFF"/>
<path d="M20.2647 14.2922C18.2094 8.91979 10.8916 8.6301 12.6589 0.821719C12.7898 0.242345 12.1745 -0.205353 11.6771 0.0975017C6.92508 2.91537 3.50836 8.56427 6.37526 15.9645C6.61089 16.5702 5.90399 17.1364 5.39344 16.7413C3.02399 14.9374 2.77527 12.3434 2.98472 10.4867C3.06327 9.80202 2.17309 9.47283 1.79345 10.039C0.903271 11.4085 0 13.6206 0 16.952C0.497453 24.3259 6.68944 26.5907 8.91489 26.8804C12.096 27.2886 15.5389 26.6961 18.0131 24.4181C20.736 21.8767 21.7309 17.8211 20.2647 14.2922ZM8.11635 20.9155C10.0014 20.4546 10.9702 19.0852 11.232 17.8738C11.664 15.9908 9.97525 14.1473 11.1142 11.1715C11.5462 13.6338 15.3949 15.1744 15.3949 17.8606C15.4996 21.192 11.9127 24.0494 8.11635 20.9155Z" fill="#030303"/>
</svg>
