<svg width="24" height="24" viewBox="0 0 24 24" fill="none" xmlns="http://www.w3.org/2000/svg">
<g clip-path="url(#clip0_348_2149)">
<path d="M20.8067 4.29061C20.7138 4.1977 20.6035 4.124 20.4821 4.07372C20.3607 4.02344 20.2306 3.99756 20.0992 3.99756C19.9678 3.99756 19.8377 4.02344 19.7163 4.07372C19.5949 4.124 19.4846 4.1977 19.3917 4.29061C19.2988 4.38352 19.2251 4.49383 19.1748 4.61522C19.1245 4.73661 19.0986 4.86672 19.0986 4.99811C19.0986 5.12951 19.1245 5.25962 19.1748 5.38101C19.2251 5.5024 19.2988 5.6127 19.3917 5.70561C21.0586 7.37652 21.9948 9.64038 21.9948 12.0006C21.9948 14.3608 21.0586 16.6247 19.3917 18.2956C19.204 18.4833 19.0986 18.7378 19.0986 19.0031C19.0986 19.2685 19.204 19.523 19.3917 19.7106C19.5793 19.8983 19.8338 20.0037 20.0992 20.0037C20.3645 20.0037 20.619 19.8983 20.8067 19.7106C22.8485 17.6642 23.9951 14.8914 23.9951 12.0006C23.9951 9.10981 22.8485 6.33704 20.8067 4.29061Z" fill="#056AFF"/>
<path d="M18.1 7.29067C18.0071 7.19744 17.8967 7.12341 17.7752 7.07282C17.6537 7.02224 17.5234 6.99608 17.3918 6.99585C17.2602 6.99562 17.1298 7.02131 17.0081 7.07147C16.8864 7.12163 16.7758 7.19526 16.6825 7.28817C16.5893 7.38108 16.5153 7.49145 16.4647 7.61297C16.4141 7.73449 16.3879 7.86478 16.3877 7.99641C16.3875 8.12803 16.4132 8.25842 16.4633 8.38011C16.5135 8.50181 16.5871 8.61243 16.68 8.70567C17.5528 9.57976 18.043 10.7645 18.043 11.9997C18.043 13.2349 17.5528 14.4196 16.68 15.2937C16.5871 15.3869 16.5135 15.4975 16.4633 15.6192C16.4132 15.7409 16.3875 15.8713 16.3877 16.0029C16.3879 16.1346 16.4141 16.2648 16.4647 16.3864C16.5153 16.5079 16.5893 16.6183 16.6825 16.7112C16.8708 16.8988 17.126 17.004 17.3918 17.0035C17.5234 17.0033 17.6537 16.9771 17.7752 16.9265C17.8967 16.8759 18.0071 16.8019 18.1 16.7087C19.3473 15.4589 20.0479 13.7654 20.0479 11.9997C20.0479 10.234 19.3473 8.54042 18.1 7.29067Z" fill="#056AFF"/>
<path d="M13.82 0.200111C10.7793 0.771379 8.07468 2.48996 6.266 5.00011H5C3.67457 5.00223 2.40403 5.52969 1.4668 6.46691C0.529579 7.40414 0.00211562 8.67468 0 10.0001L0 14.0001C0.00211562 15.3255 0.529579 16.5961 1.4668 17.5333C2.40403 18.4705 3.67457 18.998 5 19.0001H6.266C8.07504 21.5099 10.7795 23.2284 13.82 23.8001C13.8796 23.8118 13.9403 23.8175 14.001 23.8171C14.2662 23.8171 14.5206 23.7118 14.7081 23.5242C14.8956 23.3367 15.001 23.0823 15.001 22.8171V1.18611C15.0014 1.03925 14.9694 0.894101 14.9073 0.760993C14.8453 0.627886 14.7546 0.510084 14.6419 0.415959C14.5292 0.321834 14.3971 0.253698 14.255 0.216392C14.113 0.179087 13.9644 0.173528 13.82 0.200111ZM13 21.5351C10.7944 20.832 8.89788 19.3914 7.629 17.4551C7.53834 17.3156 7.41432 17.201 7.26817 17.1215C7.12201 17.0421 6.95835 17.0003 6.792 17.0001H5C4.20435 17.0001 3.44129 16.684 2.87868 16.1214C2.31607 15.5588 2 14.7958 2 14.0001V10.0001C2 9.20446 2.31607 8.4414 2.87868 7.87879C3.44129 7.31618 4.20435 7.00011 5 7.00011H6.8C6.96617 7.00009 7.12971 6.95866 7.27585 6.87957C7.42198 6.80048 7.54611 6.68621 7.637 6.54711C8.90329 4.61135 10.7969 3.17006 13 2.46511V21.5351Z" fill="#056AFF"/>
</g>
<defs>
<clipPath id="clip0_348_2149">
<rect width="24" height="24" fill="white"/>
</clipPath>
</defs>
</svg>
