<svg width="18" height="18" viewBox="0 0 18 18" fill="none" xmlns="http://www.w3.org/2000/svg">
<g clip-path="url(#clip0_2311_1183)">
<path d="M13.125 10.1992C12.876 10.165 12.6258 10.1402 12.375 10.125C11.7783 10.125 11.206 10.362 10.784 10.784C10.3621 11.2059 10.125 11.7782 10.125 12.375V13.125H13.6328C13.7852 13.1249 13.9356 13.0897 14.0722 13.0221C14.2089 12.9545 14.3281 12.8563 14.4207 12.7351C14.5132 12.614 14.5766 12.4732 14.606 12.3235C14.6353 12.1739 14.6297 12.0196 14.5897 11.8725L13.5 7.82696M5.25 15.375H18M5.25 17.625C4.5 17.625 3.9375 16.5 3.9375 16.5C3.375 15.375 3.375 14.625 3.375 13.5V12.75L0.375 10.3125V10.125L1.71675 6.36822C1.87282 5.93121 2.16019 5.55315 2.53949 5.28583C2.91879 5.01851 3.37146 4.875 3.8355 4.87496H4.875V7.45947C4.87494 7.66757 4.9306 7.87189 5.0362 8.05122C5.1418 8.23054 5.29349 8.37832 5.4755 8.4792C5.65752 8.58008 5.86323 8.63039 6.07126 8.6249C6.27929 8.6194 6.48206 8.55831 6.6585 8.44796L9.375 6.74996M0.375 17.8125C0.375 17.8125 1.5 15.75 1.5 13.125M17.8875 10.7865C16.984 10.6808 16.081 10.5711 15.1785 10.4572L17.8875 10.7865ZM8.625 11.925C8.625 11.925 7.875 13.125 6.9375 13.125C6.5894 13.125 6.25556 12.9867 6.00942 12.7405C5.76328 12.4944 5.625 12.1606 5.625 11.8125C5.625 11.088 6.21225 10.503 6.9375 10.503C7.875 10.503 8.625 11.7 8.625 11.7V11.925ZM13.125 7.87496C12.7272 7.87496 12.3456 7.71693 12.0643 7.43562C11.783 7.15432 11.625 6.77279 11.625 6.37496C11.625 5.97714 11.783 5.59561 12.0643 5.3143C12.3456 5.033 12.7272 4.87496 13.125 4.87496C13.5228 4.87496 13.9044 5.033 14.1857 5.3143C14.467 5.59561 14.625 5.97714 14.625 6.37496C14.625 6.77279 14.467 7.15432 14.1857 7.43562C13.9044 7.71693 13.5228 7.87496 13.125 7.87496ZM5.325 3.37496C5.325 3.37496 4.125 2.62496 4.125 1.68746C4.125 1.33977 4.26312 1.00631 4.50898 0.760448C4.75484 0.514588 5.0883 0.376465 5.436 0.376465C5.7837 0.376465 6.11716 0.514588 6.36302 0.760448C6.60888 1.00631 6.747 1.33977 6.747 1.68746C6.747 2.62496 5.55 3.37496 5.55 3.37496H5.325Z" stroke="#056AFF"/>
</g>
<defs>
<clipPath id="clip0_2311_1183">
<rect width="18" height="18" fill="white"/>
</clipPath>
</defs>
</svg>
