<svg width="40" height="36" viewBox="0 0 40 36" fill="none" xmlns="http://www.w3.org/2000/svg">
<g clip-path="url(#clip0_358_1699)">
<path d="M14.4408 13.8277C13.6884 14.6519 12.9244 15.4651 12.1893 16.3032C11.5908 16.9845 10.8844 17.3134 9.97367 17.0081C9.09751 16.7139 8.77668 16.0562 8.69755 15.1931C8.52779 13.3351 8.3019 11.4826 8.09473 9.62742C8.07027 9.40263 8.01704 9.18062 7.97101 8.9253H5.413C5.413 9.9105 5.413 10.8679 5.413 11.8268C5.413 12.8258 5.23606 12.9854 4.20451 12.9882C2.10258 12.9882 2.23349 12.9965 2.24644 11.0983C2.24644 10.3906 2.24644 9.68154 2.24644 8.92252C1.23935 8.83926 -0.0554642 9.10568 -0.0468321 7.66396C-0.0367612 6.27636 1.21778 6.50531 2.25508 6.39847C2.25508 5.39384 2.25508 4.41142 2.25508 3.42899C2.25508 2.53537 2.41478 2.3869 3.33698 2.37719C3.52832 2.37719 3.71967 2.37719 3.91246 2.37719C5.38856 2.36886 5.42452 2.40494 5.42164 3.85915C5.42164 4.69171 5.42164 5.51456 5.42164 6.39985H7.67608C7.70342 6.26109 7.72499 6.13343 7.75808 6.003C7.98539 5.0955 8.6918 4.50994 9.56221 4.50023C9.99756 4.49336 10.4212 4.6362 10.7573 4.90317C11.0934 5.17013 11.32 5.54379 11.3965 5.95721C11.4886 6.37349 11.6584 6.48034 12.0598 6.46646C12.7511 6.42483 13.4445 6.42483 14.1358 6.46646C14.2884 6.48157 14.4362 6.52623 14.5704 6.59776C14.7047 6.66929 14.8226 6.76622 14.917 6.88274C17.3254 10.6418 22.5579 10.6293 24.9879 6.86748C25.0733 6.75702 25.1811 6.66449 25.3048 6.59555C25.4284 6.5266 25.5654 6.48268 25.7072 6.46646C26.4438 6.41651 27.1891 6.48588 27.9271 6.43732C28.0474 6.41345 28.16 6.36238 28.2558 6.28833C28.3516 6.21427 28.4278 6.11933 28.4782 6.01132C28.7918 5.05249 29.4579 4.48496 30.3485 4.49884C31.239 4.51271 31.8706 5.07053 32.1497 6.00438C32.2001 6.17506 32.4058 6.41234 32.5568 6.42067C33.1683 6.46784 33.7869 6.44009 34.4948 6.44009C34.4948 5.39523 34.4948 4.41419 34.4948 3.43316C34.4948 2.50763 34.6573 2.3647 35.6371 2.36747C37.7059 2.36747 37.6786 2.2079 37.6656 4.33093C37.6656 4.9956 37.6656 5.66026 37.6656 6.38043C38.6727 6.51919 40.015 6.27497 39.9503 7.74722C39.8913 9.06683 38.6857 8.85731 37.6685 8.90865C37.6685 9.90495 37.6685 10.8638 37.6685 11.8226C37.6685 12.8092 37.4901 12.9632 36.4471 12.9799C34.3408 13.0132 34.4933 12.9924 34.5005 11.0955C34.5005 10.3878 34.5005 9.68015 34.5005 8.88505C33.6905 8.88505 32.9769 8.84481 32.2749 8.91419C32.1037 8.93084 31.8634 9.29163 31.8433 9.51503C31.6059 11.4369 31.4203 13.3629 31.2016 15.2861C31.0491 16.6362 30.0089 17.3994 28.7889 17.0234C28.4127 16.8851 28.0762 16.6619 27.8077 16.3726C27.1013 15.6538 26.4453 14.8892 25.7648 14.1524C25.6468 14.0233 25.5072 13.9137 25.2857 13.7125C25.2684 13.9817 25.2512 14.1288 25.2512 14.2842C25.2512 16.1506 25.2627 18.0169 25.2397 19.8832C25.2397 20.3217 25.3835 20.5326 25.8151 20.6922C27.7933 21.4387 29.7528 22.2338 31.7325 22.9789C32.8115 23.3855 33.4345 24.0765 33.6028 25.1991C33.9984 27.8883 34.4559 30.5705 34.8544 33.2597C35.076 34.7611 34.2171 35.9086 32.8173 36.0835C31.462 36.2514 30.3182 35.3522 30.0837 33.9188C29.7428 31.8027 29.4032 29.6866 29.0925 27.5664C29.0234 27.0987 28.8292 26.8531 28.363 26.6797C26.6251 26.0358 24.9102 25.3393 23.1838 24.6746C22.9441 24.5745 22.6878 24.5167 22.427 24.5039C20.7783 24.49 19.1295 24.49 17.4808 24.5039C17.2439 24.5135 17.0108 24.5648 16.7931 24.6552C15.0177 25.3379 13.2539 26.0428 11.4699 26.713C11.0556 26.8684 10.9059 27.0974 10.8455 27.5136C10.5376 29.6103 10.1852 31.7014 9.86577 33.7981C9.7219 34.7514 9.3018 35.509 8.35226 35.9059C6.60425 36.6344 4.76992 35.2648 5.04327 33.3832C5.44035 30.608 5.90648 27.8328 6.33809 25.0576C6.49203 24.0863 7.04881 23.4271 7.99979 23.0608C9.99526 22.2921 11.9792 21.4956 13.9819 20.7449C14.461 20.5659 14.6235 20.3286 14.6149 19.836C14.5861 17.8573 14.6034 15.8772 14.6034 13.8985L14.4408 13.8277ZM11.995 11.0705L13.9013 8.95165H11.7562C11.8397 9.64546 11.9087 10.2685 11.9993 11.0705H11.995ZM25.9633 8.92391L27.9171 11.0913L28.1127 8.92391H25.9633Z" fill="white"/>
<path d="M20.0355 0.111198C20.5818 0.122769 21.1204 0.238008 21.6205 0.450333C22.1207 0.662658 22.5725 0.967904 22.9503 1.34866C23.3281 1.72941 23.6245 2.17821 23.8225 2.66943C24.0204 3.16065 24.1162 3.68467 24.1042 4.21157C24.0922 4.73846 23.9727 5.25792 23.7526 5.74029C23.5324 6.22265 23.2159 6.65846 22.8211 7.02285C22.4264 7.38724 21.961 7.67307 21.4517 7.86401C20.9424 8.05496 20.3991 8.14728 19.8528 8.13571C18.7495 8.11234 17.701 7.66721 16.938 6.89824C16.175 6.12927 15.76 5.09945 15.7842 4.03534C15.8084 2.97122 16.2699 1.95997 17.0672 1.22405C17.8645 0.488131 18.9322 0.0878291 20.0355 0.111198Z" fill="white"/>
</g>
<defs>
<clipPath id="clip0_358_1699">
<rect width="40" height="36" fill="white"/>
</clipPath>
</defs>
</svg>
