<svg width="20" height="20" viewBox="0 0 20 20" fill="none" xmlns="http://www.w3.org/2000/svg">
<path d="M15.5942 4.76008C15.4342 4.92008 15.2361 5.00008 15 5.00008L15.5942 4.76008ZM15.5942 4.76008C15.7542 4.60008 15.8339 4.4023 15.8333 4.16675L15.5942 4.76008ZM5.91667 7.67758C6.20833 7.79591 6.47222 7.95897 6.70833 8.16675L5 12.5001C4.30556 12.5001 3.71528 12.257 3.22917 11.7709C2.74306 11.2848 2.5 10.6945 2.5 10.0001C2.5 9.30564 2.74306 8.71536 3.22917 8.22925C3.71528 7.74314 4.30556 7.50008 5 7.50008C5.31944 7.50008 5.625 7.55925 5.91667 7.67758Z" fill="white" stroke="#BBBBBB" stroke-width="2"/>
</svg>
