<svg width="10" height="21" viewBox="0 0 10 21" fill="none" xmlns="http://www.w3.org/2000/svg">
<path d="M9.05378 21C8.93864 21.0006 8.82451 20.9786 8.71792 20.935C8.61133 20.8915 8.51438 20.8274 8.43263 20.7463L1.2851 13.5988C0.877743 13.1924 0.554548 12.7097 0.334029 12.1783C0.11351 11.6469 0 11.0771 0 10.5018C0 9.92642 0.11351 9.3567 0.334029 8.82527C0.554548 8.29384 0.877743 7.81114 1.2851 7.40481L8.43263 0.257286C8.51421 0.175716 8.61104 0.111012 8.71762 0.0668665C8.8242 0.0227213 8.93842 8.59477e-10 9.05378 0C9.16914 -8.59477e-10 9.28336 0.0227213 9.38994 0.0668665C9.49652 0.111012 9.59335 0.175716 9.67492 0.257286C9.75649 0.338856 9.8212 0.435693 9.86534 0.542269C9.90949 0.648845 9.93221 0.763073 9.93221 0.87843C9.93221 0.993787 9.90949 1.10801 9.86534 1.21459C9.8212 1.32117 9.75649 1.418 9.67492 1.49957L2.52739 8.6471C2.0359 9.1392 1.75983 9.80627 1.75983 10.5018C1.75983 11.1973 2.0359 11.8644 2.52739 12.3565L9.67492 19.504C9.75692 19.5853 9.82201 19.6821 9.86642 19.7887C9.91084 19.8953 9.9337 20.0096 9.9337 20.1251C9.9337 20.2406 9.91084 20.355 9.86642 20.4616C9.82201 20.5682 9.75692 20.6649 9.67492 20.7463C9.59318 20.8274 9.49623 20.8915 9.38964 20.935C9.28305 20.9786 9.16892 21.0006 9.05378 21Z" fill="#030303"/>
</svg>
