<svg width="24" height="24" viewBox="0 0 24 24" fill="none" xmlns="http://www.w3.org/2000/svg">
<path d="M19.5 3H4.5C4.10218 3 3.72064 3.15804 3.43934 3.43934C3.15804 3.72064 3 4.10218 3 4.5V19.5C3 19.8978 3.15804 20.2794 3.43934 20.5607C3.72064 20.842 4.10218 21 4.5 21H19.5C19.8978 21 20.2794 20.842 20.5607 20.5607C20.842 20.2794 21 19.8978 21 19.5V4.5C21 4.10218 20.842 3.72064 20.5607 3.43934C20.2794 3.15804 19.8978 3 19.5 3Z" stroke="#056AFF" stroke-width="2" stroke-linejoin="round"/>
<path d="M12 14.3125V12.3125C12.5933 12.3125 13.1734 12.1366 13.6667 11.8069C14.1601 11.4773 14.5446 11.0087 14.7716 10.4606C14.9987 9.91237 15.0581 9.30917 14.9424 8.72723C14.8266 8.14529 14.5409 7.61074 14.1213 7.19118C13.7018 6.77162 13.1672 6.4859 12.5853 6.37015C12.0033 6.25439 11.4001 6.3138 10.8519 6.54086C10.3038 6.76793 9.83524 7.15244 9.50559 7.64579C9.17595 8.13914 9 8.71916 9 9.3125" stroke="#056AFF" stroke-width="2" stroke-linecap="round" stroke-linejoin="round"/>
<path fill-rule="evenodd" clip-rule="evenodd" d="M12 18.8125C12.3315 18.8125 12.6495 18.6808 12.8839 18.4464C13.1183 18.212 13.25 17.894 13.25 17.5625C13.25 17.231 13.1183 16.913 12.8839 16.6786C12.6495 16.4442 12.3315 16.3125 12 16.3125C11.6685 16.3125 11.3505 16.4442 11.1161 16.6786C10.8817 16.913 10.75 17.231 10.75 17.5625C10.75 17.894 10.8817 18.212 11.1161 18.4464C11.3505 18.6808 11.6685 18.8125 12 18.8125Z" fill="#056AFF"/>
</svg>
