<svg width="24" height="17" viewBox="0 0 24 17" fill="none" xmlns="http://www.w3.org/2000/svg">
<g clip-path="url(#clip0_358_1489)">
<path d="M3.86693 0L4.80986 0.993982L0.944042 5.06708L0 4.07251L3.86693 0Z" fill="#006BFF"/>
<path d="M6.27061 16.1835L5.26213 15.1236C5.88234 14.4723 6.5132 13.8093 7.14462 13.145C3.87268 9.99997 4.18139 4.75447 7.18439 1.91679C8.60273 0.590851 10.4612 -0.0941027 12.3568 0.0104227C14.2524 0.114948 16.0324 1.00053 17.3109 2.47518C18.5895 3.94982 19.2635 5.89469 19.1869 7.88815C19.1103 9.8816 18.2892 11.763 16.9016 13.1244L18.7891 15.0824L17.7403 16.1794C17.1291 15.5317 16.4909 14.8615 15.8606 14.1832C15.7587 14.0737 15.6925 14.0654 15.5614 14.1384C13.1871 15.49 10.8138 15.4857 8.44162 14.1255C8.41137 14.1078 8.38056 14.0901 8.34918 14.0742C8.32789 14.0675 8.30617 14.0624 8.28419 14.0589L6.27061 16.1835ZM11.3068 2.99793C11.3029 3.05681 11.2978 3.10215 11.2978 3.14514C11.2978 4.6685 11.2978 6.19127 11.3029 7.71405C11.3121 7.81926 11.3563 7.91769 11.4278 7.99199C12.3657 8.99107 13.3071 9.98682 14.2521 10.9792C14.2947 11.024 14.3412 11.0652 14.3642 11.087L15.3805 10.0159C15.3553 9.9882 15.3183 9.94521 15.2785 9.9034C14.4941 9.07901 13.7098 8.24814 12.9159 7.43022C12.8528 7.36963 12.8033 7.295 12.7711 7.21177C12.739 7.12854 12.7249 7.03881 12.7299 6.94913C12.7377 5.71254 12.7338 4.47595 12.7338 3.23936V2.99793H11.3068Z" fill="white"/>
<path d="M24.0004 4.04954L23.0384 5.0606L19.1933 1.01047L20.1564 0L24.0004 4.04954Z" fill="#006BFF"/>
</g>
<defs>
<clipPath id="clip0_358_1489">
<rect width="23.9513" height="16.1506" fill="white" transform="scale(1.00204)"/>
</clipPath>
</defs>
</svg>
