<svg width="108" height="110" viewBox="0 0 108 110" fill="none" xmlns="http://www.w3.org/2000/svg">
<path d="M105.111 22C106.46 22 107.556 23.0951 107.556 24.4444C107.556 25.7938 106.46 26.8889 105.111 26.8889C103.762 26.8889 102.667 25.7938 102.667 24.4444C102.667 23.0951 103.762 22 105.111 22Z" fill="#056AFF"/>
<path d="M105.111 85.5556C106.46 85.5556 107.556 86.6507 107.556 88C107.556 89.3493 106.46 90.4444 105.111 90.4444C103.762 90.4444 102.667 89.3493 102.667 88C102.667 86.6507 103.762 85.5556 105.111 85.5556Z" fill="#056AFF"/>
<path d="M92.8889 100.222C95.59 100.222 97.7778 102.41 97.7778 105.111C97.7778 107.812 95.59 110 92.8889 110C90.1878 110 88 107.812 88 105.111C88 102.41 90.1878 100.222 92.8889 100.222Z" fill="#056AFF"/>
<path d="M88 0C89.3493 0 90.4444 1.09511 90.4444 2.44444C90.4444 3.79378 89.3493 4.88889 88 4.88889C86.6507 4.88889 85.5556 3.79378 85.5556 2.44444C85.5556 1.09511 86.6507 0 88 0Z" fill="#056AFF"/>
<path d="M53.7778 7.33333C26.7764 7.33333 4.88889 29.2209 4.88889 56.2222C4.88889 83.2236 26.7764 105.111 53.7778 105.111C80.7791 105.111 102.667 83.2236 102.667 56.2222C102.667 29.2209 80.7791 7.33333 53.7778 7.33333Z" fill="#FF8700"/>
<path d="M53.7778 92.8889C33.528 92.8889 17.1111 76.472 17.1111 56.2222C17.1111 35.9724 33.528 19.5556 53.7778 19.5556C74.0276 19.5556 90.4445 35.9724 90.4445 56.2222C90.4445 76.472 74.0276 92.8889 53.7778 92.8889Z" fill="#FCFCFC"/>
<path d="M71.952 44.6649C73.8614 46.574 73.8614 49.6687 71.952 51.5778L54.6673 68.8649L47.7544 75.7778L40.8391 68.8649L35.6544 63.6778C34.7013 62.7244 34.2222 61.4729 34.2222 60.2213C34.2222 58.9698 34.7013 57.7182 35.6544 56.7646C37.5638 54.8555 40.6585 54.8555 42.5673 56.7646L47.7544 61.9493L65.0394 44.6649C65.9951 43.7116 67.2442 43.2324 68.4958 43.2324C69.7474 43.2324 70.9965 43.7116 71.952 44.6649Z" fill="#22B07D"/>
<path d="M17.1111 105.111C18.4604 105.111 19.5556 106.206 19.5556 107.556C19.5556 108.905 18.4604 110 17.1111 110C15.7615 110 14.6667 108.905 14.6667 107.556C14.6667 106.206 15.7615 105.111 17.1111 105.111Z" fill="#056AFF"/>
<path d="M11 4.88889C14.3758 4.88889 17.1111 7.62422 17.1111 11C17.1111 14.3758 14.3758 17.1111 11 17.1111C7.62398 17.1111 4.88889 14.3758 4.88889 11C4.88889 7.62422 7.62398 4.88889 11 4.88889Z" fill="#056AFF"/>
<path d="M2.44444 24.4444C3.79378 24.4444 4.88889 25.5396 4.88889 26.8889C4.88889 28.2382 3.79378 29.3333 2.44444 29.3333C1.09487 29.3333 0 28.2382 0 26.8889C0 25.5396 1.09487 24.4444 2.44444 24.4444Z" fill="#056AFF"/>
<path d="M2.44444 85.5556C3.79378 85.5556 4.88889 86.6507 4.88889 88C4.88889 89.3493 3.79378 90.4444 2.44444 90.4444C1.09487 90.4444 0 89.3493 0 88C0 86.6507 1.09487 85.5556 2.44444 85.5556Z" fill="#056AFF"/>
<path d="M83.1111 56.2222C83.1111 54.8722 82.0165 53.7778 80.6667 53.7778C79.3168 53.7778 78.2222 54.8722 78.2222 56.2222C78.2222 69.7011 67.2567 80.6667 53.7778 80.6667C52.4277 80.6667 51.3333 81.7613 51.3333 83.1111V92.8058C52.1415 92.8591 52.9562 92.8889 53.7778 92.8889C54.5994 92.8889 55.4138 92.8591 56.2222 92.8058V85.4546C71.257 84.2082 83.1111 71.5733 83.1111 56.2222Z" fill="#056AFF" fill-opacity="0.3"/>
<path d="M24.4444 56.2222C24.4444 57.572 25.5388 58.6667 26.8889 58.6667C28.2387 58.6667 29.3333 57.572 29.3333 56.2222C29.3333 42.7436 40.2989 31.7778 53.7778 31.7778C55.1276 31.7778 56.2222 30.6834 56.2222 29.3333V19.6387C55.4138 19.5854 54.5994 19.5556 53.7778 19.5556C52.9562 19.5556 52.1415 19.5854 51.3333 19.6387V26.9898C36.2985 28.2363 24.4444 40.8711 24.4444 56.2222Z" fill="#056AFF" fill-opacity="0.3"/>
</svg>
